<svg width="480" height="120" viewBox="0 0 480 120" fill="none" xmlns="http://www.w3.org/2000/svg">
<g clip-path="url(#clip0_8220_9721)">
<path d="M119.019 120C187.277 74.8197 226.741 -9.91132 249.954 1.07227C269.934 10.5268 250.571 77.9902 248.16 120H119.019Z" fill="#F6927E"/>
<path d="M480 120H305.104C331.863 89.9792 365.112 44.0663 399.359 0H480V120Z" fill="#F6927E"/>
<path d="M44.0939 79.1947C43.3706 80.1825 40.1546 84.2969 38.8421 86.0634C40.0992 83.8485 46.7982 75.487 44.0939 79.1947ZM76.9288 71.5835C75.7618 73.0047 74.5975 74.4231 73.4365 75.8378C77.0079 72.0623 81.6958 66.8666 85.0431 63.393C85.5913 62.8247 84.4241 64.5392 85.7026 63.1765C86.9819 61.8132 86.4312 61.7904 88.2451 59.7629C90.2775 57.4879 99.9918 47.4438 103.284 43.9045C115.614 30.6268 127.888 17.1941 140.678 4.15461C127.992 17.8559 141.15 4.56298 144.832 0.578308C145.629 -0.256577 144.837 -0.749954 158.352 -14.1094C164.029 -19.6573 162.912 -17.7405 165.741 -20.29C167.021 -21.4232 169.536 -23.9308 174.059 -28.4201C162.293 -18.187 172.699 -28.7764 183.28 -37.5559C183.694 -37.8855 184.626 -38.6303 185.938 -39.565C186.283 -39.8092 186.573 -40.012 187.055 -40.3334C187.66 -40.7366 188.318 -41.1538 189.099 -41.5958C189.887 -42.037 190.779 -42.5086 192.048 -43.0088C192.128 -43.04 192.209 -43.0711 192.293 -43.1025C192.336 -43.1189 192.368 -43.1308 192.426 -43.1521C192.516 -43.1853 192.608 -43.2185 192.703 -43.2517C193.08 -43.3841 193.492 -43.5163 193.951 -43.6427C194.871 -43.893 195.979 -44.1364 197.44 -44.2367C200.148 -44.4693 205.522 -43.8957 209.778 -39.8055L209.786 -39.7971C213.256 -36.5038 214.455 -32.338 214.707 -29.7747C214.973 -27.1045 214.657 -25.4069 214.38 -24.0481C214.028 -22.4978 213.732 -21.7026 213.38 -20.7649C213.036 -19.8743 212.679 -19.0794 212.302 -18.301C212.013 -17.7082 211.789 -17.2741 211.516 -16.7618C210.986 -15.7664 210.41 -14.7593 209.785 -13.7129C209.305 -12.9117 208.816 -12.1197 208.295 -11.2962C205.978 -7.65027 204.405 -5.38644 202.835 -3.08236C201.528 -1.16176 199.28 2.74649 197.461 5.28099C196.144 7.118 194.776 8.61219 192.79 11.3344C183.294 24.3214 173.711 36.878 163.915 49.5293C168.768 41.4267 159.025 55.1471 158.577 55.6392C156.015 58.4956 166.471 44.7416 162.158 50.0585C156.383 57.6376 150.622 65.1706 144.82 72.762C149.684 66.6612 139.255 81.4748 136.934 83.9183C138.569 83.3116 109.955 117.75 106.214 123.351C105.441 124.505 111.289 117.443 98.3005 134.446C96.8805 136.313 97.1819 135.431 96.4725 136.43C96.0305 137.052 94.1927 141.043 90.9816 144.57C89.859 145.83 95.7252 136.665 81.8377 156.24C88.102 148.947 62.8759 183.702 59.6442 189.801C60.5448 188.513 61.308 187.492 62.2211 186.248C58.1512 192.256 57.9468 193.517 57.2051 194.834C56.3165 196.498 55.6651 197.737 55.0538 199.162C54.9287 199.454 54.8364 199.684 54.7777 199.828C54.722 199.954 54.6828 200.093 54.7142 199.871C54.7347 199.635 54.824 199.248 54.7725 198.092C54.7068 196.623 54.1492 193.145 51.1217 190.056C49.2937 188.172 46.9256 187.092 45.2804 186.718C43.4412 186.318 42.9769 186.43 42.3754 186.437C41.2935 186.526 41.3103 186.629 41.4456 186.585C41.5948 186.554 41.9715 186.435 42.4585 186.238C42.8683 186.073 43.2955 185.883 43.7724 185.652C46.5713 184.259 47.7356 183.356 49.4673 182.192C50.8606 181.211 52.7748 179.932 56.27 177.723C54.6308 178.674 52.7112 179.78 51.0334 180.68C56.0345 177.576 60.7876 174.294 65.8373 170.683C54.7845 179.48 68.4317 168.907 69.1858 168.263C70.6208 167.17 68.7072 168.964 71.1292 167.124C71.365 166.938 70.8872 166.951 74.5959 164.126C82.341 158.178 81.3692 159.333 84.6078 156.833C84.9097 156.592 83.6852 157.236 89.3409 152.737C107.179 138.408 89.2985 153.048 88.7199 153.519C87.8493 154.233 94.638 150.402 79.1187 161.882C84.4055 157.989 85.1091 158.022 85.7193 157.569C86.2651 157.173 95.0604 150.186 95.5585 149.757C99.8674 146.134 95.7831 148.96 96.6067 148.233C97.2578 147.672 108.19 139.469 110.047 136.709C115.695 133.293 107.673 139.703 99.184 146.639C98.0261 147.806 107.592 140.385 108.039 140.014C120.135 130.251 112.975 135.08 115.314 132.586C116.535 131.281 121.773 127.675 116.817 130.848C127.743 121.885 121.334 127.58 122.076 127.052C123.198 126.247 126.902 122.986 127.4 122.612C128.127 122.067 125.824 124.239 128.651 122.037C129.12 121.669 133.347 117.716 127.458 122.278C135.204 116.032 134.359 116.288 137.398 114.672C141.891 109.363 141.735 112.096 143.871 110.441C149.554 106.038 147.302 106.597 147.567 106.318C149.416 104.399 165.043 92.1103 168.868 88.8613C167.746 90.6687 156.52 98.8746 154.251 100.908C146.537 107.787 165.779 91.9843 160.521 97.4188C162.836 95.2192 165.046 93.1109 167.389 90.9015C172.291 87.6886 165.993 93.0554 178.046 83.1199C179.723 81.1382 169.484 90.0884 171.372 88.0757C172.417 86.9337 179.536 81.1726 179.57 80.9988C179.642 80.7507 173.305 86.04 174.173 85.0613C176.097 82.827 199.833 64.7565 182.089 79.0535C187.179 75.0135 190.226 73.8379 194.48 70.1799C197.271 67.8525 180.225 79.0452 204.72 60.89C205.395 60.9048 194.919 68.3777 194.781 68.5648C194.459 68.8737 196.832 68.3315 197.207 68.1093C197.916 67.6858 204.197 62.6977 211.526 57.4997C215.216 54.9 218.958 52.3573 223.136 50.0204C224.899 49.0382 227.357 47.8064 229.413 47.0777C229.845 46.922 230.678 46.635 231.44 46.4276C232.214 46.2144 233.006 46.0387 233.831 45.9133C234.672 45.7878 235.463 45.7148 236.453 45.7114C237.888 45.7022 239.499 45.8903 241.111 46.3977C239.496 45.9014 239.368 45.891 240.406 46.0786C241.376 46.3466 244.184 46.7972 247.428 50.054C252.042 54.254 251.565 62.6946 251.01 63.8775C250.762 65.0302 250.427 66.0966 250.031 67.1371C249.833 67.6574 249.619 68.1714 249.389 68.6862C249.175 69.1636 249.053 69.4193 248.871 69.7917C248.191 71.1842 247.33 72.714 246.4 74.2264C245.661 75.4248 244.831 76.6934 243.939 77.9987C240.581 82.8985 237.16 87.216 236.576 88.11C236.161 88.7308 238.133 86.7331 237.679 87.3871C234.761 91.6625 225.671 101.869 221.638 106.616C217.048 112.058 217.945 111.436 217.671 111.765C215.681 114.085 217.108 112.089 215.892 113.522C213.942 115.865 201.287 130.435 200.686 131.16C200.508 131.384 202.845 129.221 200.115 132.449C199.674 132.964 199.536 132.54 191.512 141.934C181.659 153.441 198.8 134.404 194.965 139.396C188.168 146.224 188.722 146.478 186.983 148.379C186.389 149.026 181.538 153.761 176.678 159.289C180.098 155.311 183.589 151.243 186.953 147.308C183.535 151.052 176.852 158.763 173.997 161.83C172.582 163.353 173.416 161.796 170.418 165.193C169.774 165.925 168.017 169.404 175.524 160.27C176.419 159.799 172.522 163.842 170.851 165.876C170.605 166.176 169.985 167.767 167.511 169.997C166.901 170.546 171.42 162.862 157.419 180.505C156.97 181.071 158.797 179.337 158.362 179.894C158.066 180.273 154.199 184.497 153.801 184.991C153.395 185.497 155.408 183.582 154.931 184.189C152.485 187.3 148.343 190.573 153.808 184.52C151.913 186.482 150.017 188.447 148.124 190.411C150.583 188.688 145.43 193.745 142.953 196.579C127.07 214.766 138.113 202.943 135.54 206.207C131.409 211.459 133.904 206.833 127.622 214.522C127.065 215.218 135.268 206.581 119.723 223.937C121.979 221.317 124.196 218.752 126.465 216.134C124.638 217.206 118.34 225.5 117.796 226.145C111.833 233.161 115.803 228.186 107.112 238.807C106.345 239.747 104.511 241.641 102.926 243.626C96.1767 252.055 112.255 233.009 112.947 232.669C113.23 232.481 95.7212 252.928 95.2284 253.507C92.519 256.3 102.893 244.226 100.696 246.316C99.785 247.029 75.6817 276.513 71.3573 282.501C66.1503 289.164 63.2218 292.045 64.0304 292.542C62.0181 293.793 61.2666 296.117 60.7289 296.949C60.023 298.036 59.4489 298.952 58.9658 299.743C58.3857 300.7 57.9212 301.504 57.5403 302.187C57.1593 302.871 56.859 303.439 56.6113 303.928C56.3551 304.431 56.0708 305.038 55.8938 305.446C55.5241 306.292 55.3503 306.843 55.2998 307.052C55.2843 307.091 55.3447 306.917 55.3341 306.292C55.3166 305.561 55.1218 303.198 53.0362 300.864C50.6824 298.158 47.2346 297.717 46.7247 297.778C46.0308 297.771 45.9888 297.86 46.4819 297.727C47.3125 297.544 49.6844 296.894 50.1019 296.651C50.4803 296.452 49.5787 296.541 51.5041 295.565C54.1936 294.583 72.5611 283.943 73.9925 283.062C75.3679 282.408 66.4557 287.859 68.2148 287.07C74.5348 283.23 80.8782 279.013 87.4164 274.662C90.0796 272.888 88.8204 273.957 89.9796 273.179C90.4773 272.864 99.7449 266.318 99.2707 266.55C98.4034 267.149 69.4976 286.404 76.9497 281.071C78.2923 280.142 83.7653 277.056 82.6508 277.162C108.484 260.15 134.038 241.612 159.324 223.24C145.006 234.202 128.429 245.873 113.086 256.763C110.937 258.297 103.935 263.14 104.883 262.79C117.994 253.726 134.068 241.964 146.609 233.01C147.011 232.723 145.682 233.971 147.196 232.911C150.047 230.914 158.879 223.995 160.465 222.942C160.736 222.77 155.755 226.79 157.435 225.788C161.741 223.217 162.146 221.608 165.618 219.071C168.287 217.131 186.585 204.243 190.863 200.685C195.422 196.903 177.503 210.313 178.664 209.111C190.664 199.915 203.244 190.975 214.719 182.484C214.924 182.332 213.014 183.478 215.599 181.539C220.085 178.176 221.422 177.561 223.617 176.007C225.952 174.352 234.386 168.127 235.503 167.448C235.652 167.356 234.152 168.807 233.901 169.001C230.359 171.737 228.817 172.405 228.484 172.642C227.23 173.543 226.042 174.594 224.935 175.396C223.085 176.736 221.989 177.375 219.525 179.172C217.821 180.414 219.616 179.414 217.97 180.611C217.357 181.057 210.52 185.356 210.299 186.273C210.19 186.51 263.379 147.859 268.819 144.161C264.366 147.197 259.369 150.67 254.934 153.764C264.321 147.209 275.523 138.879 276.619 138.956C282.718 134.773 288.824 130.674 295.009 126.81C298.32 124.748 301.401 122.892 304.871 121.031C306.25 120.291 308.686 119.057 310.468 118.342C310.704 118.246 310.939 118.153 311.173 118.063C311.448 117.957 311.856 117.805 312.199 117.688C312.91 117.444 313.626 117.229 314.393 117.055C314.777 116.968 315.175 116.891 315.596 116.83C315.807 116.799 316.024 116.772 316.248 116.751C316.312 116.744 316.597 116.719 316.801 116.709C317.021 116.697 317.248 116.69 317.485 116.691C319.251 116.686 322.387 117.171 324.77 119.931C326.84 122.348 327.118 125.203 326.967 126.944C326.931 127.402 326.871 127.824 326.796 128.219C326.778 128.313 326.753 128.435 326.741 128.494C326.729 128.548 326.717 128.601 326.705 128.653C326.681 128.759 326.656 128.863 326.63 128.965C326.527 129.373 326.41 129.755 326.284 130.122C326.033 130.855 325.746 131.527 325.432 132.186C325.127 132.831 324.738 133.547 324.54 133.893C324.053 134.752 323.516 135.617 322.925 136.512C322.629 136.959 322.32 137.413 321.997 137.875C321.688 138.318 321.479 138.608 321.208 138.982C320.179 140.4 318.948 142 317.745 143.501C316.692 144.812 315.557 146.185 314.343 147.621C309.688 153.107 305.009 158.223 300.024 163.558C290.329 173.895 280.617 183.745 270.689 193.679C265.257 199.038 267.934 195.861 259.189 204.693C261.579 202.489 263.913 200.337 266.264 198.161C261.794 202.545 241.376 222.393 238.173 225.585C237.764 225.996 237.352 226.849 232.333 231.762C227.858 236.139 226.959 236.681 224.512 238.991C222.465 240.924 220.241 243.16 219.631 243.732C219.163 244.17 218.882 244.246 217.756 245.301C214.201 248.633 217.316 246.169 213.521 249.209C214.356 248.378 215.19 247.548 216.025 246.717C211.751 250.758 205.832 256.195 211.989 250.104C213.047 249.056 212.222 250.041 213.021 249.269C244.225 218.979 219.124 242.982 208.308 253.717C205.36 256.296 189.686 271.584 189.12 272.075C188.349 272.743 190.955 270.017 187.309 273.355C186.538 274.059 165.558 294.462 172.958 286.977C174.477 285.438 184.63 275.704 187.061 273.347C181.047 278.603 168.102 291.899 166.495 293.432C160.321 299.326 178.057 281.776 164.207 295.126C153.756 305.211 163.703 295.918 159.785 299.866C157.452 302.2 145.457 313.496 145.98 313.479C141.941 317.473 144.195 315.018 143.683 315.5C143.274 315.877 135.152 323.983 132.685 326.328C132.376 326.621 133.206 325.557 132.883 325.856C132.219 326.467 124.549 334.147 124.335 334.392C124.185 334.556 126.02 332.932 125.332 333.672C124.414 334.633 117.239 341.826 116.782 342.373C116.406 342.819 125.133 333.955 123.85 335.491C119.526 339.751 113.075 346.502 110.419 349.517C111.185 348.641 114.894 344.784 116.394 343.276C116.131 343.715 113.846 346.141 112.146 347.922C110.165 350.001 108.816 351.375 110.179 349.793C108.423 351.8 109.703 350.519 108.773 351.646C108.651 351.794 107.984 352.516 107.321 353.248C106.511 354.142 105.754 354.998 105.529 355.279C105.427 355.391 108.289 352.393 107.737 353.068C107.297 353.608 105.019 356.09 103.131 358.323C101.056 360.672 99.6809 363.029 100.097 362.215C100.251 361.823 100.224 360.783 100.203 360.86C100.213 360.864 100.21 361.779 100.071 362.131C100.012 362.322 99.9791 362.368 99.9966 362.328C100.004 362.306 100.026 362.258 100.068 362.176C100.153 362.015 100.327 361.721 100.606 361.311C100.676 361.209 100.752 361.099 100.834 360.983C100.913 360.871 101.014 360.731 101.059 360.668C101.175 360.507 101.3 360.337 101.432 360.161C101.695 359.809 101.985 359.433 102.266 359.074C102.827 358.357 103.352 357.711 103.477 357.529C103.515 357.472 101.982 359.173 101.03 360.339C100.842 360.559 100.424 361.104 100.208 361.402C99.9714 361.727 99.8218 361.952 99.7414 362.073C99.6688 362.16 99.6129 362.338 99.7129 361.975C99.8101 361.653 99.7989 360.927 99.7785 360.87C99.7183 360.558 99.8004 361.157 99.7067 361.659C99.666 361.902 99.6014 362.083 99.5767 362.135C99.5508 362.189 99.5781 362.117 99.5966 362.078C99.6425 361.979 99.7581 361.768 99.9674 361.448C100.072 361.288 100.198 361.102 100.346 360.893C100.493 360.687 100.677 360.437 100.77 360.314C101.672 359.103 103.155 357.364 102.721 357.749C101.941 358.645 101.277 359.437 100.744 360.104C100.542 360.347 100.071 360.975 99.8384 361.312C99.5797 361.68 99.4147 361.956 99.3624 362.04C102.625 356.506 114.434 344.885 117.028 341.885C108.161 350.853 99.6155 360.769 99.7757 360.262C99.8134 360.06 100.276 359.314 101.076 358.248C101.462 357.731 101.899 357.175 102.235 356.751C102.562 356.337 102.671 356.191 102.645 356.204C102.483 356.262 100.757 358.287 99.8676 359.51C99.8083 359.591 99.7509 359.669 99.6955 359.746C99.6404 359.822 99.5343 359.969 99.4611 360.073C99.3043 360.295 99.1673 360.497 99.0509 360.676C98.8175 361.034 98.6678 361.297 98.5827 361.464C98.5377 361.552 98.5197 361.592 98.4893 361.662C98.4532 361.745 98.4689 361.732 98.4934 361.635C98.5602 361.451 98.546 360.883 98.5095 360.767C98.4391 360.353 98.2336 359.938 98.0654 359.705C97.8951 359.466 97.7837 359.37 97.7826 359.373C97.7826 359.373 97.7826 359.373 97.7826 359.373C97.7826 359.373 97.7826 359.373 97.7826 359.373C97.7826 359.373 97.7826 359.373 97.7826 359.373C97.7737 359.377 97.9493 359.543 98.1493 359.898C98.3535 360.246 98.4965 360.795 98.4838 361.165C98.4797 361.542 98.3954 361.719 98.4035 361.691C98.4256 361.625 98.4634 361.539 98.5189 361.428C98.6786 361.045 99.6949 359.577 100.308 358.797C101.964 356.649 103.737 354.648 103.897 354.428C104.355 353.782 101.296 356.803 101.102 356.963C101.113 356.944 101.515 356.449 101.942 355.934C102.327 355.468 102.851 354.843 103.357 354.243C104.37 353.043 105.275 351.975 104.311 352.953C103.833 353.439 103.207 354.108 102.582 354.797C102.27 355.142 101.957 355.492 101.659 355.832C101.306 356.235 100.899 356.713 100.569 357.107C99.8941 357.914 99.3794 358.566 99.0401 359.011C98.9061 359.184 98.6458 359.538 98.5259 359.706C98.3925 359.893 98.3201 359.997 98.3019 360.021C97.5118 360.613 104.396 352.286 104.956 351.753C105.017 351.671 103.85 352.895 102.821 354.005C102.302 354.564 101.811 355.1 101.451 355.494C101.296 355.66 101.053 355.934 100.922 356.079C100.78 356.236 100.693 356.331 100.673 356.347C100.734 356.189 103.34 353.036 104.787 351.278C105.74 350.085 102.735 353.315 103.256 352.718C103.343 352.617 103.871 352.019 104.702 351.099C105.431 350.294 106.309 349.335 107.307 348.261C109.362 346.045 111.313 344.001 111.477 343.816C111.997 343.235 110.199 344.96 110.432 344.676C110.728 344.302 113.197 341.779 112.857 342.076C112.523 342.317 103.083 351.85 102.879 352.04C103.086 351.48 112.917 341.412 103.374 350.802C103.26 350.913 101.06 353.48 101.042 353.506C99.6162 355.007 106.334 346.762 97.9831 356.759C113.756 338.245 99.758 354.16 101.839 351.335C102.049 351.055 102.647 350.344 103.404 349.474C104.046 348.732 104.871 347.801 105.723 346.856C106.572 345.913 107.447 344.959 108.118 344.231C108.728 343.567 109.087 343.178 109.097 343.161C108.494 343.586 106.302 346.098 105.599 346.763C105.394 346.956 106.684 345.484 107.99 344.01C109.11 342.731 110.156 341.535 109.489 342.169C109.155 342.486 107.497 344.23 105.766 346.102C104.073 347.932 102.779 349.381 102.518 349.665C99.9233 352.447 102.94 348.9 102.345 349.474C102.136 349.674 101.048 350.876 100.134 351.924C99.6731 352.452 99.2485 352.947 98.9392 353.312C98.7986 353.477 98.6217 353.687 98.5005 353.832C98.3793 353.976 98.3064 354.063 98.2928 354.078C98.2707 354.101 98.3316 354.02 98.4613 353.854C98.5262 353.771 98.6085 353.666 98.707 353.542C98.797 353.428 98.8691 353.335 98.9667 353.212C99.3453 352.731 99.8995 352.042 100.542 351.265C101.181 350.49 101.916 349.619 102.566 348.856C103.093 348.23 103.554 347.688 103.789 347.405C104.484 346.563 101.692 349.546 102.145 349.014C105.082 345.506 112.732 337.86 105.43 345.02C104.945 345.498 102.487 348.221 102.446 348.266C100.88 349.815 105.258 344.939 106.212 343.782C107.57 342.037 100.631 349.728 106.392 343.283C101.898 348.036 99.6792 350.234 95.0517 356.304C108.01 340.495 112.938 335.149 97.7756 352.009C102.418 346.597 101.826 347 103.191 345.454C104.134 344.37 111.345 337.052 107.701 340.075C107.331 340.349 102.963 345.233 104.239 343.623C114.499 332.63 104.619 343.042 104.37 343.309C104.089 342.803 130.002 316.325 134.559 311.801C139.519 306.705 144.151 301.62 145.172 300.589C148.844 296.894 145.904 300.073 146.766 299.287C147.64 298.486 157.999 287.674 158.537 287.162C160.643 285.151 158.686 287.378 158.907 287.17C161.621 284.619 175.625 270.434 179.646 266.491C179.419 266.533 171.465 274.456 176.282 269.357C181.908 263.398 182.669 263.449 182.835 263.32C209.403 236.809 236.065 210.284 262.102 183.322C261.557 183.414 244.559 201.247 244.174 201.539C241.674 203.779 270.663 173.962 274.037 170.417C271.415 173.078 268.703 175.812 265.914 178.611C270.32 173.423 280.47 163.495 286.855 156.196C288.842 153.925 284.813 158.099 284.864 158.02C287.116 155.325 290.705 151.53 288.222 154.614C293.748 148.162 292.996 149.353 297.263 144.486C297.471 144.242 295.547 146.221 298.82 142.288C300.202 140.742 308.292 130.624 308.641 129.528C308.771 129.278 307.985 130.104 306.984 131.285C306.487 131.873 305.94 132.545 305.5 133.147C305.075 133.732 304.872 134.104 304.867 134.353C296.093 144.752 302.392 137.865 299.043 141.88C298.557 142.4 299.384 141.135 290.736 151.117C292.154 148.742 302.365 137.568 303.943 135.293C307.323 131.008 292.834 148.047 290.219 151.379C291.227 149.564 289.026 152.638 285.717 156.238C281.939 160.338 283.472 158.462 281.378 160.733C275.918 166.616 278.439 164.368 273.492 169.222C278.711 164.97 265.6 177.748 261.778 181.372C267.715 175.122 273.676 168.776 279.505 162.429C279.142 162.752 278.778 163.076 278.412 163.401C279.949 161.758 281.424 160.172 283.044 158.419C282.825 158.723 282.605 159.029 282.383 159.336C290.079 150.519 292.213 148.499 292.825 147.832C296.328 143.878 300.154 139.462 303.799 134.865C304.227 134.324 304.637 133.797 305.03 133.287C305.483 132.7 305.961 132.07 306.383 131.499C307.262 130.311 307.897 129.417 308.658 128.274C309.468 127.05 309.977 126.186 310.369 125.391C310.585 124.955 310.643 124.715 310.578 124.906C310.56 124.969 310.55 124.986 310.509 125.189C310.469 125.409 310.418 125.748 310.425 126.251C310.42 127.202 310.776 129.126 312.174 130.737C313.646 132.483 315.646 133.126 316.633 133.248C317.157 133.323 317.516 133.317 317.754 133.306C317.885 133.298 317.929 133.293 317.971 133.289C318.013 133.285 318.047 133.281 318.075 133.278C318.29 133.247 318.098 133.277 317.722 133.418C316.464 134.1 318.131 132.86 306.926 139.442C303.319 141.652 306.564 139.265 302.457 141.984C297.997 145.748 297.623 145.397 296.078 146.445C291.999 149.253 289.334 151.358 288.931 151.643C283.766 155.325 276.072 160.885 270.239 165.23C270.131 165.313 273.324 163.22 269.455 165.999C268.249 166.858 255.938 174.857 245.857 182.861C248.459 180.973 251.305 178.909 253.975 176.981C250.668 179.324 229.043 196.031 234.524 192.193C237.818 189.876 245.598 183.226 246.756 183.079C239.326 188.424 199.387 219.292 196.148 221.585C195.703 221.899 198.246 219.709 197.633 220.145C197.164 220.48 187.972 227.551 186.7 228.422C185.944 228.94 189.947 225.737 189.573 225.932C189.252 226.116 177.677 234.812 177.176 235.506C179.938 233.284 187.945 227.299 183.901 230.643C183.381 231.073 180.504 233.057 179.874 233.578C174.014 238.425 192.037 224.617 194.829 222.481C183.683 231.393 165.888 244.463 152.795 254.538C147.298 258.392 160.493 248.349 154.356 252.733C141.529 261.875 151.178 255.487 150.812 255.796C147.777 258.354 136.482 265.279 136.956 266.034C132.26 269.331 133.77 268.087 127.3 272.971C128.198 272.393 129.138 271.783 130.003 271.225C123.022 277.046 106.856 286.947 108.001 285.979C110.814 283.669 119.338 278.074 119.884 277.656C120.821 276.949 123.232 274.119 134.59 266.776C138.75 262.982 116.886 279.216 126.684 271.543C120.151 276.544 91.4999 296.187 87.526 298.921C87.0648 299.257 89.6917 298.335 82.2282 302.792C78.7288 304.864 86.9992 299.514 85.3633 300.394C84.0652 301.106 79.9292 303.798 73.2476 307.785C72.4475 308.26 71.6587 308.724 70.8049 309.219C69.8456 309.775 68.8771 310.327 67.9063 310.869C65.901 311.984 64.2484 312.888 61.7156 314.147C59.3954 315.28 57.2187 316.317 54.139 317.393C53.4225 317.639 52.7067 317.862 51.981 318.059C51.0348 318.316 49.9071 318.566 48.7843 318.708C48.2146 318.781 47.6244 318.832 47.0013 318.849C46.3132 318.855 45.9564 318.884 44.6717 318.731C42.5225 318.467 39.5777 317.448 37.3835 315.003C35.2192 312.635 34.3894 309.66 34.258 307.39C34.1528 305.515 34.323 304.313 34.5733 302.953C35.2122 299.984 35.7199 298.854 36.4847 296.954C37.304 295.034 37.946 293.759 38.7104 292.296C39.4308 290.919 40.4425 289.146 41.1037 288.03C44.2278 282.766 47.5232 277.969 50.6061 273.619C56.7372 265.013 62.0261 258.265 64.33 255.296C64.9146 254.549 64.8622 254.953 65.4403 254.215C67.272 251.856 73.4885 243.592 76.9525 239.527C69.8264 247.65 82.9366 231.518 86.3944 227.5C91.5216 221.462 91.5307 222.05 93.8347 219.436C102.587 209.518 115.333 193.317 122.728 186.081C121.711 185.958 134.708 172.896 140.196 166.622C144.497 161.695 150.312 154.159 144.252 160.591C151.683 152.119 159.343 143.085 166.262 135.025C167.392 133.708 166.023 135.68 167.941 133.431C168.118 133.221 168.15 132.801 169.814 130.838C183.474 114.687 177.113 122.863 179.844 119.94C181.373 118.297 182.468 117.088 183.255 116.192C175.243 125.623 166.06 136.341 163.555 139.235C166.096 137.172 181.371 118.516 185.988 113.305C186.148 113.126 185.84 113.962 186 113.779C186.003 113.775 186.006 113.771 186.01 113.767C187.775 111.768 198.442 98.9634 195.965 101.315C195.222 102.046 190.372 107.817 184.426 114.813C185.965 112.907 184.515 114.07 184.784 113.732C188.1 109.605 196.752 99.8983 199.714 96.3892C200.382 95.6017 200.161 95.5166 200.269 95.3863C202.869 92.3271 202.376 93.9328 204.6 90.187C210.015 84.8691 195.697 101.155 197.009 100.331C198.179 100.039 228.352 61.8364 226.026 62.0891C226.114 62.0713 226.576 61.4927 227.187 60.5838C227.458 60.1782 227.804 59.5915 228.069 59.0291C228.22 58.715 228.261 58.5251 228.187 58.8424C228.169 58.9237 228.146 59.0395 228.123 59.2016C228.094 59.4026 228.039 59.8631 228.067 60.4679C228.097 61.6202 228.569 64.0594 230.517 66.0972C233.578 69.2887 237.225 68.8561 237.329 68.8385C237.96 68.7709 238.03 68.7038 237.86 68.7724C237.572 68.8764 236.884 69.1827 236.073 69.6179C234.784 70.3093 233.394 71.1919 232.821 71.5866C232.535 71.7906 232.99 72.241 232.647 72.4618C231.923 72.7093 218.498 81.6256 214.012 85.6781C216.66 83.7564 219.319 81.8594 221.981 80.0147C206.243 91.8317 208.774 90.3629 214.156 86.3789C214.422 86.1762 214.693 85.998 214.946 85.8079C218.938 82.9019 224.397 79.0816 224.391 79.1591C224.951 78.6529 198.273 99.5873 203.107 95.1174C203.665 94.5318 216.157 85.1006 209.871 89.4792C208.775 90.224 200.959 96.5745 200.519 96.8814C197.586 98.7864 214.449 84.962 212.136 86.2743C208.242 89.7977 202.748 93.866 197.974 97.8397C195.814 99.6377 195.525 100.281 195.254 100.507C191.318 103.797 193.346 101.73 192.011 102.822C191.231 103.453 183.893 110.361 184.741 108.408C159.24 130.331 177.943 114.829 193.908 101.799C189.003 106.216 179.166 114.068 174.747 117.825C173.161 119.173 174.324 118.637 171.702 120.888C166.272 125.542 139.727 147.071 132.727 152.665C136.885 149.099 135.417 149.838 132.168 152.536C128.925 155.227 131.967 153.358 131.365 153.919C130.713 154.544 115.123 166.938 112.574 169.028C124.12 159.497 121.277 161.341 111.334 169.283C112.732 168.03 114.091 166.804 115.445 165.579C109.708 170.422 97.1141 179.649 93.664 182.474C93.136 182.914 95.2778 181.65 94.982 181.897C92.0566 184.365 81.5045 191.874 81.0048 192.324C80.6875 192.671 85.2578 189.622 83.696 190.932C83.458 191.141 78.7121 194.142 74.4676 197.227C72.8019 198.433 73.9837 197.964 73.5695 198.273C70.0623 200.827 72.269 198.838 65.4942 203.321C60.1662 206.366 58.7553 209.319 46.5347 212.689C51.7454 211.599 53.9776 210.284 55.9162 209.46C57.9295 208.512 59.0501 207.917 59.7961 207.539C61.2995 206.76 61.1206 206.901 59.9271 207.604C58.8775 208.216 56.2549 209.695 53.3436 210.964C51.6 211.71 49.7176 212.469 47.1309 213.053C45.5297 213.397 43.757 213.65 41.6024 213.521C39.2919 213.462 34.6635 212.272 31.6733 209.087C26.9745 204.267 27.5115 198.32 27.5315 197.372C27.9994 194.205 26.689 193.421 31.9834 182.99C31.3284 184.42 30.8342 185.602 30.4464 186.596C30.026 187.659 29.5908 188.847 29.3354 189.652C28.7982 191.329 28.6258 192.226 28.6012 192.468C28.578 192.941 29.1158 190.83 30.4494 187.723C32.6965 182.326 37.1799 174.633 38.5483 172.412C38.7225 172.138 39.0442 172.262 40.5946 169.786C40.6606 169.68 40.5955 169.672 40.6945 169.397C40.7979 169.117 41.0555 168.584 41.7072 167.542C54.9054 147.113 46.6051 160.278 49.3481 156.548C50.6001 154.835 56.9736 145.066 58.7637 142.563C59.1787 141.978 59.1799 142.401 60.796 140.116C63.7264 135.979 66.0122 132.373 67.9429 129.684C68.1524 129.397 68.541 129.515 72.0389 124.527C73.0255 123.123 74.0656 121.475 72.5219 123.383C67.3594 129.758 58.8565 142.618 53.2005 150.166C48.0675 156.912 63.3886 134.993 64.2599 133.923C64.5489 133.52 61.7243 137.771 64.7889 133.587C67.435 129.973 71.7353 122.934 75.8745 117.594C76.2178 117.146 79.8141 113.267 79.7042 113.473C79.5984 113.651 74.8049 120.332 75.6445 119.48C75.7506 119.366 78.8651 115.155 79.3576 114.703C79.9716 114.13 82.4978 113.219 83.1956 112.347C84.9841 110.105 83.5961 111.398 84.7283 109.922C87.1365 106.769 95.7672 96.0529 95.613 95.4115C94.2306 97.1884 92.8328 98.9888 91.4365 100.791C99.0076 90.6723 95.5814 94.8537 96.5842 93.3646C97.6626 91.768 97.6932 92.4757 100.304 89.1067C100.872 88.3617 111.564 74.1787 111.224 74.3185C105.496 82.3191 107.265 79.0813 106.981 79.4355C105.907 80.7835 104.823 82.7244 103.42 84.5576C93.5358 97.4858 103.077 84.1054 100.65 87.0899C99.812 88.1212 98.43 90.3864 98.0803 90.8251C96.9429 92.2519 96.6458 92.063 95.9351 93.0486C94.2785 95.3468 96.6693 93.0108 96.5549 93.205C95.284 95.3927 88.9673 103.127 92.2812 97.8365C89.8746 100.704 90.1377 101.447 88.1603 103.64C84.2435 107.993 89.5916 101.089 90.9719 99.119C95.8599 92.1252 97.6006 90.2387 104.821 80.611C107.428 77.1387 110.298 72.8543 111.506 71.2453C112.263 70.2333 120.43 61.3983 119.26 60.0595C122.201 56.4966 127.594 51.3542 130.437 47.5599C132.991 44.1507 131.696 44.8234 131.916 44.4981C132.268 43.977 135.481 39.8641 136.466 38.4331C137.63 36.7432 136.804 37.4347 138.718 34.7758C143.517 28.1083 143.836 28.7247 144.381 28.0799C150.639 20.6567 147.361 23.4704 148.605 21.7189C149.699 20.2167 166.934 -2.03922 170.056 -6.80827C168.818 -4.90167 167.518 -2.92307 166.16 -0.879337C169.103 -4.18277 171.077 -7.98266 171.77 -7.73325C171.422 -9.17762 177.11 -15.7699 178.531 -17.8954C179.088 -18.7179 178.848 -18.7123 179.568 -19.7707C180.963 -21.8311 182.832 -24.5385 184.562 -27.3079C184.759 -27.6228 184.942 -27.9217 185.112 -28.2022C185.302 -28.5161 185.531 -28.9032 185.703 -29.2026C186.059 -29.821 186.313 -30.2976 186.467 -30.6064C186.675 -31.0113 186.72 -31.2129 186.566 -30.7455C186.53 -30.6309 186.486 -30.4773 186.438 -30.2778C186.37 -29.9902 186.223 -29.3216 186.183 -28.3989C186.068 -26.724 186.47 -22.4462 190.004 -19.0782L190.012 -19.0713C192.755 -16.4398 196.035 -15.729 197.825 -15.6376C199.71 -15.5411 200.69 -15.7973 201.359 -15.9461C201.748 -16.0423 202.041 -16.1355 202.275 -16.216C202.488 -16.2905 202.508 -16.2974 202.606 -16.3334C202.768 -16.3934 202.886 -16.4409 202.977 -16.4777C203.159 -16.5514 203.236 -16.5831 203.275 -16.5919C203.347 -16.6082 203.273 -16.5403 203.214 -16.4752C203.066 -16.3248 203.055 -16.2588 203.134 -16.2558C203.222 -16.2602 203.507 -16.3824 203.456 -16.2943C203.417 -16.2479 203.298 -16.1391 202.794 -15.9047C202.714 -15.8799 201.841 -15.4012 199.887 -15.1562C198.11 -14.927 193.564 -14.9423 189.614 -18.6545L189.607 -18.6617C186.612 -21.4853 185.726 -25.0699 185.597 -26.9657C185.448 -28.9421 185.743 -30.0489 185.819 -30.4577C185.947 -31.0607 186.026 -31.2721 186.008 -31.2835C186 -31.2878 185.969 -31.2384 185.916 -31.1465C185.858 -31.0426 185.799 -30.9439 185.741 -30.8488C185.621 -30.6485 185.462 -30.3842 185.267 -30.0663C184.342 -28.5466 183.463 -27.2621 182.28 -25.5297C180.259 -22.6099 178.034 -19.5576 177.726 -19.135C178.461 -20.1886 180.626 -23.3419 182.537 -26.4308C183.035 -27.2348 183.484 -27.9849 183.862 -28.6448C184.246 -29.3108 184.735 -30.1994 184.97 -30.6883C185.101 -30.9537 185.188 -31.149 185.258 -31.3178C185.354 -31.5394 185.369 -31.6231 185.311 -31.5013C185.282 -31.4398 185.234 -31.3259 185.172 -31.1437C185.142 -31.0526 185.108 -30.9442 185.071 -30.816C185.053 -30.7518 185.034 -30.6827 185.015 -30.6082C185.005 -30.5738 184.946 -30.3234 184.911 -30.1409C184.77 -29.3381 184.543 -28.0827 184.842 -25.938C185.118 -23.8679 186.281 -20.5409 188.974 -17.9986L188.982 -17.9909C192.245 -14.8398 196.309 -14.1012 198.416 -14.1094C200.652 -14.1068 201.754 -14.482 202.495 -14.6941C202.665 -14.7468 202.878 -14.8223 202.932 -14.8405C202.998 -14.8632 203.059 -14.8848 203.116 -14.9051C203.23 -14.9459 203.327 -14.9819 203.41 -15.0136C203.577 -15.0771 203.692 -15.1232 203.78 -15.1566C204.111 -15.2859 204.084 -15.239 204.119 -15.2116C204.128 -15.1722 204.211 -15.1677 204.049 -15.0296C203.951 -14.9556 203.796 -14.8371 203.258 -14.5941C203.19 -14.5637 203.114 -14.5314 203.03 -14.4972C202.879 -14.4376 202.651 -14.3545 202.398 -14.2743C201.882 -14.1136 201.19 -13.9184 200.124 -13.7858C198.257 -13.5675 193.317 -13.3426 188.656 -17.6496L188.648 -17.6576C185.678 -20.4339 184.491 -24.1434 184.268 -26.3364C183.954 -29.082 184.494 -30.7216 184.533 -30.9303C184.642 -31.329 184.74 -31.5616 184.8 -31.6737C184.861 -31.7856 184.887 -31.7774 184.875 -31.6876C184.869 -31.6426 184.854 -31.577 184.83 -31.4949C184.818 -31.4369 184.805 -31.376 184.787 -31.3074C184.651 -30.7633 184.287 -29.8487 184.045 -29.4179C182.609 -26.8765 182.178 -26.4324 182.354 -26.8841C182.503 -27.3098 182.978 -28.3155 182.829 -28.117C182.592 -27.7976 181.985 -26.6487 181.229 -25.3186C180.623 -24.2153 179.894 -22.9549 179.521 -22.4519C179.278 -22.1411 180.417 -24.4886 176.576 -18.9483C177.056 -19.8993 179.208 -23.0677 181.11 -26.0142C182.27 -27.8188 183.037 -29.0263 183.947 -30.6244C184.313 -31.2704 184.554 -31.7551 184.606 -31.8664C184.607 -31.8554 184.501 -31.6336 184.327 -30.9565C184.302 -30.854 184.296 -30.8359 184.25 -30.6254C184.202 -30.4093 184.153 -30.1553 184.108 -29.852C184.019 -29.245 183.934 -28.4425 183.98 -27.3242C184.047 -25.244 184.836 -20.9773 188.489 -17.491L188.498 -17.4829C191.036 -15.0194 194.358 -13.8379 196.618 -13.5644C198.937 -13.2659 200.434 -13.5316 201.461 -13.7413C203.673 -14.3023 203.429 -14.3776 203.834 -14.5199C204.362 -14.7701 204.404 -14.8224 204.357 -14.7878C204.145 -14.6516 203.927 -14.4879 203.776 -14.3636C203.583 -14.2016 204.243 -14.405 203.973 -14.0675C203.749 -13.7361 202.101 -12.6671 195.918 -7.54556C196.114 -7.6176 196.309 -7.68802 196.502 -7.75689C193.258 -4.75648 189.984 -1.5785 186.973 1.3909C183.429 4.88783 180.208 8.12952 176.636 11.756C177.238 10.8865 180.771 6.80699 176.062 11.6598C173.478 14.3356 175.706 12.6659 175.477 12.9149C173.121 15.2221 130.574 59.2294 122.417 67.9087C119.616 70.8609 112.082 79.2062 111.484 79.8388C107.957 83.5756 95.1885 96.6117 92.7236 99.2395C91.1799 100.889 92.9139 99.5552 91.4891 101.017C90.1632 102.376 91.2953 100.741 90.8952 101.139C87.6149 104.425 63.4038 130.089 57.3182 135.833C60.8891 132.351 78.3492 113.43 77.7604 113.702C77.6421 113.782 73.25 117.994 72.3879 119.052C70.6654 120.453 66.3276 126.099 63.3712 128.908C63.0528 129.209 63.9212 127.672 58.9613 132.647C57.3393 134.27 52.9704 139.246 48.2693 143.457C45.6653 146.201 38.9479 152.96 31.1783 160.517C27.4475 164.136 23.2353 168.175 19.3021 171.773C18.4619 172.538 17.2389 173.651 16.2767 174.5C15.2261 175.427 14.5759 175.988 13.3036 177.061C12.7491 177.524 12.223 177.953 11.7173 178.353C11.4644 178.553 11.2165 178.745 10.972 178.932C10.8408 179.032 10.7584 179.094 10.5806 179.228C10.3898 179.372 10.1997 179.513 10.0092 179.651C9.24315 180.205 8.49057 180.718 7.55701 181.252C7.32225 181.386 7.07428 181.52 6.80519 181.658C6.75607 181.683 6.32174 181.904 5.95754 182.064C5.57302 182.234 5.14045 182.41 4.62234 182.584C3.58121 182.914 2.21798 183.329 -0.0392433 183.283C-2.20525 183.264 -5.78391 182.366 -8.42778 179.772C-14.1805 173.234 -11.9458 169.178 -12.2299 168.643C-12.0968 167.624 -11.9169 166.895 -11.7389 166.242C-11.6507 165.922 -11.5525 165.601 -11.4694 165.345C-11.4087 165.158 -11.3476 164.977 -11.2863 164.802C-11.1638 164.452 -11.0405 164.121 -10.9164 163.802C-10.3632 162.398 -10.053 161.743 -9.69298 160.947C-8.93268 159.303 -8.60441 158.636 -8.43375 158.199C-8.36004 157.831 -12.156 165.507 -9.86044 160.215C-6.83834 153.867 -9.03138 159.637 -5.17667 152.903C-4.64422 151.684 6.11401 134.468 6.53178 133.913C9.51519 128.554 -0.325178 143.305 -0.214178 143.16C0.00452042 142.464 7.9467 130.14 8.3923 129.599C8.69748 129.193 2.53393 139.481 10.3642 127.357C9.40419 128.658 8.42336 129.999 7.43028 131.37C11.1128 125.611 11.7864 125.367 12.7612 123.967C15.6444 119.875 18.3363 114.966 23.6427 108.74C25.0373 107.107 23.1541 110.111 23.336 109.906C24.9915 108.008 26.4624 104.788 29.0788 102.026C29.302 101.791 24.2098 109.3 33.5091 96.4992C32.8503 97.3189 32.1477 98.2034 31.4645 99.0626C32.6845 97.1549 42.0954 84.3713 43.4801 82.6192C47.2984 77.6916 44.2585 82.2289 48.0426 77.1879C45.2226 80.1215 56.8741 64.9188 56.5287 65.9957C57.7431 63.6687 68.1961 51.0283 73.0099 45.1673C76.0837 41.376 82.1673 33.7518 83.2038 32.5534C84.4279 31.1272 84.2639 31.7463 86.4685 29.2077C87.0947 28.4774 93.3908 20.6998 99.3849 14.1738C100.531 12.9257 103.193 10.4908 101.209 12.9473C97.7941 17.1721 90.9162 24.7569 91.1945 24.8435C91.5 24.8962 100.334 14.2229 102.782 11.4792C114.19 -1.41064 107.872 6.27668 108.236 5.97869C109.123 5.25402 115.301 -1.80362 115.588 -2.09069C116.721 -3.26339 112.43 1.84174 112.464 1.99303C112.497 2.18666 118.687 -4.45218 117.364 -2.8672C115.467 -0.608173 109.839 5.51194 109.516 5.90846C105.162 11.1956 111.567 4.32351 113.395 2.48667C113.949 1.92864 111.975 4.34813 112.413 3.8669C119.098 -3.48555 113.399 1.95196 117.785 -2.9901C121.692 -7.36852 116.883 -1.55455 117.042 -1.70846C117.241 -1.92168 121.882 -7.18458 122.682 -7.96378C123.041 -8.36812 111.362 5.72725 112.056 5.29722C115.813 0.839802 119.61 -3.60134 123.435 -8.01002C123.92 -8.18888 118.259 -1.99936 117.721 -1.33067C116.617 0.0239944 119.905 -3.56223 119.83 -3.35036C119.792 -3.23264 116.214 1.18924 119.635 -2.64734C120.81 -3.96289 123.121 -6.90209 127.535 -11.6394C112.891 5.45785 123.267 -6.18867 123.761 -6.6395C124.252 -7.07375 117.374 1.18522 125.898 -8.69811C126.639 -8.81141 125.823 -8.38456 123.463 -5.52567C120.589 -2.01443 127.526 -9.88086 116.661 2.64197C117.465 2.0467 126.091 -8.04309 126.597 -8.57373C127.009 -9.02547 125.149 -6.70481 125.871 -7.48162C134.375 -16.6305 128.609 -10.2815 131.183 -12.8319C131.4 -13.056 139.267 -21.8974 133.366 -15.0921C122.695 -2.70208 118.079 2.35153 116.863 4.93431C124.846 -4.17231 134.08 -15.5294 136.535 -18.3084C140.227 -22.5324 136.49 -18.0782 136.975 -18.5735C137.138 -18.7462 140.325 -22.3903 140.378 -22.4325C142.996 -24.7425 126.177 -6.16267 121.217 -0.0445786C122.635 -1.60012 124.058 -3.15905 125.488 -4.72102C123.63 -2.52594 121.803 -0.353863 119.958 1.85365C128.856 -8.46226 120.322 1.48473 118.472 4.43892C118.06 5.09486 123.674 -1.93997 117.34 6.13731C122.216 0.356529 120.742 2.26541 125.028 -3.0421C125.034 -2.81094 115.367 9.13305 111.638 13.9305C125.352 -2.50956 117.076 6.48514 129.242 -7.49955C131.305 -10.263 125.612 -3.46567 126.057 -4.04028C127.641 -6.1134 131.665 -10.6019 136.152 -16.4287C136.882 -17.3718 133.421 -13.7063 138.32 -19.3263C138.859 -19.9448 142.117 -23.4067 142.084 -23.3497C141.764 -22.7878 138.639 -19.2801 138.557 -19.0966C138.475 -18.9237 141.894 -22.8962 141.921 -22.9002C142.148 -22.9115 139.093 -19.5601 139.566 -20.022C140.588 -21.0112 153.228 -35.0284 137.021 -16.5C150.259 -32.0568 138.573 -18.6486 133.446 -12.5085C132.143 -10.9512 131.89 -10.4894 130.057 -8.26457C127.686 -5.3857 124.842 -2.06878 123.632 -0.582939C122.33 1.03096 130.041 -7.86227 119.125 5.20147C124.825 -1.33092 134.458 -13.2145 140.163 -19.5367C151.629 -32.3171 132.644 -10.1873 130.8 -7.80829C130.291 -7.18505 132.136 -9.15721 131.798 -8.74021C131.231 -8.07668 120.64 4.59844 119.714 5.98177C118.781 7.33152 123.561 1.26841 123.977 0.981834C124.25 0.740368 111.824 16.3472 118.654 8.00945C123.37 2.21276 131.851 -8.54509 133.612 -10.0567C126.618 -1.65038 119.723 6.84484 112.93 15.4124C116.813 10.8056 120.655 6.28615 124.56 1.72984C116.829 11.3069 110.139 19.4248 103.142 28.8173C120.792 7.09391 97.8991 36.2158 97.7456 36.6657C97.6904 36.7987 104.757 28.3343 105.901 26.9959C99.9919 34.7779 82.403 58.5777 93.2065 45.0688C91.2115 47.5054 86.9608 53.8223 87.0358 53.772C87.8352 53.1023 97.5789 39.7145 96.1681 42.0108C94.4738 44.7248 91.574 48.0091 88.7375 51.9084C74.2286 72.0548 79.3992 67.382 65.0314 87.6061C65.3596 87.2285 65.6886 86.8499 66.0183 86.4704C50.6534 108.636 35.719 131.057 22.1897 153.989C20.9568 156.408 19.1987 159.735 17.2177 163.659C16.2997 165.497 15.2669 167.584 14.3292 169.655C13.9141 170.582 13.4316 171.702 13.1846 172.403C13.0434 172.786 12.9277 173.168 12.9622 173.145C12.9692 173.15 13.0541 172.986 13.1847 172.349C13.2165 172.188 13.2502 171.994 13.2814 171.755C13.2971 171.633 13.3111 171.513 13.3255 171.352C13.3496 171.068 13.3678 170.734 13.3659 170.328C13.2669 168.871 13.4156 165.337 9.38991 161.203C5.60416 157.552 0.918586 157.353 -1.03696 157.61C-3.19909 157.877 -4.07354 158.337 -4.6635 158.577C-4.79622 158.636 -4.95735 158.716 -4.99323 158.733C-5.03685 158.754 -5.07704 158.773 -5.11415 158.791C-5.18838 158.828 -5.25037 158.859 -5.30243 158.886C-5.40642 158.939 -5.47111 158.973 -5.50854 158.991C-5.58245 159.026 -5.54985 158.996 -5.45617 158.916C-5.37774 158.848 -5.14891 158.662 -5.06463 158.583C-4.5919 158.166 -3.81338 157.467 -2.9392 156.646C-1.66721 155.435 0.344261 153.468 1.6512 152.137C4.8386 148.929 7.47301 146.184 9.94079 143.65C11.7047 141.858 21.3274 132.139 22.1562 131.324C23.5413 130.014 16.3081 137.759 19.7207 134.433C20.6284 133.574 36.2451 117.003 34.9433 117.869C33.1026 119.798 27.8059 125.757 26.7738 126.736C20.075 133.201 68.8631 81.0011 71.1013 78.1796C69.9515 79.2512 68.7737 80.3535 67.6084 81.4432C70.7481 78.1186 73.7998 74.8901 76.9288 71.5835ZM33.6224 94.4421C35.0102 92.0767 39.2784 86.7063 41.6754 83.4132C44.938 78.8917 49.976 70.7022 48.2829 74.5851C43.2946 81.196 38.4969 87.6853 33.6224 94.4421ZM37.0463 156.105C33.0601 159.786 35.5086 156.335 38.9041 153.382C39.2997 153.032 42.4676 151.068 37.0463 156.105ZM-2.02821 146.143C-2.16493 146.367 -4.68864 150.505 -4.80766 150.707C-7.34577 154.375 0.435006 141.631 -2.02821 146.143ZM189.141 -1.67678C185.123 2.28357 188.405 0.130146 190.998 -2.79398C191.157 -2.97528 189.442 -1.97165 189.141 -1.67678ZM186.202 1.15847C182.276 4.04336 176.935 11.3586 181.95 6.14834C182.342 5.73071 186.42 0.983791 186.202 1.15847ZM22.5693 169.744C23.0843 168.953 27 165.386 28.9977 163.507C28.9926 163.813 24.4542 167.949 22.5693 169.744ZM122.915 66.9197C122.928 66.6137 109.41 80.7819 108.672 81.9312C110.735 79.6132 122.885 67.2113 122.915 66.9197ZM157.437 30.5326C157.083 30.8453 152.354 35.8215 152.662 35.7622C155.1 33.5724 159.117 29.0267 157.437 30.5326ZM172.798 -13.5695C172.562 -13.1822 176.585 -16.7322 168.912 -7.46334C167.778 -6.09655 171.278 -11.4053 170.862 -10.91C170.033 -9.90329 169.377 -9.06718 168.863 -8.3748C172.175 -13.0583 175.289 -17.5472 175.69 -18.0024C177.479 -19.9657 172.789 -13.5675 172.798 -13.5695ZM142.315 28.5886C141.798 29.576 137.157 35.4807 136.13 36.6939C135.945 36.9127 136.314 35.6215 134.341 38.2589C132.75 40.3864 135.569 37.5342 132.347 41.6078C129.074 45.7462 133.077 39.932 132.773 40.2867C132.372 40.7555 127.603 47.349 127.537 46.9549C127.459 46.7002 132.895 39.8472 134.15 38.1321C135.762 35.929 133.471 38.3277 136.292 34.7695C138.088 32.5018 137.621 34.1584 138.018 33.6917C138.379 33.2661 144.18 25.067 142.304 28.5996C142.308 28.5959 142.312 28.5923 142.315 28.5886ZM168.028 -7.18549C168.252 -7.52815 168.498 -7.8835 168.863 -8.3748C168.559 -7.94386 168.307 -7.58179 168.028 -7.18549ZM24.4162 107.473C22.6098 109.74 27.4596 102.635 29.4907 100.192C29.6449 100.228 24.7044 107.094 24.4162 107.473ZM165.432 -2.78594C160.295 3.85917 163.916 -1.34562 168.028 -7.18549C166.794 -5.30131 167.133 -4.99794 165.432 -2.78594ZM72.3879 119.052C72.6674 118.826 72.875 118.711 72.9778 118.769C72.2364 119.357 72.1302 119.371 72.3879 119.052ZM86.0025 105.212C90.3369 100.19 81.0459 109.885 81.2493 110.032C81.3708 110.043 85.8232 105.42 86.0025 105.212ZM194.579 -6.79793C194.2 -6.48039 200.017 -13.4817 191.015 -3.86657C196.12 -8.52686 190.951 -3.46426 191.053 -3.41605C191.452 -3.45824 199.861 -11.6817 201.637 -12.8524C202.779 -14.5253 196.262 -8.29616 194.59 -6.80884C194.586 -6.80519 194.582 -6.80158 194.579 -6.79793ZM84.692 103.735C85.4515 102.233 88.7216 98.0376 90.9079 95.1713C90.1306 96.6862 86.8375 100.9 84.692 103.735ZM265.944 168.68C246.542 183.406 243.551 184.692 261.563 171.57C261.94 171.295 267.082 167.734 265.944 168.68ZM97.4482 294.387C95.348 295.337 101.471 291.064 105.815 288.204C106.812 287.55 110.533 285.419 106.569 288.314C106.393 287.848 100.122 292.013 97.4482 294.387ZM162.911 1.17287C161.828 3.21881 157.08 9.1326 154.74 12.1366C155.911 10.1142 160.833 3.78611 162.911 1.17287ZM201.734 216.827C199.668 218.369 198.484 219.678 198.852 219.431C200.501 218.326 204.187 215.184 201.734 216.827ZM176.889 -17.9558C177.072 -18.0355 175.847 -16.102 174.353 -13.9936C173.022 -12.1083 171.409 -10.0193 170.995 -9.8905C171.637 -10.7422 173.06 -12.7193 174.277 -14.4163C175.654 -16.3344 176.768 -17.8979 176.889 -17.9558ZM88.8726 98.4306C89.882 97.2634 85.2302 103.759 83.7265 105.598C83.657 105.32 88.1998 99.206 88.8726 98.4306ZM168.749 242.067C166.899 243.432 162.281 246.908 161.841 247.408C161.313 248.02 168.044 242.862 168.749 242.067ZM151.512 292.977C151.311 293.127 157.308 286.712 160.227 283.881C165.685 278.59 151.695 292.822 151.512 292.977ZM221.039 201.887C226.97 197.741 220.413 202.375 220.851 202.439C224.683 199.526 234.482 192.087 227.591 196.946C226.229 197.907 222.86 200.524 221.039 201.887ZM215.634 205.876C215.071 206.434 211.074 209.894 214.684 207.109C216.355 205.819 218.833 203.477 215.634 205.876ZM190.512 253.757C195.266 249.278 174.023 270.386 173.428 270.938C173.097 271.244 172.877 271.441 172.749 271.55C172.038 272.348 167.993 276.412 167.437 276.757C168.637 275.572 171.941 272.243 172.321 271.887C172.488 271.73 172.614 271.613 172.702 271.535C173.975 270.07 189.604 254.612 190.512 253.757ZM225.582 218.814C220.577 224.31 219.265 224.879 219.709 224.41C225.261 218.5 221.815 222.531 222.003 222.366C222.425 221.985 226.333 217.779 225.566 218.831C225.571 218.825 225.577 218.819 225.582 218.814ZM197.744 246.628C197.53 246.851 193.104 251.263 192.915 251.442C189.173 254.955 201.711 242.45 197.744 246.628ZM118.839 60.4055C116.026 63.9132 118.415 60.1812 120.33 57.9021C120.488 57.7173 121.315 57.3182 118.839 60.4055ZM212.814 208.116C211.997 208.68 190.695 224.696 192.209 224.041C193.987 222.633 218.14 204.444 212.814 208.116ZM33.1688 309.975C33.8178 312.799 35.2985 314.916 36.2795 316.002C37.4718 317.306 38.0792 317.666 37.9871 317.653C37.9154 317.619 37.1747 317.153 36.172 316.097C34.5525 314.537 32.7494 310.985 32.5468 307.968C32.311 305.271 32.6042 303.866 32.907 302.445C33.1343 301.562 32.9797 302.382 32.8329 303.81C32.7629 304.528 32.7092 305.416 32.7286 306.343C32.7334 306.579 32.7415 306.792 32.7559 307.055C32.7734 307.393 32.8009 307.732 32.8385 308.068C32.9132 308.738 33.0308 309.393 33.1688 309.975ZM184.146 -27.9921C184.53 -28.7619 184.999 -29.5621 185.207 -29.8458C185.439 -30.1684 185.566 -30.2299 185.614 -30.1431C185.659 -30.0514 185.619 -29.8021 185.405 -29.3431C185.297 -29.113 185.144 -28.8288 184.931 -28.4804C184.758 -28.1993 184.559 -27.9114 184.296 -27.5615C184.214 -27.4525 184.078 -27.8579 184.146 -27.9921ZM82.1119 304.194C67.8883 313.267 71.1503 310.109 89.2448 298.789C88.7275 299.204 88.2686 299.579 87.7037 300.022C108.185 286.424 89.251 299.216 84.0338 302.624C82.1119 303.9 83.8466 303.042 82.1259 304.187C82.1212 304.189 82.1165 304.191 82.1119 304.194ZM44.8689 279.428C55.0713 267.446 36.0457 288.442 33.3539 304.456C34.5406 296.18 37.2783 292.668 38.1806 290.449C38.6819 289.453 38.7843 289.187 38.2017 290.113C37.9147 290.574 37.4625 291.328 36.8684 292.405C36.5719 292.944 36.2409 293.562 35.8849 294.265C35.4318 295.173 34.9513 296.189 34.4757 297.331C40.0165 284.981 42.0891 283.6 42.4803 282.783C42.8877 282.312 41.7718 284.257 42.0416 283.864C42.3489 283.41 42.987 282.367 43.5911 281.403C44.1259 280.542 44.6627 279.698 44.8689 279.428ZM62.8725 315.147C63.1006 315.024 63.7417 314.709 64.5825 314.283C65.2936 313.926 66.2055 313.46 67.187 312.943C69.0966 311.941 71.5629 310.553 72.4849 309.985C71.133 310.984 67.092 313.317 64.6239 314.538C61.5513 316.075 59.844 316.735 62.8725 315.147ZM261.732 181.608C261.469 182.14 260.639 183.201 256.824 187.051C257.931 185.78 260.26 183.253 261.732 181.608ZM37.7267 90.955C39.9292 87.9985 44.4624 82.1105 42.8999 83.7926C42.6979 84.0173 37.6473 90.8173 37.7267 90.955ZM151.083 254.725C150.397 255.221 134.094 267.306 139.9 263.323C141.615 262.168 156.493 251 151.083 254.725ZM234.823 191.161C233.496 192.165 228.029 196.375 227.935 196.513C227.68 196.932 234.356 191.729 234.823 191.161ZM49.1733 76.1201C49.5171 75.6846 56.3476 66.7664 55.5326 67.6594C53.8788 69.4466 48.1061 77.3737 49.1733 76.1201ZM109.497 73.8443C108.934 74.6018 107.901 75.3844 107.7 75.642C107.222 76.2502 96.8773 90.0706 100.516 84.5533C101.114 83.6236 116.319 63.9902 118.338 61.4404C119.475 60.7371 112.66 68.8939 111.136 70.9717C110.867 71.339 111.006 71.8113 109.501 73.8369C109.499 73.8394 109.498 73.8419 109.497 73.8443ZM242.468 201.718C242.072 202.376 227.932 216.874 227.945 216.572C232.806 211.623 237.642 206.679 242.468 201.718ZM249.675 194.38C252.806 191.335 245.65 198.733 243.606 200.743C243.483 200.713 249.223 194.823 249.675 194.38ZM203.789 213.81C202.197 215.089 207.374 211.533 206.293 212.432C205.603 213.006 201.904 215.68 200.802 216.643C200.491 216.919 204.375 214.325 205.434 213.5C206.942 212.329 205.333 213.268 206.987 212.004C212.447 207.833 217.476 204.202 222.587 200.302C223.049 199.949 219.369 202.553 223.312 199.552C223.89 199.112 227.789 196.439 232.496 192.818C242.549 184.28 250.674 178.998 263.912 168.823C263.349 169.15 253.253 176.47 252.671 176.906C241.429 185.183 221.502 200.327 209.836 209.22C206.856 211.491 208.397 210.515 207.115 211.499C206.1 212.279 207.137 211.12 203.789 213.81ZM36.6779 92.658C38.0185 91.3436 41.4815 86.3542 43.935 83.1233C42.829 84.1457 39.0892 89.4867 36.6779 92.658ZM309.579 128.005C310.015 127.315 310.593 126.406 311.039 125.476C311.245 125.049 311.248 124.898 311.169 125.22C311.115 125.47 310.989 126.167 311.171 127.193C311.334 128.211 311.929 129.485 312.663 130.318C313.886 131.712 314.931 132.058 315.216 132.214C315.477 132.326 315.366 132.308 314.912 132.109C314.473 131.904 313.558 131.461 312.601 130.368C311.736 129.417 311.099 127.875 311.004 126.799C310.879 125.718 311.081 125.085 311.075 125.084C311.145 124.842 311.057 125.19 310.752 125.785C310.321 126.664 309.607 127.835 309.579 128.005ZM51.3055 152.469C51.2664 152.538 48.3877 156.719 48.3038 156.829C45.5788 160.243 53.874 148.205 51.3055 152.469ZM104.186 176.232C107.064 173.897 109.76 171.584 110.942 171.056C109.091 172.478 104.029 176.65 104.186 176.232ZM225.71 78.093C224.965 78.0656 233.408 72.5705 234.915 71.8734C234.357 72.2703 226.422 77.8743 225.71 78.093ZM262.824 181.599C258.258 186.321 259.474 185.594 256.387 188.537C255.888 189.009 253.777 190.083 259.1 184.993C260.041 184.092 256.646 187.885 262.824 181.599ZM92.0905 296.895C93.352 295.776 97.9763 292.708 100.813 290.754C100.3 291.323 94.2334 295.444 92.0905 296.895ZM61.9018 60.0763C64.0363 57.7681 72.9166 46.3589 70.5422 49.0526C70.1896 49.435 63.1716 58.4554 61.9018 60.0763ZM153.92 15.3601C150.573 20.3171 158.097 10.5589 160.109 7.33529C159.026 8.81789 154.195 14.9651 153.92 15.3601ZM196.326 100.51C196.487 100.36 201.435 96.4229 201.646 96.2784C205.818 93.3363 192.046 104.299 196.326 100.51ZM73.3344 198.718C75.339 197.108 87.5155 188.462 90.4543 186.49C88.0719 188.918 71.3273 200.626 73.3344 198.718ZM281.371 161.836C278.327 165.134 275.014 168.588 272.098 171.573C272.514 170.964 281.097 162.011 281.371 161.836ZM214.156 86.3789C214.422 86.1762 214.693 85.998 214.946 85.8079C214.679 86.0014 214.414 86.1913 214.156 86.3789ZM278.546 157.665C275.405 159.875 276.204 159.63 276.402 159.495C278.686 157.933 282.352 154.993 278.546 157.665ZM39.7632 89.2348C40.7655 88.3305 44.6863 82.7199 47.0169 79.756C46.1962 80.4876 41.5524 86.7638 39.7632 89.2348ZM55.4249 265.703C58.7807 261.699 46.5393 278.894 44.1949 282.477C43.6448 282.628 54.8217 266.226 55.4249 265.703ZM165.295 1.15261C165.8 0.977066 170.542 -6.04545 169.353 -4.66925C168.669 -3.87877 164.991 1.26174 165.295 1.15261ZM38.3339 292.023C37.4586 293.636 34.9198 299.055 35.5986 297.087C36.5868 294.189 38.5268 291.631 38.3339 292.023ZM180.528 231.274C179.852 231.748 171.041 238.696 174.867 236.069C177.529 234.239 177.739 233.696 178.342 233.237C179.011 232.735 193.555 222.149 180.528 231.274ZM128.503 177.996C125.799 181.261 122.392 185.021 119.482 188.401C120.558 186.914 127.162 179.221 128.503 177.996ZM145.691 27.2367C146.471 26.4454 163.352 4.27448 153.455 16.7414C152.927 17.4167 143.497 29.5278 145.691 27.2367ZM262.824 181.599C263.396 181.006 264.057 180.329 264.823 179.553C264.069 180.33 263.404 181.007 262.824 181.599ZM311.018 126.461C310.955 126.623 310.977 126.625 311.06 126.508C311.102 126.45 311.157 126.364 311.218 126.263C311.266 126.185 311.392 125.956 311.471 125.801C311.645 125.47 311.758 125.159 311.734 125.221C311.728 125.24 311.719 125.269 311.699 125.363C311.672 125.501 311.629 125.746 311.628 126.145C311.608 126.89 311.881 128.562 313.089 129.952C314.217 131.29 315.718 131.859 316.521 132.008C317.354 132.17 317.756 132.097 317.826 132.101C318.001 132.088 317.906 132.108 317.803 132.152C317.747 132.205 317.929 132.18 317.94 132.193C317.94 132.197 317.923 132.203 317.873 132.212C317.843 132.216 317.835 132.219 317.755 132.227C317.671 132.234 317.551 132.242 317.384 132.239C316.839 132.225 314.801 132.115 312.976 130.046C311.999 128.93 311.577 127.529 311.506 126.689C311.422 125.828 311.548 125.369 311.568 125.272C311.622 125.069 311.606 125.194 311.518 125.407C311.434 125.619 311.282 125.937 311.166 126.163C311.085 126.327 311.024 126.444 311.018 126.461ZM119.455 188.824C117.861 190.828 114.753 194.26 112.716 196.648C112.928 196.138 118.595 189.551 119.455 188.824ZM237.419 69.4219C237.367 69.4216 233.518 70.0522 230.07 66.5247C226.98 63.1576 227.419 59.799 227.501 59.1263C227.584 58.5711 227.654 58.4428 227.632 58.5021C227.622 58.5332 227.593 58.6148 227.546 58.7304C227.522 58.7883 227.494 58.8548 227.462 58.9284C227.437 58.9877 227.417 59.0337 227.392 59.0904C227.294 59.3111 227.173 59.571 227.041 59.8417C226.505 60.9438 225.848 62.1219 225.975 62.1061C225.904 62.1563 225.777 62.2951 225.574 62.5513C225.496 62.6754 222.715 67.0621 221.414 68.6953C219.183 71.5651 220.421 69.7927 222.544 66.7007C223.617 65.1289 225.076 62.9465 226.171 61.0602C226.807 59.9644 227.193 59.207 227.438 58.6295C227.554 58.3639 227.515 58.3445 227.415 58.853C227.4 58.9853 227.205 59.7582 227.367 61.1684C227.51 62.5359 228.24 64.8243 229.971 66.615C232.985 69.7558 236.549 69.6485 237.135 69.596C237.87 69.5431 238.105 69.4469 238.139 69.4377C238.092 69.4403 237.702 69.5732 237.27 69.7608C236.289 70.1892 235.57 70.5609 235.323 70.6466C235.061 70.7469 235.348 70.517 236.136 70.0368C236.623 69.7485 237.295 69.3889 237.727 69.1825C237.895 69.0885 238.228 68.9883 237.851 69.0587C237.758 69.0727 237.621 69.0927 237.42 69.1101C237.32 69.1187 237.204 69.1265 237.069 69.1312C236.997 69.1336 236.943 69.1349 236.839 69.1358C236.712 69.137 236.573 69.135 236.419 69.1279C235.3 69.0931 232.581 68.6352 230.345 66.2642C227.418 63.1126 227.821 59.6675 227.932 59.1385C228.031 58.6054 228.11 58.5311 228.043 58.7319C228.071 58.5384 227.976 58.5574 227.841 59.0433C227.785 59.3192 226.934 62.7214 230.19 66.4074C233.474 69.8768 237.334 69.3821 237.419 69.4219ZM54.149 209.628C53.7425 209.776 53.2546 209.968 52.7157 210.178C52.07 210.434 51.2792 210.742 50.4894 211.021C49.6919 211.304 48.8553 211.576 47.9953 211.812C47.2369 212.029 45.7003 212.374 44.467 212.497C43.0954 212.628 42.047 212.684 40.2604 212.447C38.3896 212.189 36.5545 211.502 35.2843 210.786C34.0034 210.073 33.2772 209.436 33.1452 209.359C33.0182 209.257 33.4516 209.752 34.7487 210.601C40.3742 214.462 48.3701 212.292 50.7373 211.293C51.5633 210.99 52.4472 210.619 52.9834 210.375C53.5087 210.137 53.9492 209.92 54.2583 209.757C54.8772 209.426 54.9642 209.328 54.149 209.628ZM144.738 141.707C144.041 142.22 138.118 147.359 138.043 147.611C141.634 144.859 147.903 139.394 144.738 141.707ZM33.5526 183.475C33.8036 183.006 34.0609 182.465 34.2849 181.961C34.4715 181.527 34.642 181.094 34.784 180.713C35.0681 179.952 35.2363 179.402 35.1719 179.497C34.1591 180.88 31.7014 186.583 33.5526 183.475ZM272.789 172.217C274.571 170.462 280.47 163.898 281.47 162.539C281.728 162.312 282.342 161.719 283.598 160.443C283.594 160.447 283.59 160.45 283.587 160.454C286.487 159.084 327.621 107.345 299.949 141.799C299.004 142.884 300.519 141.411 296.536 145.964C296.256 146.283 296.049 146.313 295.295 147.164C293.623 149.119 283.672 159.955 281.654 162.237C281.62 162.238 281.477 162.357 281.194 162.631C278.716 165.042 271.275 173.736 272.789 172.217ZM156.71 131.752C155.44 132.698 151.645 135.939 151.366 136.421C153.337 134.914 159.658 129.557 156.71 131.752ZM146.87 27.0661C149.022 24.5234 153.63 17.9421 152.028 19.7764C151.087 20.8528 144.455 29.9169 146.87 27.0661ZM117.976 163.702C132.525 152.188 121.409 160.895 123.436 158.881C121.652 160.464 119.797 162.1 117.976 163.702ZM212.851 232.821C214.948 230.768 212.725 233.423 210.324 235.598C209.57 236.28 211.679 233.97 212.851 232.821ZM119.158 327.089C121.118 325.359 112.329 334.312 115.603 330.697C115.734 330.549 119.105 327.131 119.158 327.089ZM184.699 261.237C185.987 259.71 186.884 258.786 190.902 254.835C185.039 260.755 190.605 255.415 184.699 261.237ZM226.026 62.0891C226.002 62.1032 225.983 62.1159 225.975 62.1061C225.999 62.0889 226.015 62.0847 226.026 62.0891ZM42.8069 167.505C44.2625 165.745 48.0384 160.003 46.6697 161.534C46.5469 161.653 43.0882 166.636 42.8069 167.505ZM281.47 162.539C281.245 162.734 281.334 162.609 281.654 162.237C281.687 162.236 281.617 162.344 281.47 162.539ZM47.8219 211.455C47.7482 211.528 48.6206 211.369 49.9031 210.974C51.1891 210.585 52.9368 209.892 54.1732 209.336C55.509 208.743 57.0091 207.983 57.9798 207.465C58.8927 206.98 59.5532 206.604 59.6439 206.545C64.6278 203.063 54.8082 209.694 47.8219 211.455ZM185.094 -24.6125C185.215 -24.8247 184.739 -24.3528 184.067 -23.5425C183.501 -22.8943 182.765 -21.9455 182.317 -21.0785C181.966 -20.4025 182.467 -20.9305 183.13 -21.7737C183.788 -22.6075 184.595 -23.7466 185.094 -24.6125ZM171.217 274.781C168.984 277.008 165.884 280.102 165.229 280.578C166.703 279.133 171.192 274.672 171.217 274.781ZM122.57 323.793C125.192 320.905 130.884 315.089 134.821 311.139C134.955 311.253 125.11 321.107 122.57 323.793ZM266.896 178.267C267.111 178.063 272.549 172.465 271.686 173.132C270.488 174.056 265.29 179.821 266.896 178.267ZM176.521 -12.6402C174.689 -9.74364 179.911 -15.9839 181.435 -19.0652C182.225 -20.6091 176.994 -13.32 176.521 -12.6402ZM54.6082 150.591C57.1194 146.686 50.3581 155.926 49.6323 157.566C50.895 155.733 53.7235 151.959 54.6082 150.591ZM134.232 149.405C122.441 158.006 129.536 154.131 131.449 152.395C131.717 152.152 134.519 149.195 134.232 149.405ZM85.541 32.4912C86.8102 30.8441 81.6721 36.6621 81.1821 37.5383C80.868 38.0893 84.7372 33.5285 85.541 32.4912ZM183.255 116.192C183.651 115.727 184.041 115.267 184.426 114.813C184.146 115.16 183.766 115.61 183.255 116.192ZM80.2884 116.986C73.1681 124.576 74.5833 124.247 74.0463 124.962C72.9221 126.468 69.9619 129.96 67.8645 132.945C70.2178 129.471 72.5904 126.001 74.9377 122.587C72.9243 125.054 55.7817 148.119 55.5917 148.891C55.3227 149.742 60.4872 142.256 60.6465 142.091C60.8929 141.804 62.3372 141.101 62.8536 140.43C63.7463 139.176 77.764 119.994 80.2884 116.986ZM110.592 168.772C112.505 167.355 113.222 167.159 114.014 166.432C114.286 166.181 114.154 165.924 115.091 165.076C113.611 166.296 112.117 167.524 110.592 168.772ZM90.4388 101.612C92.4565 99.5194 84.5667 109.794 84.2534 110.159C82.7275 111.793 88.7717 103.333 90.4388 101.612ZM31.9479 206.847C31.7206 206.547 30.8358 205.409 30.175 203.71C29.4942 202.118 29.18 199.591 29.2398 198.364C29.2568 197.127 29.4175 195.895 29.6704 194.702C29.7969 194.105 29.9465 193.514 30.1144 192.928C30.2364 192.503 30.36 192.107 30.4941 191.7C31.0112 190.12 31.7243 188.408 32.1597 187.393C32.5564 186.46 32.8307 185.824 32.7757 185.824C32.5389 186.268 32.2144 186.906 31.7774 187.869C31.2762 188.982 30.7464 190.266 30.2948 191.607C29.9297 192.66 29.2217 195.07 29.078 197.237C28.7715 198.496 29.2994 204.973 32.7558 208.026C35.6199 210.817 37.9198 211.173 38.0823 211.273C38.3779 211.176 36.5281 211.356 32.869 207.917C32.5534 207.59 32.2435 207.233 31.9479 206.847ZM116.296 164.079C119.067 161.89 124.421 157.901 123.553 158.058C123.549 158.061 123.545 158.064 123.541 158.068C121.17 160.044 118.703 162.091 116.296 164.079ZM170.398 -2.61606C174.652 -7.22147 172.269 -5.4639 168.689 -0.998997C167.9 0.600872 169.694 -1.85258 170.398 -2.61606ZM182.702 -18.9138C183.232 -19.6021 185.219 -22.4671 187.139 -25.655C187.356 -26.0167 187.558 -26.363 187.745 -26.6889C187.975 -27.0879 188.212 -27.5116 188.401 -27.8638C188.794 -28.5948 189.023 -29.0776 189.212 -29.5246C189.438 -30.0453 189.394 -30.134 189.252 -29.6999C189.213 -29.5658 188.878 -28.511 189.076 -26.7981C189.211 -25.0922 190.362 -22.5244 191.932 -21.0975C194.239 -18.9862 195.8 -18.851 195.843 -18.744C195.976 -18.7751 194.679 -18.6476 192.056 -20.7785C191.985 -20.8417 191.911 -20.9088 191.833 -20.9817C190.06 -22.273 188.415 -26.7095 188.793 -28.4519C188.822 -28.9186 188.881 -29.2723 188.934 -29.5273C188.967 -29.6808 188.971 -29.6907 188.985 -29.7471C188.997 -29.7947 189.008 -29.8373 189.019 -29.8748C189.062 -30.025 189.091 -30.0923 189.089 -30.0787C189.088 -30.0654 189.056 -29.9719 188.986 -29.8071C188.953 -29.7275 188.903 -29.6153 188.858 -29.5162C188.824 -29.4406 188.787 -29.3576 188.745 -29.2674C188.577 -28.9073 188.34 -28.4314 188.045 -27.8799C186.872 -25.6922 185.545 -23.5418 185.353 -23.2627C185.126 -22.9484 185.407 -23.5891 185.348 -23.6798C185.319 -23.7254 185.212 -23.642 184.908 -23.2254C184.616 -22.8283 184.237 -22.266 183.502 -21.1312C183.817 -21.3417 182.331 -18.4398 182.702 -18.9138ZM173.892 -6.62057C178.134 -11.5502 178.004 -13.1022 175.312 -9.35734C174.229 -7.85942 173.272 -5.90236 173.892 -6.62057ZM158.192 14.3292C159.628 12.5872 163.51 7.66262 165.741 4.11687C162.331 8.63945 158.921 13.1164 155.404 17.7104C155.148 18.3574 156.912 15.8876 158.202 14.3168C158.199 14.321 158.195 14.3251 158.192 14.3292ZM96.706 353.157C98.5708 350.999 97.3712 352.447 95.7813 354.49C95.4055 354.978 95.0335 355.475 94.7025 355.935C94.2936 356.497 93.773 357.258 93.459 357.783C93.2918 358.059 93.1491 358.312 93.0279 358.544C92.8991 358.801 92.8422 358.881 92.6136 359.447C92.2447 360.307 92.2255 361.397 92.2998 361.732C92.4481 362.696 92.808 363.123 92.6486 362.903C92.5195 362.719 92.1371 361.813 92.2037 360.946C92.223 360.515 92.3076 360.107 92.429 359.721C92.5346 359.363 92.7728 358.844 92.8057 358.771C92.9659 358.422 93.173 358.032 93.4348 357.598C93.6962 357.163 94.0133 356.682 94.3823 356.16C94.7069 355.701 94.901 355.436 95.1807 355.065C95.7098 354.364 96.2805 353.659 96.706 353.157ZM115.122 4.79985C116.087 3.74715 116.826 3.15375 118.796 0.687859C116.636 3.0196 114.491 5.34331 112.36 7.65758C111.037 9.73161 114.065 5.95129 115.122 4.79985ZM123.775 -3.66966C123.494 -3.32637 125.41 -4.87864 121.467 -0.698181C118.765 2.11917 132.352 -14.0855 135.055 -16.8166C132.326 -13.5722 126.221 -6.64425 123.775 -3.66966ZM149.394 -30.4593C149.572 -30.6241 144.322 -24.5727 143.692 -23.8733C140.392 -20.2716 148.397 -29.5968 149.394 -30.4593ZM132.571 -11.1544C135.063 -13.958 129.736 -7.60218 128.086 -5.70597C127.871 -5.5862 132.182 -10.7231 132.571 -11.1544ZM136.721 319.277C139.91 316.511 142.041 313.568 137.632 318.096C137.417 318.316 136.586 319.392 136.721 319.277ZM144.518 -24.2987C141.987 -21.5029 147.43 -27.8434 149.1 -29.6664C149.3 -29.7942 144.906 -24.7355 144.518 -24.2987ZM139.277 317.678C143.229 314.068 141.404 314.92 140.916 315.363C138.923 317.172 132.168 324.233 130.951 325.539C140.867 315.556 137.407 319.398 139.277 317.678ZM156.807 299.915C160.405 296.294 150.976 305.311 149.457 307.074C151.182 305.369 155.769 300.958 156.807 299.915ZM178.84 278.786C180.766 276.951 186.581 271.394 187.479 270.357C185.354 272.45 179.557 277.922 178.84 278.786ZM183.449 274.798C186.594 271.969 186.997 270.928 183.595 274.424C183.463 274.559 183.332 274.899 183.449 274.798ZM200.635 258.359C202.753 256.57 204.692 254.033 201.467 257.15C200.51 258.076 200.41 258.547 200.635 258.359ZM144.567 313.497C147.457 310.77 150.974 306.915 144.824 312.892C146.908 310.786 149.115 308.564 151.131 306.531C143.074 314.177 143.918 313.933 141.676 316.106C138.576 319.117 138.475 318.759 139.085 318.01C136.471 320.866 125.696 331.516 119.316 338.075C125.097 332.299 133.925 323.749 139.689 318.16C141.293 316.605 142.695 315.103 144.059 313.78C146.236 311.67 144.405 313.65 144.556 313.508C144.56 313.505 144.564 313.501 144.567 313.497ZM223.017 236.584C229.024 231.033 224.984 234.295 221.74 237.586C221.603 237.73 222.867 236.722 223.017 236.584ZM152.448 -31.6576C145.251 -23.5456 150.132 -29.7386 135.738 -12.168C141.707 -19.6531 135.938 -12.6914 137.065 -14.1869C137.977 -15.3962 141.636 -19.6005 139.418 -17.2336C142.277 -20.3907 154.412 -34.4585 155.011 -35.0528C155.006 -35.0469 155.001 -35.041 154.995 -35.0352C155.336 -35.4003 154.76 -34.2415 152.448 -31.6576ZM179.685 279.592C182.001 278.108 182.148 276.762 186.311 273.365C190.972 267.935 172.147 287.067 169.509 288.875C190.364 268.731 155.348 301.874 170.47 288.323C158.225 299.797 166.593 292.221 164.805 294.096C162.893 296.098 156.077 302.558 156.525 302.391C156.528 302.387 156.532 302.383 156.536 302.38C160.773 298.242 164.738 294.381 168.988 290.244C164.609 293.899 173.152 285.79 176.292 283.243C177.418 282.032 178.561 280.803 179.685 279.592ZM155.895 302.123C156.371 301.668 165.251 292.954 164.637 293.434C163.405 294.55 150.64 307.075 155.895 302.123ZM116.736 341.031C119.695 337.995 124.939 332.827 126.419 331.15C123.428 334.129 118.198 339.325 116.736 341.031ZM282.444 177.993C286.354 173.739 274.007 186.345 277.711 182.821C277.913 182.631 282.275 178.182 282.444 177.993ZM189.023 270.439C193.341 266.495 191.004 268.005 187.96 271.15C187.784 271.332 188.822 270.623 189.023 270.439ZM146.742 -24.9729C146.544 -24.6014 136.314 -12.6571 134.537 -10.4894C135.445 -11.8105 146.908 -25.4019 146.742 -24.9729ZM111.555 346.977C117.868 340.925 126.327 331.851 127.156 331.035C128.094 330.115 126.762 331.695 126.978 331.486C127.451 331.01 137.487 321.061 137.997 320.555C138.344 320.199 136.311 321.84 138.367 319.701C134.401 323.742 116.085 341.952 115.18 343.03C114.524 343.746 119.991 338.445 111.565 346.967C111.562 346.97 111.558 346.974 111.555 346.977ZM129.566 328.713C126.953 331.16 134.064 324.076 135.734 322.495C139.545 318.86 130.008 328.276 129.566 328.713ZM146.624 312.066C147.519 311.221 154.754 304.208 155.319 303.486C151.757 306.72 144.743 313.823 146.624 312.066ZM228.304 232.825C230.195 230.956 235.479 225.95 235.702 225.547C233.778 227.459 228.525 232.431 228.304 232.825ZM113.428 17.1965C116.225 13.8168 109.986 21.8241 108.122 24.1497C107.966 24.1942 113.175 17.4915 113.428 17.1965ZM190.537 270.555C191.661 269.529 214.707 247.146 217.886 243.964C214.668 246.965 191.766 269.09 190.795 270.08C190.503 270.381 190.387 270.692 190.537 270.555ZM140.79 318.797C138.731 321.031 137.238 322.237 136.97 322.497C134.403 324.98 129.044 330.334 130.115 329.069C134.715 324.579 144.749 314.489 140.79 318.797ZM230.54 231.845C238.276 224.208 223.169 238.647 225.261 236.881C225.399 236.764 229.742 232.633 230.54 231.845ZM187.977 273.096C186.366 274.841 163.099 297.116 159.516 300.601C162.609 297.267 165.388 294.836 169.901 290.459C171.083 289.312 170.695 289.543 170.822 289.42C172.879 287.426 171.42 289.003 172.695 287.774C173.491 287.006 190.268 270.611 187.977 273.096ZM139.634 320.08C138.307 321.478 124.258 335.411 123.645 336.035C119.331 340.071 138.372 321.215 139.634 320.08ZM190.271 271.205C187.949 273.862 176.415 284.693 184.115 277.068C184.851 276.339 188.118 273.372 190.271 271.205ZM229.927 232.878C230.313 232.519 238.503 224.63 238.579 224.403C237.353 225.551 225.486 237.052 229.927 232.878ZM225.944 237.238C226.139 237.045 224.084 238.762 227.932 235.061C228.249 234.755 229.016 234.329 233.737 229.62C234.685 228.674 236.109 227.074 235.99 227.177C230.769 231.784 216.133 246.912 225.944 237.238ZM139.472 320.449C140.317 319.732 138.569 321.766 136.821 323.317C136.074 323.979 137.289 322.592 139.472 320.449ZM255.723 207.74C251.135 212.534 265.967 197.902 266.649 197.129C266.066 197.561 256.251 207.202 255.723 207.74ZM108.191 26.1872C108.194 26.1831 108.197 26.179 108.2 26.1748C104.802 30.5405 106.768 27.723 106.606 27.9265C99.3198 37.087 101.459 34.8961 100.388 36.3753C98.0774 39.5972 98.144 38.7578 94.2783 44.2361C100.661 35.2555 94.7609 43.3203 94.4316 43.4925C93.1855 44.0467 103.492 31.9541 106.717 27.5565C107.165 26.9413 103.588 31.2869 104.731 29.701C108.48 24.5139 121.267 9.52674 108.191 26.1872ZM135.555 324.588C133.923 326.339 119.875 340.145 123.493 336.392C124.115 335.702 138.097 321.792 135.555 324.588ZM244.068 75.3618C241.437 79.6657 248.244 70.8062 249.567 65.438C249.701 64.9071 249.51 65.4696 249.071 66.5177C248.85 67.0407 248.564 67.6772 248.216 68.3773C247.974 68.8457 247.699 69.357 247.396 69.8956C246.793 70.971 246.077 72.1517 245.387 73.2491C244.813 74.1554 244.36 74.8582 244.068 75.3618ZM176.517 84.4783C172.124 88.0649 168.304 92.568 173.581 88.0938C174.111 87.6409 177.12 84.189 176.517 84.4783ZM58.5594 298.036C61.6497 293.767 61.0436 293.602 58.879 296.991C58.169 298.133 58.4716 298.161 58.5594 298.036ZM200.791 129.591C201.185 129.179 205.56 124.069 205.303 124.117C203.488 126.076 198.225 132.285 200.791 129.591ZM57.8085 299.452C59.3687 296.671 55.8612 301.412 55.036 304.374C55.4353 303.458 55.9127 302.6 56.5277 301.552C57.1176 300.551 57.7258 299.603 57.8085 299.452ZM199.514 263.456C201.509 261.322 207.416 255.698 210.789 252.407C211.291 252.212 201.936 261.076 199.514 263.456ZM195.609 70.0162C191.563 73.4661 200.748 66.6988 199.754 67.0244C199.613 67.101 195.724 69.9086 195.609 70.0162ZM179.591 209.267C176.609 211.69 186.552 204.633 183.67 206.381C183.53 206.469 179.755 209.135 179.591 209.267ZM222.497 177.706C220.142 179.364 210.079 186.807 214.079 184.063C214.717 183.623 222.43 177.944 222.497 177.706ZM100.325 36.7432C101.438 35.6645 96.0098 42.8075 95.1724 43.8668C94.8618 44.2441 98.8385 38.1727 100.325 36.7432ZM80.1519 268.647C81.9094 266.364 86.979 260.278 87.6396 259.197C85.4653 261.872 79.184 269.257 80.1519 268.647ZM215.67 55.3911C211.506 57.6273 204.859 62.5541 206.843 61.7993C213.973 56.6552 205.575 61.9512 215.67 55.3911ZM46.3112 298.526C46.4991 298.525 46.7939 298.41 48.2943 298.822C49.6703 299.2 51.4315 300.4 52.3031 301.529C53.2398 302.739 53.3611 303.395 53.2289 303.12C52.9423 302.642 52.5744 302.138 52.1405 301.673C50.3789 299.733 48.0977 299.126 47.2483 299.025C47.1308 299.008 47.027 298.995 46.9357 298.985C46.8676 298.977 46.8208 298.971 46.7711 298.965C46.6746 298.953 46.5982 298.943 46.5376 298.934C46.4163 298.915 46.3576 298.896 46.3276 298.872C46.2711 298.823 46.3121 298.754 46.3 298.693C46.3025 298.631 46.2122 298.582 46.3112 298.526ZM159.684 176.484C159.942 176.518 165.013 170.657 164.22 171.34C163.963 171.559 159.48 176.45 159.684 176.484ZM272.33 192.5C274.947 190.058 267.302 197.891 264.921 200.04C263.618 201.048 272.044 192.776 272.33 192.5ZM98.9158 267.286C99.1107 266.826 89.2069 273.786 93.2858 271.284C94.3737 270.617 98.8641 267.439 98.9158 267.286ZM192.369 199.168C186.016 204.245 213.602 184.129 206.16 189.158C205.602 189.536 192.935 198.717 192.369 199.168ZM237.377 166.289C236.217 167.095 236.3 166.006 241.245 162.807C241.892 162.387 239.108 164.68 239.646 164.351C240.026 164.102 250.167 156.901 250.745 156.468C251.248 156.079 250.486 156.306 250.992 155.906C251.643 155.394 257.838 151.232 261.367 148.731C267.722 144.232 268.093 143.736 268.687 143.314C270.259 142.212 272.961 140.508 275.957 138.449C281.174 134.864 287.453 130.588 293.814 126.575C297.384 124.33 300.512 122.428 304.249 120.408C305.742 119.605 308.212 118.35 310.106 117.59C310.84 117.287 312.702 116.572 314.218 116.248C314.624 116.157 315.045 116.077 315.494 116.013C315.718 115.981 315.949 115.953 316.189 115.931C316.477 115.902 317.047 115.865 317.533 115.871C319.432 115.871 322.831 116.428 325.388 119.401C327.692 122.101 327.94 125.238 327.764 127.096C327.722 127.587 327.653 128.037 327.57 128.456C327.519 128.712 327.508 128.749 327.479 128.878C327.453 128.989 327.425 129.099 327.397 129.207C327.285 129.638 327.16 130.038 327.027 130.42C326.76 131.182 326.461 131.871 326.14 132.538C325.827 133.189 325.432 133.911 325.235 134.249C324.311 135.868 322.972 137.821 322.025 139.096C320.142 141.648 317.942 144.297 316.395 146.055C318.31 143.812 320.731 140.778 322.475 138.294C323.646 136.614 324.569 135.192 325.483 133.484C326.096 132.316 326.634 131.154 327.059 129.751C327.112 129.295 329.142 124.316 325.234 119.53C322.885 116.791 319.728 116.142 317.894 116.093C317.406 116.075 316.958 116.088 316.538 116.119C316.296 116.137 316.204 116.148 316.094 116.159C315.985 116.171 315.878 116.183 315.773 116.197C315.352 116.252 314.957 116.321 314.578 116.401C313.14 116.695 311.535 117.281 310.625 117.652C308.935 118.323 306.735 119.417 305.251 120.213C303.743 121.017 302.137 121.928 300.417 122.947C298.964 123.807 297.528 124.683 295.964 125.658C298.926 123.181 279.408 136.719 290.856 128.689C285.167 131.962 241.084 163.541 237.39 166.279C237.385 166.282 237.381 166.285 237.377 166.289ZM159.093 98.1403C161.492 95.6711 147.882 106.877 147.042 108.167C148.861 106.76 158.773 98.4545 159.093 98.1403ZM226.487 47.0716C227.292 46.6752 228.031 46.2156 229.341 45.6129C230.153 45.2635 231.436 44.745 233.321 44.3504C233.803 44.2518 234.339 44.1607 234.953 44.0914C235.627 44.0297 236.023 43.9523 237.576 43.9996C240.136 44.1045 244.716 44.9032 248.6 48.942C251.702 52.1257 252.927 56.5151 252.984 59.459C253.014 60.2183 252.992 60.9227 252.939 61.5791C252.912 61.9074 252.878 62.2238 252.837 62.5297C252.799 62.8123 252.783 62.9087 252.753 63.0941C252.642 63.7673 252.502 64.3988 252.341 65.0016C251.741 67.3177 250.578 69.7365 249.916 70.9019C249.911 70.9114 249.906 70.9209 249.901 70.9304C248.204 73.9037 249.868 70.3757 249.511 70.8995C249.464 70.9927 248.075 73.3558 247.14 74.6476C246.769 75.1528 246.503 75.471 246.569 75.2837C246.601 75.1903 246.716 74.9708 246.931 74.5905C247.159 74.1867 247.617 73.4096 248.144 72.46C248.969 70.9672 249.474 69.9472 249.948 68.9236C250.549 67.6078 250.915 66.6171 251.161 65.9274C251.64 64.5205 251.674 64.536 251.643 64.9885C251.608 65.4275 251.46 66.1587 251.558 66.0507C251.606 65.9943 251.721 65.7436 251.923 65.0735C252.023 64.7356 252.145 64.2913 252.274 63.667C252.339 63.3474 252.4 63.018 252.466 62.5523C252.567 61.8086 252.651 60.9229 252.631 59.79C252.372 59.1253 253.464 55.2382 248.323 49.2102C245.538 46.1547 241.018 44.5166 237.921 44.4081C236.111 44.3144 235.526 44.4189 234.675 44.5058C233.876 44.6045 233.143 44.7463 232.459 44.9109C229.484 45.6777 228.322 46.3261 226.945 46.9669C224.083 48.3976 223.037 49.1748 223.194 49.1099C223.231 49.0958 224.014 48.6389 224.874 48.1806C225.986 47.5865 227.191 47.0281 227.551 46.8953C230.287 45.9182 229.077 46.6914 229.459 46.5456C229.559 46.5242 230.518 46.109 232.33 45.6523C233.252 45.4318 234.406 45.1825 236.074 45.1071C238.213 45.0217 243.41 45.2087 247.775 49.7248C252.927 55.1085 251.855 62.0831 251.552 63.4591C251.188 65.3697 250.649 66.8765 250.052 68.3102C249.013 70.7317 248.202 72.1562 247.127 73.982C245.439 76.7991 243.804 79.0714 243.122 79.8436C242.936 80.0433 244.306 78.0617 245.948 75.3906C246.622 74.2925 248.026 71.9417 248.991 69.9189C249.379 69.1164 250.306 67.1201 250.85 65.1464C250.995 64.6285 251.131 64.0774 251.247 63.4756C251.305 63.1747 251.358 62.861 251.404 62.5318C251.469 62.0778 251.543 61.3746 251.563 60.7092C251.677 58.1285 251.079 53.615 247.571 49.9238C241.756 44.0674 235.156 45.4981 234.201 45.5573C232.217 45.8441 230.447 46.4553 229.488 46.8181C227.662 47.507 225.939 48.3728 224.787 48.9828C222.683 50.1022 221.17 51.0383 220.925 51.1654C220.216 51.5495 220.148 50.8201 219.514 51.1322C219.143 51.2045 209.897 57.7144 208.747 58.5462C208.418 58.759 208.162 58.9195 207.972 59.0362C209.468 58.1869 201.394 64.0669 201.629 63.6331C201.595 63.5305 207.223 59.4585 207.376 59.3866C207.464 59.3313 207.543 59.2863 207.615 59.2425C206.92 59.5952 211.351 56.288 215.485 53.4739C219.695 50.5488 224.459 47.8614 221.801 49.1364C228.607 45.243 220.643 50.2455 226.487 47.0716ZM237.856 88.7458C238.209 88.1736 238.555 87.6082 238.893 87.0495C231.967 96.4463 223.293 106.308 214.936 116.108C212.758 118.656 215.538 116.045 212.657 119.232C210.397 121.725 207.581 124.396 208.75 122.913C209.063 122.52 213.712 117.507 216.076 114.684C222.696 106.769 220.739 108.496 221.126 108.032C221.616 107.437 225.967 102.622 228.247 99.8045C234.047 92.541 236.327 89.7153 244.309 78.9004C240.147 85.2291 242.893 82.3207 237.856 88.7458ZM139.941 237.073C140.168 236.684 146.118 232.558 148.257 230.961C148.022 231.36 142.038 235.52 139.941 237.073ZM101.438 46.027C100.192 47.9445 111.756 35.6932 108.485 38.7107C107.745 39.3933 102.881 44.4784 101.438 46.027ZM153.893 -8.8024C155.392 -10.4911 148.836 -4.23045 149.032 -3.9698C149.134 -3.93546 153.727 -8.61818 153.893 -8.8024ZM142.475 198.354C142.202 198.677 138.057 203.249 137.911 203.388C134.924 206.203 148.546 191.127 142.475 198.354ZM186.983 18.6797C191.472 12.2449 177.136 31.1615 181.75 25.5819C182.023 25.254 186.808 18.9438 186.983 18.6797ZM167.115 45.0118C168.201 43.5738 173.488 36.8682 173.417 36.7531C173.403 36.4464 167.36 44.1325 167.115 45.0118ZM46.2198 297.304C46.1049 297.114 46.5035 297.16 49.1409 296.112C51.0518 295.378 54.5498 293.679 55.8427 292.959C57.0261 292.84 47.0469 297.474 46.2198 297.304ZM87.171 263.146C59.1772 299.094 64.5136 290.574 88.7207 260.968C88.9474 261.077 88.9406 260.959 87.171 263.146ZM56.0621 307.151C55.7486 307.052 57.318 303.523 59.0641 300.706C58.9842 301.003 58.0605 302.637 57.3745 304.025C57.2839 304.207 57.2163 304.343 57.1124 304.56C57.01 304.773 56.9146 304.977 56.827 305.169C56.6518 305.553 56.509 305.889 56.3996 306.163C56.1776 306.722 56.1031 306.975 56.0621 307.151ZM87.3553 60.3105C89.0719 57.9173 98.1556 48.7721 96.7066 50.5576C96.3713 50.9614 86.7721 61.229 87.3553 60.3105ZM140.163 201.476C141.163 200.92 131.831 211.254 131.088 211.977C128.001 214.966 139.457 202.392 140.163 201.476ZM98.3723 265.737C100.181 264.172 106.091 260.23 109.648 257.728C108.168 259.05 101.466 263.618 98.3723 265.737ZM71.6375 283.229C71.8393 283.103 77.1783 279.721 77.3169 279.637C81.6976 277.154 66.9923 286.447 71.6375 283.229ZM114.253 21.2617C114.125 21.4354 111.287 25.1461 111.169 25.291C108.476 28.5218 117.075 17.3077 114.253 21.2617Z" fill="#FDE3DE"/>
<circle cx="233" cy="155" r="72" fill="#F5826B"/>
<circle cx="390.5" cy="-75.5" r="116.5" fill="#F5826B"/>
</g>
<defs>
<clipPath id="clip0_8220_9721">
<rect width="480" height="120" fill="white"/>
</clipPath>
</defs>
</svg>
