<svg xmlns="http://www.w3.org/2000/svg" xmlns:xlink="http://www.w3.org/1999/xlink" width="96" height="96" viewBox="0 0 96 96">
  <defs>
    <rect id="icon-doc-b" width="48" height="48" x="0" y="0" rx="12"/>
    <filter id="icon-doc-a" width="279.2%" height="279.2%" x="-89.6%" y="-60.4%" filterUnits="objectBoundingBox">
      <feMorphology in="SourceAlpha" radius="2" result="shadowSpreadOuter1"/>
      <feOffset dy="8" in="shadowSpreadOuter1" result="shadowOffsetOuter1"/>
      <feGaussianBlur in="shadowOffsetOuter1" result="shadowBlurOuter1" stdDeviation="8"/>
      <feColorMatrix in="shadowBlurOuter1" result="shadowMatrixOuter1" values="0 0 0 0 0   0 0 0 0 0   0 0 0 0 0  0 0 0 0.133095562 0"/>
      <feMorphology in="SourceAlpha" radius="2" result="shadowSpreadOuter2"/>
      <feOffset dy="14" in="shadowSpreadOuter2" result="shadowOffsetOuter2"/>
      <feGaussianBlur in="shadowOffsetOuter2" result="shadowBlurOuter2" stdDeviation="14"/>
      <feColorMatrix in="shadowBlurOuter2" result="shadowMatrixOuter2" values="0 0 0 0 0   0 0 0 0 0   0 0 0 0 0  0 0 0 0.116762908 0"/>
      <feMerge>
        <feMergeNode in="shadowMatrixOuter1"/>
        <feMergeNode in="shadowMatrixOuter2"/>
      </feMerge>
    </filter>
  </defs>
  <g fill="none" fill-rule="evenodd" transform="translate(24 10)">
    <use fill="#000" filter="url(#icon-doc-a)" xlink:href="#icon-doc-b"/>
    <use fill="#F5826B" xlink:href="#icon-doc-b"/>
    <path fill="#FFF" d="M11,2 L16,7 L16,16 C16,17.1 15.1,18 14,18 L14,18 L5.99,18 C4.89,18 4,17.1 4,16 L4,16 L4.01,4 C4.01,2.9 4.9,2 6,2 L6,2 L11,2 Z M12,14 L6,14 L6,16 L12,16 L12,14 Z M14,10 L6,10 L6,12 L14,12 L14,10 Z M10,3.5 L10,8 L14.5,8 L10,3.5 Z" transform="translate(14 14)"/>
  </g>
</svg>
