<svg width="24" height="24" viewBox="0 0 24 24" fill="none" xmlns="http://www.w3.org/2000/svg">
<path d="M11 16.9528V10.4528H11.5L15.5 16.4528H16V9.95284M4.5 4.95284L7 7.45284M7 7.45284L20 6.45284M7 7.45284V19.9528M19.077 19.5238L7.547 20.4108C7.37939 20.4236 7.21125 20.394 7.05814 20.3246C6.90503 20.2552 6.77188 20.1483 6.671 20.0138L4.2 16.7198C4.07018 16.5467 4 16.3362 4 16.1198V5.37884C4.00001 5.12696 4.09507 4.88436 4.26618 4.69952C4.4373 4.51469 4.67187 4.40123 4.923 4.38184L16.312 3.50584C16.7577 3.47171 17.202 3.58789 17.574 3.83584L19.109 4.85884C19.383 5.04142 19.6077 5.28884 19.7631 5.57912C19.9186 5.8694 19.9999 6.19356 20 6.52284V18.5268C20 18.7787 19.9049 19.0213 19.7338 19.2062C19.5627 19.391 19.3281 19.5044 19.077 19.5238Z" stroke="var(--icon-stroke)" stroke-width="var(--icon-stroke-width)" stroke-linecap="round" stroke-linejoin="round"/>
</svg>
