<svg width="24" height="24" viewBox="0 0 24 24" fill="none" xmlns="http://www.w3.org/2000/svg">
<path d="M13.5221 2.84943L15.3625 1M13.5191 18.4369C13.1288 18.2058 12.684 18.0839 12.231 18.0839C11.778 18.0839 11.3332 18.2058 10.9429 18.4369C9.18608 19.5153 7.35764 18.9169 6.3367 17.7199C4.70529 15.8105 2.48877 9.81068 5.46502 6.78529C6.81434 5.41434 8.54576 5.51034 9.94134 5.95132C10.2747 6.05732 10.5876 6.19731 10.8802 6.37131C11.2932 6.60248 11.7582 6.72382 12.231 6.72382C12.7038 6.72382 13.1687 6.60248 13.5818 6.37131C13.8763 6.19731 14.1898 6.05732 14.5221 5.95132C15.9177 5.51034 17.6491 5.41434 19 6.78529C19.4403 7.23527 19.7672 7.74826 20 8.30474C19.8551 8.29112 19.7097 8.28462 19.5642 8.28524C17.6865 8.28524 16.6312 9.3322 16.6312 11.1921C16.6312 13.0521 17.6865 14.0975 19.5642 14.0975C19.6955 14.0975 19.8229 14.0925 19.9463 14.0825C19.4746 15.6335 18.7567 16.9819 18.1253 17.7199C17.1058 18.9154 15.2774 19.5153 13.5191 18.4369Z" stroke="var(--icon-stroke)" stroke-width="var(--icon-stroke-width)" stroke-linecap="round" stroke-linejoin="round"/>
</svg>
