<svg width="24" height="24" viewBox="0 0 24 24" fill="none" xmlns="http://www.w3.org/2000/svg">
<rect x="2" y="4" width="20" height="16" fill="#EE1111"/>
<path fill-rule="evenodd" clip-rule="evenodd" d="M5.5 9.75L4.03054 10.5225L4.31118 8.88627L3.12236 7.72746L4.76527 7.48873L5.5 6L6.23473 7.48873L7.87764 7.72746L6.68882 8.88627L6.96946 10.5225L5.5 9.75Z" fill="#EEC911"/>
<path fill-rule="evenodd" clip-rule="evenodd" d="M8.11603 5.79904L7.45248 5.77276L7.87695 5.26207L7.69689 4.62288L8.31376 4.86876L8.86603 4.5L8.8228 5.16266L9.34417 5.57394L8.70059 5.7376L8.47055 6.36055L8.11603 5.79904Z" fill="#EEC911"/>
<path fill-rule="evenodd" clip-rule="evenodd" d="M9.97872 7.51L9.49888 7.96907L9.42638 7.30897L8.84151 6.99447L9.4469 6.72154L9.56527 6.06811L10.0119 6.55953L10.6699 6.47018L10.3406 7.04682L10.6289 7.64504L9.97872 7.51Z" fill="#EEC911"/>
<path fill-rule="evenodd" clip-rule="evenodd" d="M9.6596 9.87102L9.03854 10.1061L9.22972 9.47015L8.81423 8.95213L9.47813 8.93744L9.84241 8.3822L10.0615 9.00907L10.7022 9.18394L10.1737 9.58606L10.2053 10.2494L9.6596 9.87102Z" fill="#EEC911"/>
<path fill-rule="evenodd" clip-rule="evenodd" d="M8.33441 11.7715L7.67261 11.8263L8.03168 11.2677L7.77506 10.6552L8.4173 10.8241L8.9205 10.3907L8.95836 11.0537L9.52597 11.3984L8.90713 11.6393L8.75472 12.2856L8.33441 11.7715Z" fill="#EEC911"/>
<rect x="2.5" y="4.5" width="19" height="15" stroke="black" stroke-opacity="0.12"/>
</svg>
