<svg width="24" height="24" viewBox="0 0 24 24" fill="none" xmlns="http://www.w3.org/2000/svg">
<rect x="2" y="4" width="20" height="16" fill="#0A913D"/>
<path d="M20 12.0003L12 18L4 12.0003L12 6L20 12.0003Z" fill="#EED311"/>
<path d="M12 15.5C13.933 15.5 15.5 13.933 15.5 12C15.5 10.067 13.933 8.5 12 8.5C10.067 8.5 8.5 10.067 8.5 12C8.5 13.933 10.067 15.5 12 15.5Z" fill="#082A6E"/>
<path d="M8.91156 10.3541C8.72973 10.6966 8.60662 11.0672 8.54736 11.4505C10.7125 11.2933 13.651 12.4753 14.9122 13.9408C15.1301 13.6134 15.2916 13.2471 15.3907 12.8547C13.8342 11.3328 11.1 10.3454 8.91156 10.3541Z" fill="#BAFACD"/>
<path d="M12 13H13V14H12V13Z" fill="#118EED"/>
<path d="M10 12H11V13H10V12Z" fill="#8AC9F7"/>
<path d="M13 10H14V11H13V10Z" fill="#8AC9F7"/>
<path d="M10 14H11V15H10V14Z" fill="#8AC9F7"/>
<rect x="2.5" y="4.5" width="19" height="15" stroke="black" stroke-opacity="0.12"/>
</svg>
