<svg width="24" height="24" viewBox="0 0 24 24" fill="none" xmlns="http://www.w3.org/2000/svg">
<path d="M22 4H2V20H22V4Z" fill="white"/>
<path d="M12.3338 15.6667C14.1748 15.6667 15.6672 14.1743 15.6672 12.3333C15.6672 10.4924 14.1748 9 12.3338 9C10.4929 9 9.00049 10.4924 9.00049 12.3333C9.00049 14.1743 10.4929 15.6667 12.3338 15.6667Z" fill="#EE1111"/>
<path d="M12.75 12.126C13.1079 11.5894 13.8304 11.4451 14.3672 11.8027C14.9039 12.1606 15.0489 12.8831 14.6914 13.4199C13.822 14.7221 12.0634 15.0745 10.7627 14.2061C10.1805 13.8173 9.78859 13.2509 9.61035 12.627C9.65414 12.6613 9.69806 12.6962 9.74512 12.7275C10.7415 13.3918 12.0857 13.1224 12.75 12.126Z" fill="#0A0A8F" stroke="#0A0A8F"/>
<path d="M16.6289 15.3644L16.1667 15.0556L17.0178 13.78L17.48 14.0889L16.6289 15.3644ZM18.1733 14.5511L17.7111 14.2422L16.86 15.5178L17.3222 15.8267L18.1733 14.5511ZM16.4822 9.2L15.6311 7.92444L15.1689 8.23333L16.02 9.50889L16.4822 9.2ZM6.15556 10.5444L8.00444 7.77111L7.54222 7.46222L5.69333 10.2356L6.15556 10.5444ZM18.1733 10.2356L16.3244 7.46222L15.8622 7.77111L17.7111 10.5444L18.1733 10.2356ZM17.5556 8.80667L18.4067 10.0822L18.8689 9.77333L18.0178 8.49778L17.5556 8.80667ZM17.0178 11.0067L17.48 10.6978L16.6289 9.42222L16.1667 9.73111L17.0178 11.0067ZM17.8689 8.27556L17.0178 7L16.5556 7.30889L17.4067 8.58444L17.8689 8.27556ZM6.15556 14.2422L5.69333 14.5511L6.54444 15.8267L7.00667 15.5178L6.15556 14.2422ZM17.4067 16.2022L16.5556 17.4778L17.0178 17.7867L17.8689 16.5111L17.4067 16.2022ZM16.7133 15.74L15.8622 17.0156L16.3244 17.3244L17.1756 16.0489L16.7133 15.74ZM17.5533 15.98L18.0156 16.2889L18.8667 15.0133L18.4044 14.7044L17.5533 15.98ZM7.31111 7.30889L6.84889 7L5 9.77333L5.46222 10.0822L7.31111 7.30889ZM16.02 15.2778L15.1689 16.5533L15.6311 16.8622L16.4822 15.5867L16.02 15.2778ZM5 15.0133L6.84889 17.7867L7.31111 17.4778L5.46222 14.7044L5 15.0133ZM6.69111 16.0489L7.54222 17.3244L8.00444 17.0156L7.15333 15.74L6.69111 16.0489ZM6.38667 14.0889L8.23556 16.8622L8.69778 16.5533L6.84889 13.78L6.38667 14.0889ZM6.38667 10.6978L6.84889 11.0067L8.69778 8.23333L8.23556 7.92444L6.38667 10.6978Z" fill="black"/>
<rect x="2.5" y="4.5" width="19" height="15" stroke="black" stroke-opacity="0.12"/>
</svg>
