<svg width="24" height="24" viewBox="0 0 24 24" fill="none" xmlns="http://www.w3.org/2000/svg">
<rect x="2" y="4" width="20" height="16" fill="#000099"/>
<path fill-rule="evenodd" clip-rule="evenodd" d="M22.0001 3.99986L21.9995 5.89445L14.4235 11.8635L21.9995 17.8325L22.0001 19.9999L19.9015 19.9995L11.9995 13.7735L4.09751 19.9995L2.00006 19.9999L1.99951 17.8325L9.57551 11.8635L1.99951 5.89445L2.00006 3.99986L4.44251 3.99945L11.9995 9.95345L19.5575 3.99945L22.0001 3.99986Z" fill="white"/>
<path d="M3.17285 19.9999H2L1.99902 19.661L10.3242 13.0009H11.9238L3.17285 19.9999ZM21.5322 18.6073V19.8915L13 12.9999H14.5908L21.5322 18.6073ZM12.0576 11.9999L10.3242 11.9989L1.99902 5.33972V4.06042L11.1924 11.4139L20.3721 3.99988H21.9629L12.0576 11.9999Z" fill="#FF0000"/>
<path fill-rule="evenodd" clip-rule="evenodd" d="M14 4V10H22V14H14V20H10V14H2V10H10V4H14Z" fill="white"/>
<path fill-rule="evenodd" clip-rule="evenodd" d="M13 4V11H22V13H13V20H11V13H2V11H11V4H13Z" fill="#FF0000"/>
<rect x="2.5" y="4.5" width="19" height="15" stroke="black" stroke-opacity="0.12"/>
</svg>
