<svg width="48" height="48" viewBox="0 0 48 48" fill="none" xmlns="http://www.w3.org/2000/svg">
<path d="M42 42V36C42 30 35.6709 26 30 26C24.3291 26 18 30 18 36V42M18 20C14.6863 20 12 16.866 12 13C12 9.13401 14.6863 6 18 6M6 42V36C6 31.0499 10.3079 27.4611 15 26.3567M36 13C36 16.866 33.3137 20 30 20C26.6863 20 24 16.866 24 13C24 9.13401 26.6863 6 30 6C33.3137 6 36 9.13401 36 13Z" stroke="var(--icon-stroke)" stroke-width="var(--icon-stroke-width)" stroke-linecap="round" stroke-linejoin="round"/>
</svg>
