<svg width="24" height="24" viewBox="0 0 24 24" fill="none" xmlns="http://www.w3.org/2000/svg">
<path d="M21 21V18C21 15 17.8354 13 15 13C12.1646 13 9 15 9 18V21M9 10C7.34315 10 6 8.433 6 6.5C6 4.56701 7.34315 3 9 3M3 21V18C3 15.525 5.15395 13.7305 7.5 13.1784M18 6.5C18 8.433 16.6569 10 15 10C13.3431 10 12 8.433 12 6.5C12 4.56701 13.3431 3 15 3C16.6569 3 18 4.56701 18 6.5Z" stroke="var(--icon-stroke)" stroke-width="var(--icon-stroke-width)" stroke-linecap="round" stroke-linejoin="round"/>
</svg>
