<svg width="24" height="24" viewBox="0 0 24 24" xmlns="http://www.w3.org/2000/svg">
  <defs>
    <linearGradient id="a" x1="12" y1="2" x2="12" y2="22" gradientUnits="userSpaceOnUse">
      <stop stop-color="#F36E53" />
      <stop offset=".66" stop-color="#E24E30" />
      <stop offset="1" stop-color="#D22F0F" />
    </linearGradient>

    <clipPath id="b">
      <rect x="2" y="2" width="20" height="20" rx="5" />
    </clipPath>

    <clipPath id="c">
      <rect x="2" y="13.25" width="20" height="8.75" />
    </clipPath>
  </defs>

  <g clip-path="url(#b)">
    <rect x="2" y="2" width="20" height="20" rx="5" fill="url(#a)" />
    <path d="M14.5 2H22V22H9.5L14.5 2Z" fill="#F37258" />
    <path d="M19.5 2H22V22H9.5L19.5 2Z" fill="#F5826B" />

    <g clip-path="url(#c)" fill="#FDE3DE">
      <path d="M-5.5 14.25h1.88c4.7827 0 7.17405 0 8.97403.9895 1.33031.7314 2.42508 1.8262 3.15642 3.1565C9.5 20.1959 9.5 22.5873 9.5 27.37v6.88h-15z" />
      <path d="M9.5 27.37c0-4.7827 0-7.1741.9895-8.974  .7314-1.3303 1.8262-2.4251 3.1565-3.1565.1959-.9895 2.5873-.9895 7.37-.9895h1.88v20h-15z" />
    </g>

    <circle cx="7" cy="6" r="1" fill="#FEEFEC" />
    <path d="M5 9h1v1H5zm3 0h1v1H8z" fill="#FEEFEC" />
  </g>
</svg>
