<svg width="20" height="20" viewBox="0 0 20 20" fill="none" xmlns="http://www.w3.org/2000/svg">
<path d="M3 5.71429C3 5.25963 3.16389 4.82359 3.45561 4.5021C3.74733 4.18061 4.143 4 4.55556 4H15.4444C15.857 4 16.2527 4.18061 16.5444 4.5021C16.8361 4.82359 17 5.25963 17 5.71429V14.2857C17 14.7404 16.8361 15.1764 16.5444 15.4979C16.2527 15.8194 15.857 16 15.4444 16H4.55556C4.143 16 3.74733 15.8194 3.45561 15.4979C3.16389 15.1764 3 14.7404 3 14.2857V5.71429Z" stroke="var(--icon-stroke)" stroke-width="var(--icon-stroke-width)" stroke-linecap="round" stroke-linejoin="round"/>
<path d="M3 5.88889L10 10.5556L17 5.88889" stroke="var(--icon-stroke)" stroke-width="var(--icon-stroke-width)" stroke-linecap="round" stroke-linejoin="round"/>
</svg>
