<svg width="20" height="20" viewBox="0 0 20 20" fill="none" xmlns="http://www.w3.org/2000/svg">
<path d="M3 7C3 6.20435 3.295 5.44129 3.8201 4.87868C4.3452 4.31607 5.05739 4 5.8 4H14.2C14.9426 4 15.6548 4.31607 16.1799 4.87868C16.705 5.44129 17 6.20435 17 7V13C17 13.7956 16.705 14.5587 16.1799 15.1213C15.6548 15.6839 14.9426 16 14.2 16H5.8C5.05739 16 4.3452 15.6839 3.8201 15.1213C3.295 14.5587 3 13.7956 3 13V7Z" stroke="var(--icon-stroke)" stroke-width="var(--icon-stroke-width)" stroke-linecap="round" stroke-linejoin="round"/>
<path d="M8 8L12 10L8 12V8Z" stroke="var(--icon-stroke)" stroke-width="var(--icon-stroke-width)" stroke-linecap="round" stroke-linejoin="round"/>
</svg>
