<svg width="20" height="20" viewBox="0 0 20 20" fill="none" xmlns="http://www.w3.org/2000/svg">
<path d="M16.715 4L3.57676 9.46256C3.23819 9.60314 3.06933 9.67428 3.02562 9.76599C3.00667 9.8052 2.99799 9.84857 3.00039 9.89205C3.00279 9.93553 3.01619 9.97768 3.03933 10.0146C3.09333 10.1003 3.26905 10.1517 3.62219 10.2554L8.57218 11.7143M16.715 4L14.945 15.1848C14.9107 15.4026 14.8936 15.5114 14.8362 15.5706C14.8119 15.597 14.7823 15.618 14.7494 15.6324C14.7165 15.6467 14.6809 15.654 14.645 15.6537C14.5619 15.6537 14.4693 15.592 14.2842 15.4686L11.7728 13.792M16.715 4L8.57218 11.7143M8.57218 11.7143L8.7059 15.4C8.7059 15.6863 8.7059 15.8294 8.76504 15.9014C8.81647 15.9648 8.89361 16.0008 8.9759 16C9.07018 15.9991 9.18161 15.9074 9.40447 15.7257L11.7728 13.792M8.57218 11.7143L11.7728 13.792" stroke="var(--icon-stroke)" stroke-width="var(--icon-stroke-width)" stroke-linecap="round" stroke-linejoin="round"/>
</svg>
