<svg width="20" height="20" viewBox="0 0 20 20" fill="none" xmlns="http://www.w3.org/2000/svg">
<path d="M17 6.82464V9.96245C15.5892 9.82247 14.2439 9.2975 13.1111 8.44488V11.9452C13.1109 12.895 12.8432 13.8256 12.3385 14.6303C11.8339 15.435 11.1129 16.0812 10.258 16.495C9.40305 16.9088 8.44889 17.0734 7.50477 16.9699C6.56066 16.8664 5.66479 16.4991 4.91979 15.9099C4.1748 15.3208 3.61082 14.5336 3.29247 13.6388C2.97411 12.7439 2.91426 11.7774 3.11977 10.85C3.32528 9.92269 3.78784 9.072 4.45445 8.39542C5.12106 7.71884 5.96476 7.24374 6.88889 7.02454V10.3895C6.62373 10.5884 6.41381 10.8517 6.27906 11.1546C6.14431 11.4574 6.0892 11.7897 6.11897 12.1198C6.14873 12.4499 6.26239 12.767 6.44913 13.0408C6.63588 13.3147 6.88952 13.5362 7.18597 13.6845C7.48243 13.8327 7.81185 13.9027 8.14295 13.8878C8.47406 13.8729 8.79587 13.7736 9.07781 13.5993C9.35975 13.4251 9.59247 13.1816 9.75388 12.8921C9.91528 12.6026 10 12.2766 10 11.9452V3H13.1757C13.3376 3.9555 13.7927 4.83697 14.478 5.52224C15.1632 6.20752 16.0446 6.66268 17 6.82464Z" stroke="var(--icon-stroke)" stroke-width="var(--icon-stroke-width)" stroke-linecap="round" stroke-linejoin="round"/>
</svg>
