<svg width="48" height="48" viewBox="0 0 48 48" fill="none" xmlns="http://www.w3.org/2000/svg">
<path d="M12 24H8C5.79086 24 4 25.7909 4 28V38C4 40.2091 5.79086 42 8 42H12V24ZM12 24H17C19 24.6667 24 26.4 28 28C32 29.6 32.125 32.6667 31.6875 34M12 39L28 43L42 38C42 36.6667 41.2 34 38 34H31.6875M21 32C23 33 25 34 28 34H31.6875M34 6H36C39.3137 6 42 8.68629 42 12V22M42 14H36C33.7909 14 32 15.7909 32 18C32 20.2091 33.7909 22 36 22C39.3137 22 42 19.3137 42 16V14Z" stroke="var(--icon-stroke)" stroke-width="var(--icon-stroke-width)" stroke-linecap="round" stroke-linejoin="round"/>
</svg>
