<svg width="24" height="24" viewBox="0 0 24 24" fill="none" xmlns="http://www.w3.org/2000/svg">
<path d="M6 12H4C2.89543 12 2 12.8954 2 14V19C2 20.1046 2.89543 21 4 21H6V12ZM6 12H8.5C9.5 12.3334 12 13.2 14 14C16 14.8 16.0625 16.3334 15.8438 17M6 19.5L14 21.5L21 19C21 18.3334 20.6 17 19 17H15.8438M10.5 16C11.5 16.5 12.5 17 14 17H15.8438M17 3H18C19.6569 3 21 4.34315 21 6V11M21 7H18C16.8954 7 16 7.89543 16 9C16 10.1046 16.8954 11 18 11C19.6569 11 21 9.65685 21 8V7Z" stroke="var(--icon-stroke)" stroke-width="var(--icon-stroke-width)" stroke-linecap="round" stroke-linejoin="round"/>
</svg>
