<svg xmlns="http://www.w3.org/2000/svg" xmlns:xlink="http://www.w3.org/1999/xlink" width="1024" height="490" viewBox="0 0 1024 490">
  <defs>
    <rect id="bottom-magic-a" width="1024" height="553" x="0" y="0"/>
  </defs>
  <g fill="none" fill-rule="evenodd" transform="translate(0 -63)">
    <mask id="bottom-magic-b" fill="#fff">
      <use xlink:href="#bottom-magic-a"/>
    </mask>
    <g fill-rule="nonzero" mask="url(#bottom-magic-b)">
      <g transform="translate(-93 63)">
        <path fill="#F6927E" d="M45.5,196.5 C82.5745041,188.256161 120.760968,186.228561 158.5,190.5 C254.1,201.64 265.71,245.87 336.5,250.5 C434.07,256.89 456.88,175.81 558.5,185.5 C625.97,191.94 632.6,229.27 685.5,223.5 C777.64,213.44 824.8,92.81 849.5,104.5 C872.15,115.22 833.08,216.96 854.5,228.5 C890.23,247.76 1029.33,-18.98 1094.5,1.5 C1149.72,18.85 1182.34,251.98 1077.5,394.5 C856,695.56 54.07,547.43 3.5,329.5 C-8.81,276.46 24.54,224.25 45.5,196.5 Z"/>
        <path fill="#F68A74" d="M595.5,262.5 C519.62,301.32 413.31,153.89 253.5,180.5 C239.25,182.87 226,186.75 199.5,194.5 C118.27,218.26 12.91,249.08 9.5,280.5 C1.66,352.71 517.5,564.65 653.5,401.5 C727.59,312.64 674.12,130.4 654.5,129.496708 C639.56,128.82 651.81,233.69 595.5,262.5 Z"/>
        <path fill="#F47A61" d="M1307.5,236.5 C1294.38,194.21 1111.18,215.5 1016.5,226.5 C712.23,261.85 548.26,363.35 401.5,275.5 C378.11,261.5 380.6,257.92 349.5,239.5 C234.66,171.5 64.42,139.56 20.5,198.5 C-15.25,246.5 22.36,368.62 102.5,440.5 C230.79,555.56 460.69,518.88 920.5,445.5 C929.35,444.09 945.66,441.5 967.5,436.5 C1152.43,394.58 1321.1,280.35 1307.5,236.5 Z"/>
      </g>
    </g>
  </g>
</svg>
