<svg xmlns="http://www.w3.org/2000/svg" width="165" height="180" viewBox="0 0 165 180">
  <g fill="none" fill-rule="evenodd">
    <circle cx="18.5" cy="71.5" r="18.5" fill="#FDE7E2" fill-opacity=".16" style="mix-blend-mode:luminosity"/>
    <g transform="translate(15 30)">
      <circle cx="75" cy="75" r="75" fill="#F79A88" style="mix-blend-mode:luminosity"/>
      <path fill="#FEF6F5" d="M75,35 L75.627,73.939 L95.7479868,54.4576642 L76.459,74.377 L115,75 L76.262,75.624 L95.7479868,95.7479868 L75.624,76.262 L75,115 L74.378,76.458 L54.4576642,95.7479868 L73.939,75.627 L35,75 L73.742,74.374 L54.4576642,54.4576642 L74.375,73.743 L75,35 Z" transform="rotate(12 75 75)"/>
    </g>
    <g transform="translate(37)">
      <circle cx="30" cy="30" r="30" fill="#F6927E" style="mix-blend-mode:luminosity"/>
      <path fill="#FEF6F5" d="M42,18 L30.38,30 L42,42 L30,30.38 L18,42 L29.619,30 L18,18 L30,29.619 L42,18 Z"/>
    </g>
  </g>
</svg>
