<svg xmlns="http://www.w3.org/2000/svg" width="165" height="180" viewBox="0 0 165 180"><g fill="none" fill-rule="evenodd"><circle cx="18.5" cy="71.5" r="18.5" fill="#FDE7E2" fill-opacity=".16" style="mix-blend-mode:luminosity"/><g transform="translate(15 30)"><circle cx="75" cy="75" r="75" fill="#F79A88" style="mix-blend-mode:luminosity"/><path fill="#FEF6F5" d="M83.316 35.874l-7.482 38.219L99.566 59.22l-23.01 15.474 37.57 8.622-38.021-7.443L90.98 99.608 75.348 76.364l-8.664 37.762 7.404-37.83-23.495 14.728 23.239-15.631-37.958-8.71L73.9 74.127l-14.722-23.49L74.65 73.64l8.666-37.767z"/></g><g transform="translate(37)"><circle cx="30" cy="30" r="30" fill="#F6927E" style="mix-blend-mode:luminosity"/><path fill="#FEF6F5" d="M42 18L30.38 30 42 42 30 30.38 18 42l11.619-12L18 18l12 11.619L42 18z"/></g></g></svg>