<svg xmlns="http://www.w3.org/2000/svg" xmlns:xlink="http://www.w3.org/1999/xlink" width="1024" height="490" viewBox="0 0 1024 490"><defs><path id="bottom-magic-a" d="M0 0h1024v553H0z"/></defs><g fill="none" fill-rule="evenodd" transform="translate(0 -63)"><mask id="bottom-magic-b" fill="#fff"><use xlink:href="#bottom-magic-a"/></mask><g fill-rule="nonzero" mask="url(#bottom-magic-b)"><path fill="#F6927E" d="M-47.5 259.5a342.92 342.92 0 01113-6c95.6 11.14 107.21 55.37 178 60 97.57 6.39 120.38-74.69 222-65 67.47 6.44 74.1 43.77 127 38 92.14-10.06 139.3-130.69 164-119 22.65 10.72-16.42 112.46 5 124 35.73 19.26 174.83-247.48 240-227 55.22 17.35 87.84 250.48-17 393C763 758.56-38.93 610.43-89.5 392.5c-12.31-53.04 21.04-105.25 42-133z"/><path fill="#F68A74" d="M502.5 325.5c-75.88 38.82-182.19-108.61-342-82-14.25 2.37-27.5 6.25-54 14-81.23 23.76-186.59 54.58-190 86-7.84 72.21 508 284.15 644 121 74.09-88.86 20.62-271.1 1-272.003-14.94-.677-2.69 104.193-59 133.003z"/><path fill="#F47A61" d="M1214.5 299.5c-13.12-42.29-196.32-21-291-10-304.27 35.35-468.24 136.85-615 49-23.39-14-20.9-17.58-52-36-114.84-68-285.08-99.94-329-41-35.75 48 1.86 170.12 82 242 128.29 115.06 358.19 78.38 818 5 8.85-1.41 25.16-4 47-9 184.93-41.92 353.6-156.15 340-200z"/></g></g></svg>