<svg xmlns="http://www.w3.org/2000/svg" xmlns:xlink="http://www.w3.org/1999/xlink" width="72" height="72" viewBox="0 0 72 72"><defs><linearGradient id="logo-c" x1="50%" x2="50%" y1="8.855%" y2="97.824%"><stop offset="0%" stop-color="#F8AA9B"/><stop offset="100%" stop-color="#F15A3B"/></linearGradient><path id="logo-a" d="M17.306 0h25.388c6.018 0 8.2.627 10.4 1.803a12.267 12.267 0 0 1 5.103 5.103c1.176 2.2 1.803 4.382 1.803 10.4v25.388c0 6.018-.627 8.2-1.803 10.4a12.267 12.267 0 0 1-5.103 5.103c-2.2 1.176-4.382 1.803-10.4 1.803H17.306c-6.018 0-8.2-.627-10.4-1.803a12.267 12.267 0 0 1-5.103-5.103C.627 50.894 0 48.712 0 42.694V17.306c0-6.018.627-8.2 1.803-10.4a12.267 12.267 0 0 1 5.103-5.103C9.106.627 11.288 0 17.306 0z"/><filter id="logo-b" width="140%" height="140%" x="-20%" y="-13.3%" filterUnits="objectBoundingBox"><feMorphology in="SourceAlpha" radius=".5" result="shadowSpreadOuter1"/><feOffset dy="2" in="shadowSpreadOuter1" result="shadowOffsetOuter1"/><feGaussianBlur in="shadowOffsetOuter1" result="shadowBlurOuter1" stdDeviation="2"/><feColorMatrix in="shadowBlurOuter1" result="shadowMatrixOuter1" values="0 0 0 0 0 0 0 0 0 0 0 0 0 0 0 0 0 0 0.24 0"/><feMorphology in="SourceAlpha" radius="1" result="shadowSpreadOuter2"/><feOffset dy="4" in="shadowSpreadOuter2" result="shadowOffsetOuter2"/><feGaussianBlur in="shadowOffsetOuter2" result="shadowBlurOuter2" stdDeviation="4"/><feColorMatrix in="shadowBlurOuter2" result="shadowMatrixOuter2" values="0 0 0 0 0 0 0 0 0 0 0 0 0 0 0 0 0 0 0.12 0"/><feMerge><feMergeNode in="shadowMatrixOuter1"/><feMergeNode in="shadowMatrixOuter2"/></feMerge></filter></defs><g fill="none" fill-rule="evenodd" transform="translate(6 2)"><mask id="logo-d" fill="#fff"><use xlink:href="#logo-a"/></mask><use fill="#000" filter="url(#logo-b)" xlink:href="#logo-a"/><use fill="url(#logo-c)" xlink:href="#logo-a"/><path fill="#F9EDEA" fill-rule="nonzero" mask="url(#logo-d)" d="M23.5 26.395l-1.768.873.873-1.768-.873-1.768 1.768.873 1.768-.873-.873 1.768.873 1.768zm-10 0l-1.768.873.873-1.768-.873-1.768 1.768.873 1.768-.873-.873 1.768.873 1.768z"/><path fill="#F9EDEA" fill-rule="nonzero" mask="url(#logo-d)" transform="rotate(45 18.536 18.536)" d="M18.536 19.788l-2.475 1.222 1.222-2.474-1.222-2.475 2.475 1.222 2.474-1.222-1.222 2.475 1.222 2.474z"/><path fill="#FFF" fill-opacity=".24" mask="url(#logo-d)" d="M24.639 60L23 59.67 43.88 0H60v60z"/><path fill="#FFF" fill-opacity=".24" d="M59.75 0L60 1.171v45.588c-14.277-.208-29.384-.176-35 9.071L54.82 0h4.93z" mask="url(#logo-d)"/><path fill="#FDE9E5" d="M60 37v23.17H23L25.23 56C32.18 44.59 43.56 37.17 60 37zM23 59.93H0V39c10.7 3.53 18.25 11.04 23 20.93z" mask="url(#logo-d)"/></g></svg>