<svg xmlns="http://www.w3.org/2000/svg" width="16" height="16" viewBox="0 0 16 16"><g fill="none" fill-rule="evenodd"><rect width="16" height="16" fill="#F5826B" fill-rule="nonzero" rx="2"/><path fill="#FFF" d="M10.85 8c2.06 0 2.896 1.195 3.099 1.55l.02.038.031.06v5.194c0 .242-.372.183-.645-.02-.584-.431-1.702-1.111-2.955-1.111-1.466 0-2.034.554-2.205.782l-.024.033-.038.062-.064.06-.068.048L8 13a1 1 0 001-1V8.37c.453-.215 1.055-.37 1.85-.37zm-5.7 0c.795 0 1.398.155 1.851.37L7 12a1 1 0 001 1h-.001v1.696a.714.714 0 01-.132-.108l-.038-.062c-.138-.2-.685-.815-2.23-.815-1.252 0-2.37.68-2.954 1.112-.273.202-.645.26-.645.019V9.647l.03-.06C2.19 9.293 3.007 8 5.15 8zM9 1v2.585l1.536-1.535 1.414 1.414L10.413 5H13v2h-3V5.171L8.829 4H7.17L6 5.17V7H3V5h2.586L4.05 3.464 5.464 2.05 7 3.586V1h2z"/></g></svg>