<svg xmlns="http://www.w3.org/2000/svg" xmlns:xlink="http://www.w3.org/1999/xlink"><symbol viewBox="0 0 24 24" fill="none" id="arrow-down" xmlns="http://www.w3.org/2000/svg">
<path d="M12 19V5M12 19L6 13M12 19L18 13" stroke="var(--icon-stroke)" stroke-width="var(--icon-stroke-width)" stroke-linecap="round" stroke-linejoin="round"/>
</symbol><symbol viewBox="0 0 24 24" fill="none" id="brand-apple" xmlns="http://www.w3.org/2000/svg">
<path d="M13.5221 2.84943L15.3625 1M13.5191 18.4369C13.1288 18.2058 12.684 18.0839 12.231 18.0839C11.778 18.0839 11.3332 18.2058 10.9429 18.4369C9.18608 19.5153 7.35764 18.9169 6.3367 17.7199C4.70529 15.8105 2.48877 9.81068 5.46502 6.78529C6.81434 5.41434 8.54576 5.51034 9.94134 5.95132C10.2747 6.05732 10.5876 6.19731 10.8802 6.37131C11.2932 6.60248 11.7582 6.72382 12.231 6.72382C12.7038 6.72382 13.1687 6.60248 13.5818 6.37131C13.8763 6.19731 14.1898 6.05732 14.5221 5.95132C15.9177 5.51034 17.6491 5.41434 19 6.78529C19.4403 7.23527 19.7672 7.74826 20 8.30474C19.8551 8.29112 19.7097 8.28462 19.5642 8.28524C17.6865 8.28524 16.6312 9.3322 16.6312 11.1921C16.6312 13.0521 17.6865 14.0975 19.5642 14.0975C19.6955 14.0975 19.8229 14.0925 19.9463 14.0825C19.4746 15.6335 18.7567 16.9819 18.1253 17.7199C17.1058 18.9154 15.2774 19.5153 13.5191 18.4369Z" stroke="var(--icon-stroke)" stroke-width="var(--icon-stroke-width)" stroke-linecap="round" stroke-linejoin="round"/>
</symbol><symbol viewBox="0 0 24 24" fill="none" id="brand-google" xmlns="http://www.w3.org/2000/svg">
<path d="M17.7867 5.10666C16.2221 3.79191 14.2035 3 12 3C7.02944 3 3 7.02944 3 12C3 16.9706 7.02944 21 12 21C16.9706 21 21 16.9706 21 12H13" stroke="var(--icon-stroke)" stroke-width="var(--icon-stroke-width)" stroke-linecap="round" stroke-linejoin="round"/>
</symbol><symbol viewBox="0 0 24 24" fill="none" id="brand-notion" xmlns="http://www.w3.org/2000/svg">
<path d="M11 16.9528V10.4528H11.5L15.5 16.4528H16V9.95284M4.5 4.95284L7 7.45284M7 7.45284L20 6.45284M7 7.45284V19.9528M19.077 19.5238L7.547 20.4108C7.37939 20.4236 7.21125 20.394 7.05814 20.3246C6.90503 20.2552 6.77188 20.1483 6.671 20.0138L4.2 16.7198C4.07018 16.5467 4 16.3362 4 16.1198V5.37884C4.00001 5.12696 4.09507 4.88436 4.26618 4.69952C4.4373 4.51469 4.67187 4.40123 4.923 4.38184L16.312 3.50584C16.7577 3.47171 17.202 3.58789 17.574 3.83584L19.109 4.85884C19.383 5.04142 19.6077 5.28884 19.7631 5.57912C19.9186 5.8694 19.9999 6.19356 20 6.52284V18.5268C20 18.7787 19.9049 19.0213 19.7338 19.2062C19.5627 19.391 19.3281 19.5044 19.077 19.5238Z" stroke="var(--icon-stroke)" stroke-width="var(--icon-stroke-width)" stroke-linecap="round" stroke-linejoin="round"/>
</symbol><symbol viewBox="0 0 24 24" fill="none" id="brand-windows" xmlns="http://www.w3.org/2000/svg">
<path d="M11 4.11111L3.88957 4.90116C3.38314 4.95743 3 5.38549 3 5.89504V12M11 4.11111L19.8896 3.12338C20.4819 3.05756 21 3.52125 21 4.11726V12M11 4.11111V19.8889M11 19.8889L19.8896 20.8766C20.4819 20.9424 21 20.4787 21 19.8827V12M11 19.8889L3.88957 19.0988C3.38314 19.0426 3 18.6145 3 18.105V12M3 12H21" stroke="var(--icon-stroke)" stroke-width="var(--icon-stroke-width)" stroke-linecap="round" stroke-linejoin="round"/>
</symbol><symbol viewBox="0 0 24 24" fill="none" id="brand-word" xmlns="http://www.w3.org/2000/svg">
<path d="M14 3V7C14 7.26522 14.1054 7.51957 14.2929 7.70711C14.4804 7.89464 14.7348 8 15 8H19M14 3H7C6.46957 3 5.96086 3.21071 5.58579 3.58579C5.21071 3.96086 5 4.46957 5 5V19C5 19.5304 5.21071 20.0391 5.58579 20.4142C5.96086 20.7893 6.46957 21 7 21H17C17.5304 21 18.0391 20.7893 18.4142 20.4142C18.7893 20.0391 19 19.5304 19 19V8M14 3L19 8M8 12L10 17L12 12L14 17L16 12" stroke="var(--icon-stroke)" stroke-width="var(--icon-stroke-width)" stroke-linecap="round" stroke-linejoin="round"/>
</symbol><symbol viewBox="0 0 24 24" fill="none" id="check" xmlns="http://www.w3.org/2000/svg">
<path d="M5 12L10 17L20 7" stroke="var(--icon-stroke)" stroke-width="var(--icon-stroke-width)" stroke-linecap="round" stroke-linejoin="round"/>
</symbol><symbol viewBox="0 0 24 24" fill="none" id="flag-en" xmlns="http://www.w3.org/2000/svg">
<rect x="2" y="4" width="20" height="16" fill="#000099"/>
<path fill-rule="evenodd" clip-rule="evenodd" d="M22.0001 3.99986L21.9995 5.89445L14.4235 11.8635L21.9995 17.8325L22.0001 19.9999L19.9015 19.9995L11.9995 13.7735L4.09751 19.9995L2.00006 19.9999L1.99951 17.8325L9.57551 11.8635L1.99951 5.89445L2.00006 3.99986L4.44251 3.99945L11.9995 9.95345L19.5575 3.99945L22.0001 3.99986Z" fill="white"/>
<path d="M3.17285 19.9999H2L1.99902 19.661L10.3242 13.0009H11.9238L3.17285 19.9999ZM21.5322 18.6073V19.8915L13 12.9999H14.5908L21.5322 18.6073ZM12.0576 11.9999L10.3242 11.9989L1.99902 5.33972V4.06042L11.1924 11.4139L20.3721 3.99988H21.9629L12.0576 11.9999Z" fill="#FF0000"/>
<path fill-rule="evenodd" clip-rule="evenodd" d="M14 4V10H22V14H14V20H10V14H2V10H10V4H14Z" fill="white"/>
<path fill-rule="evenodd" clip-rule="evenodd" d="M13 4V11H22V13H13V20H11V13H2V11H11V4H13Z" fill="#FF0000"/>
<rect x="2.5" y="4.5" width="19" height="15" stroke="black" stroke-opacity="0.12"/>
</symbol><symbol viewBox="0 0 24 24" fill="none" id="flag-ru" xmlns="http://www.w3.org/2000/svg">
<rect x="2" y="4" width="20" height="16" fill="white"/>
<rect x="2" y="9" width="20" height="6" fill="#0066CC"/>
<rect x="2.5" y="4.5" width="19" height="15" stroke="black" stroke-opacity="0.12"/>
</symbol><symbol viewBox="0 0 24 24" fill="none" id="group" xmlns="http://www.w3.org/2000/svg">
<path d="M21 21V18C21 15 17.8354 13 15 13C12.1646 13 9 15 9 18V21M9 10C7.34315 10 6 8.433 6 6.5C6 4.56701 7.34315 3 9 3M3 21V18C3 15.525 5.15395 13.7305 7.5 13.1784M18 6.5C18 8.433 16.6569 10 15 10C13.3431 10 12 8.433 12 6.5C12 4.56701 13.3431 3 15 3C16.6569 3 18 4.56701 18 6.5Z" stroke="var(--icon-stroke)" stroke-width="var(--icon-stroke-width)" stroke-linecap="round" stroke-linejoin="round"/>
</symbol><symbol viewBox="0 0 24 24" fill="none" id="home" xmlns="http://www.w3.org/2000/svg">
<path d="M12 3L5 9.22226V20C5 20.5523 5.44772 21 6 21H10.0001V14H14.0001V21H18C18.5523 21 19 20.5523 19 20V9.22219L12 3Z" fill="var(--icon-fill)"/>
<path d="M21 11L18.9999 9.22219M3 11L4.99994 9.22226M4.99994 9.22226L11.9999 3L18.9999 9.22219M4.99994 9.22226V20C4.99994 20.5523 5.44765 21 5.99994 21H10M18.9999 9.22219V20C18.9999 20.5523 18.5522 21 17.9999 21H14M18.9999 9.22219V5M10 21V14H14V21M10 21H14" stroke="var(--icon-stroke)" stroke-width="var(--icon-stroke-width)" stroke-linecap="round" stroke-linejoin="round"/>
</symbol><symbol viewBox="0 0 24 24" fill="none" id="play" xmlns="http://www.w3.org/2000/svg">
<path d="M21 12C21 16.9706 16.9706 21 12 21C7.02944 21 3 16.9706 3 12C3 7.02944 7.02944 3 12 3C16.9706 3 21 7.02944 21 12Z" stroke="var(--icon-stroke)" stroke-width="var(--icon-stroke-width)" stroke-linecap="round" stroke-linejoin="round"/>
<path d="M9.5 8V16L16 12L9.5 8Z" stroke="var(--icon-stroke)" stroke-width="var(--icon-stroke-width)" stroke-linecap="round" stroke-linejoin="round"/>
</symbol><symbol viewBox="0 0 16 16" fill="none" id="sm-chevron-down" xmlns="http://www.w3.org/2000/svg">
<path d="M5 7L8 10L11 7" stroke="var(--icon-stroke)" stroke-width="var(--icon-stroke-width)" stroke-miterlimit="10" stroke-linecap="round" stroke-linejoin="round"/>
</symbol><symbol viewBox="0 0 20 20" fill="none" id="sm-mail" xmlns="http://www.w3.org/2000/svg">
<path d="M3 5.71429C3 5.25963 3.16389 4.82359 3.45561 4.5021C3.74733 4.18061 4.143 4 4.55556 4H15.4444C15.857 4 16.2527 4.18061 16.5444 4.5021C16.8361 4.82359 17 5.25963 17 5.71429V14.2857C17 14.7404 16.8361 15.1764 16.5444 15.4979C16.2527 15.8194 15.857 16 15.4444 16H4.55556C4.143 16 3.74733 15.8194 3.45561 15.4979C3.16389 15.1764 3 14.7404 3 14.2857V5.71429Z" stroke="var(--icon-stroke)" stroke-width="var(--icon-stroke-width)" stroke-linecap="round" stroke-linejoin="round"/>
<path d="M3 5.88889L10 10.5556L17 5.88889" stroke="var(--icon-stroke)" stroke-width="var(--icon-stroke-width)" stroke-linecap="round" stroke-linejoin="round"/>
</symbol><symbol viewBox="0 0 20 20" fill="none" id="sm-social-facebook" xmlns="http://www.w3.org/2000/svg">
<path d="M13 7H11.5601C10.7009 7 10.0045 7.70089 10.0045 8.56V11M10.0045 17V11M10.0045 11H8M10.0045 11H12.5M5 17H15C16.1046 17 17 16.1046 17 15V5C17 3.89543 16.1046 3 15 3H5C3.89543 3 3 3.89543 3 5V15C3 16.1046 3.89543 17 5 17Z" stroke="var(--icon-stroke)" stroke-width="var(--icon-stroke-width)" stroke-linecap="round"/>
</symbol><symbol viewBox="0 0 20 20" fill="none" id="sm-social-instagram" xmlns="http://www.w3.org/2000/svg">
<path d="M3 6.5C3 5.57174 3.36875 4.6815 4.02513 4.02513C4.6815 3.36875 5.57174 3 6.5 3H13.5C14.4283 3 15.3185 3.36875 15.9749 4.02513C16.6313 4.6815 17 5.57174 17 6.5V13.5C17 14.4283 16.6313 15.3185 15.9749 15.9749C15.3185 16.6313 14.4283 17 13.5 17H6.5C5.57174 17 4.6815 16.6313 4.02513 15.9749C3.36875 15.3185 3 14.4283 3 13.5V6.5Z" stroke="var(--icon-stroke)" stroke-width="var(--icon-stroke-width)" stroke-linecap="round" stroke-linejoin="round"/>
<path d="M7.5 10C7.5 10.663 7.76339 11.2989 8.23223 11.7678C8.70107 12.2366 9.33696 12.5 10 12.5C10.663 12.5 11.2989 12.2366 11.7678 11.7678C12.2366 11.2989 12.5 10.663 12.5 10C12.5 9.33696 12.2366 8.70107 11.7678 8.23223C11.2989 7.76339 10.663 7.5 10 7.5C9.33696 7.5 8.70107 7.76339 8.23223 8.23223C7.76339 8.70107 7.5 9.33696 7.5 10Z" stroke="var(--icon-stroke)" stroke-width="var(--icon-stroke-width)" stroke-linecap="round" stroke-linejoin="round"/>
<path d="M14 6V6.00833" stroke="var(--icon-stroke)" stroke-width="var(--icon-stroke-width)" stroke-linecap="round" stroke-linejoin="round"/>
</symbol><symbol viewBox="0 0 20 20" fill="none" id="sm-social-linkedin" xmlns="http://www.w3.org/2000/svg">
<path d="M7 9V13M7 6.5V6.50833M10 9V13M13 13V10.6C13 10.1757 12.842 9.76869 12.5607 9.46863C12.2794 9.16857 11.8978 9 11.5 9C11.1022 9 10.7206 9.16857 10.4393 9.46863C10.158 9.76869 10 10.1757 10 10.6" stroke="var(--icon-stroke)" stroke-width="var(--icon-stroke-width)" stroke-linecap="round" stroke-linejoin="round"/>
<rect x="3" y="3" width="14" height="14" rx="2" stroke="var(--icon-stroke)" stroke-width="var(--icon-stroke-width)" stroke-linecap="round"/>
</symbol><symbol viewBox="0 0 20 20" fill="none" id="sm-social-product-hunt" xmlns="http://www.w3.org/2000/svg">
<path d="M8 11H10.5C11.6046 11 12.5 10.1046 12.5 9C12.5 7.89543 11.6046 7 10.5 7H8V11ZM8 11V13" stroke="var(--icon-stroke)" stroke-width="var(--icon-stroke-width)" stroke-linecap="round" stroke-linejoin="round"/>
<circle cx="10" cy="10" r="7" stroke="var(--icon-stroke)" stroke-width="var(--icon-stroke-width)" stroke-linecap="round" stroke-linejoin="round"/>
</symbol><symbol viewBox="0 0 20 20" fill="none" id="sm-social-telegram" xmlns="http://www.w3.org/2000/svg">
<path d="M16.715 4L3.57676 9.46256C3.23819 9.60314 3.06933 9.67428 3.02562 9.76599C3.00667 9.8052 2.99799 9.84857 3.00039 9.89205C3.00279 9.93553 3.01619 9.97768 3.03933 10.0146C3.09333 10.1003 3.26905 10.1517 3.62219 10.2554L8.57218 11.7143M16.715 4L14.945 15.1848C14.9107 15.4026 14.8936 15.5114 14.8362 15.5706C14.8119 15.597 14.7823 15.618 14.7494 15.6324C14.7165 15.6467 14.6809 15.654 14.645 15.6537C14.5619 15.6537 14.4693 15.592 14.2842 15.4686L11.7728 13.792M16.715 4L8.57218 11.7143M8.57218 11.7143L8.7059 15.4C8.7059 15.6863 8.7059 15.8294 8.76504 15.9014C8.81647 15.9648 8.89361 16.0008 8.9759 16C9.07018 15.9991 9.18161 15.9074 9.40447 15.7257L11.7728 13.792M8.57218 11.7143L11.7728 13.792" stroke="var(--icon-stroke)" stroke-width="var(--icon-stroke-width)" stroke-linecap="round" stroke-linejoin="round"/>
</symbol><symbol viewBox="0 0 20 20" fill="none" id="sm-social-tiktok" xmlns="http://www.w3.org/2000/svg">
<path d="M17 6.82464V9.96245C15.5892 9.82247 14.2439 9.2975 13.1111 8.44488V11.9452C13.1109 12.895 12.8432 13.8256 12.3385 14.6303C11.8339 15.435 11.1129 16.0812 10.258 16.495C9.40305 16.9088 8.44889 17.0734 7.50477 16.9699C6.56066 16.8664 5.66479 16.4991 4.91979 15.9099C4.1748 15.3208 3.61082 14.5336 3.29247 13.6388C2.97411 12.7439 2.91426 11.7774 3.11977 10.85C3.32528 9.92269 3.78784 9.072 4.45445 8.39542C5.12106 7.71884 5.96476 7.24374 6.88889 7.02454V10.3895C6.62373 10.5884 6.41381 10.8517 6.27906 11.1546C6.14431 11.4574 6.0892 11.7897 6.11897 12.1198C6.14873 12.4499 6.26239 12.767 6.44913 13.0408C6.63588 13.3147 6.88952 13.5362 7.18597 13.6845C7.48243 13.8327 7.81185 13.9027 8.14295 13.8878C8.47406 13.8729 8.79587 13.7736 9.07781 13.5993C9.35975 13.4251 9.59247 13.1816 9.75388 12.8921C9.91528 12.6026 10 12.2766 10 11.9452V3H13.1757C13.3376 3.9555 13.7927 4.83697 14.478 5.52224C15.1632 6.20752 16.0446 6.66268 17 6.82464Z" stroke="var(--icon-stroke)" stroke-width="var(--icon-stroke-width)" stroke-linecap="round" stroke-linejoin="round"/>
</symbol><symbol viewBox="0 0 20 20" fill="none" id="sm-social-vk" xmlns="http://www.w3.org/2000/svg">
<path d="M8.33333 5H10V15C6.25 14.1667 3.83333 9.58333 3 5M17 5C16.1667 6.66667 14.4967 9.16667 12.83 10M12.83 10H10M12.83 10C14.4967 10.8333 16.1667 13.3333 17 15" stroke="var(--icon-stroke)" stroke-width="var(--icon-stroke-width)" stroke-linecap="round" stroke-linejoin="round"/>
</symbol><symbol viewBox="0 0 20 20" fill="none" id="sm-social-x" xmlns="http://www.w3.org/2000/svg">
<path d="M16.5053 3L10.9633 8.96378M3.49467 17L9.03267 11.0409M13.5133 17L3 3H6.48667L17 17H13.5133Z" stroke="var(--icon-stroke)" stroke-width="var(--icon-stroke-width)" stroke-linecap="round" stroke-linejoin="round"/>
</symbol><symbol viewBox="0 0 20 20" fill="none" id="sm-social-youtube" xmlns="http://www.w3.org/2000/svg">
<path d="M3 7C3 6.20435 3.295 5.44129 3.8201 4.87868C4.3452 4.31607 5.05739 4 5.8 4H14.2C14.9426 4 15.6548 4.31607 16.1799 4.87868C16.705 5.44129 17 6.20435 17 7V13C17 13.7956 16.705 14.5587 16.1799 15.1213C15.6548 15.6839 14.9426 16 14.2 16H5.8C5.05739 16 4.3452 15.6839 3.8201 15.1213C3.295 14.5587 3 13.7956 3 13V7Z" stroke="var(--icon-stroke)" stroke-width="var(--icon-stroke-width)" stroke-linecap="round" stroke-linejoin="round"/>
<path d="M8 8L12 10L8 12V8Z" stroke="var(--icon-stroke)" stroke-width="var(--icon-stroke-width)" stroke-linecap="round" stroke-linejoin="round"/>
</symbol><symbol viewBox="0 0 24 24" fill="none" id="suggestion" xmlns="http://www.w3.org/2000/svg">
<path d="M6 12H4C2.89543 12 2 12.8954 2 14V19C2 20.1046 2.89543 21 4 21H6V12ZM6 12H8.5C9.5 12.3334 12 13.2 14 14C16 14.8 16.0625 16.3334 15.8438 17M6 19.5L14 21.5L21 19C21 18.3334 20.6 17 19 17H15.8438M10.5 16C11.5 16.5 12.5 17 14 17H15.8438M17 3H18C19.6569 3 21 4.34315 21 6V11M21 7H18C16.8954 7 16 7.89543 16 9C16 10.1046 16.8954 11 18 11C19.6569 11 21 9.65685 21 8V7Z" stroke="var(--icon-stroke)" stroke-width="var(--icon-stroke-width)" stroke-linecap="round" stroke-linejoin="round"/>
</symbol><symbol viewBox="0 0 24 24" fill="none" id="x-mark" xmlns="http://www.w3.org/2000/svg">
<path d="M17 7L7 17M7 7L17 17" stroke="var(--icon-stroke)" stroke-width="var(--icon-stroke-width)" stroke-linecap="round" stroke-linejoin="round"/>
</symbol></svg>