<svg xmlns="http://www.w3.org/2000/svg" width="448" height="615" viewBox="0 0 448 615"><g fill="none" fill-rule="evenodd" transform="translate(-79)"><path fill="#FEF6F5" fill-rule="nonzero" d="M77 40.931c176.09 127.33 261 127.17 306 102 54.58-30.51 90.29-120 128-109 8.24 2.42 16.43 9.59 16 16-1.36 20.46-89.76 24.38-150 37-141.8 29.73-308.55 145.69-300 250 5.18 63.14 74.54 121.63 143 137 59.62 13.39 108-8.28 118-13 62.05-29.23 86.44-83.6 92-97-112.58 114.25-252.72 160.9-354 115-21.29-9.64-49.23-27.17-76-61"/><circle cx="189.5" cy="405.5" r="29.5" fill="#FDEBE7"/><circle cx="237.5" cy="47.5" r="47.5" fill="#FEEFEC"/><path fill="#FEEFEC" fill-rule="nonzero" d="M80 378c4.21 35.67 16.37 84.41 58 90.91 63.51 9.927 137.25-87.59 180-79.052 54.32 10.858 69.63 195.18-82 221.91-69.81 12.31-159-11.614-227-53.642"/></g></svg>