<svg xmlns="http://www.w3.org/2000/svg" width="16" height="16" viewBox="0 0 16 16">
  <g fill="none" fill-rule="evenodd">
    <rect width="16" height="16" fill="#F5826B" fill-rule="nonzero" rx="2"/>
    <path fill="#FFF" d="M10.8501533,8 C12.9106593,8 13.7461115,9.19478455 13.9486449,9.54928107 L13.9699488,9.58765702 L14,9.64728589 L14,14.8418813 C14,15.0837154 13.6279362,15.0246156 13.3553167,14.8229292 C12.7709023,14.3905742 11.6530268,13.7109771 10.4001752,13.7109771 C8.93363541,13.7109771 8.36582109,14.2652766 8.19461785,14.4926031 L8.17080849,14.525651 L8.13268353,14.5881253 L8.06858219,14.6471069 L8.00064174,14.6960315 L8,13 C8.55228475,13 9,12.5522847 9,12 L9,12 L8.99993967,8.3693017 C9.45337404,8.15453264 10.0554115,8 10.8501533,8 Z M5.14984667,8 C5.94518608,8 6.54753117,8.15476511 7.00108287,8.36978625 L7,12 C7,12.5522847 7.44771525,13 8,13 L7.999,13 L7.99935826,14.6960315 C7.95296343,14.666791 7.9085925,14.6307753 7.86731647,14.5881253 L7.82919151,14.525651 C7.6914593,14.3251593 7.1435509,13.7109771 5.59982476,13.7109771 C4.34697318,13.7109771 3.22909772,14.3905742 2.64468333,14.8229292 C2.37206376,15.0246156 2,15.0837154 2,14.8418813 L2,9.64728589 L2.03005122,9.58765702 C2.18901239,9.29227897 3.00692046,8 5.14984667,8 Z M9,1 L9,3.585 L10.5355339,2.05025253 L11.9497475,3.46446609 L10.413,5 L13,5 L13,7 L10,7 L10,5.171 L8.829,4 L7.17,4 L6,5.17 L6,7 L3,7 L3,5 L5.586,5 L4.05025253,3.46446609 L5.46446609,2.05025253 L7,3.586 L7,1 L9,1 Z"/>
  </g>
</svg>
