<svg xmlns="http://www.w3.org/2000/svg" width="20" height="20" viewBox="0 0 20 20">
  <g fill="none" fill-rule="evenodd">
    <circle cx="10" cy="10" r="7" fill="#FFF"/>
    <path fill="#0C7DB0" fill-rule="nonzero" d="M10,2 C14.418278,2 18,5.581722 18,10 C18,14.418278 14.418278,18 10,18 C5.581722,18 2,14.418278 2,10 C2,5.581722 5.581722,2 10,2 Z M10,9.99987464 L8.10254472,15.6937859 C8.69890636,15.8924292 9.33689093,16 10,16 C10.6634764,16 11.3018005,15.89231 11.8984464,15.6934557 L10,9.99987464 Z M4,10 C4,12.0784258 5.05680194,13.9100224 6.66237439,14.9867581 L4.33703683,8.01242054 C4.11872201,8.63446521 4,9.3033681 4,10 Z M15.6633171,8.01342931 L13.3386286,14.9860854 C14.9436382,13.9092595 16,12.077993 16,10 C16,9.30374466 15.8814063,8.63518836 15.6633171,8.01342931 Z M10,4 C8.22293692,4 6.62631407,4.77255645 5.52766929,6.0001315 L7,6 L7,7 L6,7 L8,13 L9.5,8.49987464 L9,7 L8,7 L8,6 L12,6 L12,7 L11,7 L12.9974941,12.9933702 L14.09,9.7 C14.38,8.82 13,7.56 13,6.5 C13,5.87973402 13.5547013,5.63611709 14.0149297,5.54073605 C12.9515796,4.58311674 11.5438869,4 10,4 Z"/>
  </g>
</svg>
