<svg xmlns="http://www.w3.org/2000/svg" width="20" height="20" viewBox="0 0 20 20">
  <path fill-rule="evenodd" d="M10.8535397,2.50985342 C11.0599056,2.92109986 11.233613,3.35609442 11.3709587,3.81254561 C11.7870002,5.19520662 11.8180815,6.60421425 11.5258408,7.92064191 C12.4945491,6.87724686 13.1739476,5.58516059 13.4892281,4.18733603 C14.4696657,5.12731755 15.2317456,6.33411999 15.6533752,7.73535243 C16.7454343,11.3646726 15.1779594,15.1715558 12.063564,17.0298804 C12.3274257,16.6547329 12.4807129,16.1944231 12.4807129,15.6923077 C12.4807129,14.7230769 11.9268667,13.9384615 11.0960975,13.5692308 C10.2653283,13.2 9.71148212,12.4153846 9.71148212,11.4461538 C9.71148212,11.1692308 9.75763597,10.8923077 9.84994366,10.6153846 C7.95763597,10.7538462 6.48071289,12.3692308 6.48071289,14.3076923 C6.48071289,16.1419895 7.82123359,17.6608701 9.59125486,17.9533139 C7.21955802,18.2824912 4.95454308,16.852607 4.22754703,14.4365277 C3.64377297,12.4964286 4.21605949,10.5857535 5.5685189,9.28826662 L5.7345348,9.13554886 C7.20537748,7.83815113 7.84864759,5.85227313 7.24152257,3.83457002 C7.06805827,3.25808342 6.80003129,2.71097175 6.43744162,2.19323503 C7.95259771,1.84304633 9.4785777,1.98072664 10.8535397,2.50985342 Z"/>
</svg>
