<svg xmlns="http://www.w3.org/2000/svg" width="20" height="20" viewBox="0 0 20 20">
  <path fill-rule="evenodd" d="M7.65044025,3.75735931 C9.99288128,1.41421356 13.7907286,1.41421356 16.1331696,3.75735931 C18.4756106,6.10050506 18.4756106,9.89949494 16.1331696,12.2426407 C13.9028801,14.4736012 10.353212,14.5804152 7.99658399,12.5630828 L7.99658399,12.5630828 L7.71878716,12.8436676 L7.72984406,13.5774266 L3.40436297,17.8947809 L2,16.4899954 L6.31605584,12.163213 L7.04959407,12.1742732 L7.33009455,11.8963928 C5.31336883,9.53905577 5.42015073,5.98831983 7.65044025,3.75735931 Z M14.7193814,5.17157288 C13.157754,3.60947571 10.6258558,3.60947571 9.06422848,5.17157288 C7.50260113,6.73367004 7.50260113,9.26632996 9.06422848,10.8284271 C10.6258558,12.3905243 13.157754,12.3905243 14.7193814,10.8284271 C16.2810087,9.26632996 16.2810087,6.73367004 14.7193814,5.17157288 Z M13,5 L13,7 L15,7 L15,9 L13,9 L13,11 L11,11 L11,9 L9,9 L9,7 L11,7 L11,5 L13,5 Z"/>
</svg>
