<svg xmlns="http://www.w3.org/2000/svg" width="20" height="20" viewBox="0 0 20 20">
  <path fill-rule="evenodd" d="M13.4645572,12.0154114 C15.4944194,12.1457099 18.7950424,13.0857056 18.9908693,14.8356481 L19,15 L19,18 L14.9998679,18 L15,15 C15,14.2125349 14.7460048,13.4811358 14.2542539,12.8275473 L14.0996122,12.6338268 C13.9175551,12.4184509 13.7045004,12.2113833 13.4645572,12.0154114 Z M7,12 C8.94444444,12 12.779321,12.945216 12.9908693,14.8356481 L13,15 L13,18 L1,18 L1,15 C1,13 5,12 7,12 Z M13,4 C14.66,4 15.99,5.34 15.99,7 C15.99,8.66 14.66,10 13,10 C12.3801155,10 11.8048537,9.81314268 11.3273285,9.49254194 C11.7496918,8.75946415 11.99,7.9088116 11.99,7 C11.99,6.0911884 11.7496918,5.24053585 11.3296283,4.50775113 C11.8048537,4.18685732 12.3801155,4 13,4 Z M7,4 C8.66,4 9.99,5.34 9.99,7 C9.99,8.66 8.66,10 7,10 C5.34,10 4,8.66 4,7 C4,5.34 5.34,4 7,4 Z"/>
</svg>
