<svg xmlns="http://www.w3.org/2000/svg" width="20" height="20" viewBox="0 0 20 20">
  <path fill-rule="evenodd" d="M4,18 C2.8954305,18 2,17.1045695 2,16 L2,10 C2,8.8954305 2.8954305,8 4,8 L6.006,8 L6.01,4 C6.01,2.95 6.82092975,2.0822314 7.85136551,2.00551277 L8,2 L14,2 L18,6 L18,16 C18,17.05 17.1799587,17.9177686 16.1486946,17.9944872 L16,18 L4,18 Z M13,3.999 L8.01,4 L8.005,8 L12,8 C13.1045695,8 14,8.8954305 14,10 L14,16 L16.0000007,16 L16.0000007,7 L13,7 L13,3.999 Z M7,12 L3,16 L11,16 L7,12 Z M10.5,10 C9.67157288,10 9,10.6715729 9,11.5 C9,12.3284271 9.67157288,13 10.5,13 C11.3284271,13 12,12.3284271 12,11.5 C12,10.6715729 11.3284271,10 10.5,10 Z"/>
</svg>
