<svg xmlns="http://www.w3.org/2000/svg" width="20" height="20" viewBox="0 0 20 20">
  <path fill-rule="evenodd" d="M9.00004872,2.06188768 L8.99941365,3.64779687 C6.23368686,3.95293347 5,5.66758963 5,7.3 C5,10 7.6,10.5 9.8,11.1 C12.1,11.6 13,11.9 13,12.8 C13,14.2 11.4,14.5 10,14.5 C7.8,14.5 7,13.4 7,12.7 L7,12.7 L5,12.7 C5,14.3029257 6.42742825,16.0644546 8.99980802,16.4309646 L8.99980802,16.4309646 L9.00004872,17.9381123 C5.05371356,17.4460359 2,14.0796344 2,10 C2,5.92036556 5.05371356,2.55396414 9.00004872,2.06188768 Z M11.0009551,2.06201291 C14.9468043,2.55453501 18,5.92071147 18,10 C18,14.0792885 14.9468043,17.445465 11.0009551,17.9379871 L11.0017137,16.4493765 C14.6599769,16.0596902 15,13.5297872 15,12.7 C15,10 12.3,9.5 10.2,9 C7.9,8.5 7,8.2 7,7.3 C7,6.5 7.8,5.6 9.9,5.6 C11.9,5.6 12.6,6.8 12.6,7.3 L12.6,7.3 L14.6,7.3 C14.6,5.74046422 13.2488045,4.10586202 11.001681,3.69695741 L11.001681,3.69695741 Z"/>
</svg>
