<svg xmlns="http://www.w3.org/2000/svg" width="20" height="20" viewBox="0 0 20 20">
  <path fill-rule="evenodd" d="M16,4 C17.1045695,4 18,4.8954305 18,6 L18,14 C18,15.1045695 17.1045695,16 16,16 L4,16 C2.8954305,16 2,15.1045695 2,14 L2,6 C2,4.8954305 2.8954305,4 4,4 L16,4 Z M12.1057186,11.2067186 L11.4142136,11.8994949 C10.633165,12.6805435 9.36683502,12.6805435 8.58578644,11.8994949 L7.89371863,11.2067186 L4.102,15 L15.898,15 L12.1057186,11.2067186 Z M3,6.314 L3,14 L3.00912882,14.1356941 C3.02865061,14.2795946 3.07878267,14.4137695 3.15275212,14.5314459 L7.18671863,10.4997186 L3,6.314 Z M17,6.313 L12.8127186,10.4997186 L16.8472479,14.5314459 C16.9212173,14.4137695 16.9713494,14.2795946 16.9908712,14.1356941 L17,14 L17,6.313 Z M16,5 L4,5 L3.86430592,5.00912882 C3.66740164,5.03584119 3.48870713,5.11986645 3.34557439,5.2438526 L9.29289322,11.1923882 L9.39529847,11.2818833 C9.5734628,11.417482 9.7867314,11.4852814 10,11.4852814 C10.2132686,11.4852814 10.4265372,11.417482 10.6047015,11.2818833 L10.7071068,11.1923882 L16.655,5.246 L16.6110702,5.20836256 C16.4420829,5.07772834 16.2301186,5 16,5 Z"/>
</svg>
