<svg xmlns="http://www.w3.org/2000/svg" width="20" height="20" viewBox="0 0 20 20">
  <path fill-rule="evenodd" d="M13,4 L13,7 L16,7 L18,10 L18,14 L16.9501074,14.000574 C16.9828256,14.1619511 17,14.3289699 17,14.5 C17,15.8807119 15.8807119,17 14.5,17 C13.1192881,17 12,15.8807119 12,14.5 C12,14.3289699 12.0171744,14.1619511 12.0498926,14.000574 L7.9501074,14.000574 C7.98282562,14.1619511 8,14.3289699 8,14.5 C8,15.8807119 6.88071187,17 5.5,17 C4.11928813,17 3,15.8807119 3,14.5 C3,14.3289699 3.01717438,14.1619511 3.0498926,14.000574 L2,14 L2,6 C2,4.8954305 2.8954305,4 4,4 L13,4 Z M5.5,13.5 C4.94771525,13.5 4.5,13.9477153 4.5,14.5 C4.5,15.0522847 4.94771525,15.5 5.5,15.5 C6.05228475,15.5 6.5,15.0522847 6.5,14.5 C6.5,13.9477153 6.05228475,13.5 5.5,13.5 Z M14.5,13.5 C13.9477153,13.5 13.5,13.9477153 13.5,14.5 C13.5,15.0522847 13.9477153,15.5 14.5,15.5 C15.0522847,15.5 15.5,15.0522847 15.5,14.5 C15.5,13.9477153 15.0522847,13.5 14.5,13.5 Z M15.143,8.6 L13,8.6 L13,11 L16.4,11 L16.4,10.485 L15.143,8.6 Z"/>
</svg>
