<svg xmlns="http://www.w3.org/2000/svg" width="20" height="20" viewBox="0 0 20 20">
  <path fill-rule="evenodd" d="M14,2 C15.1045695,2 16,2.8954305 16,4 L16,16 C16,17.1045695 15.1045695,18 14,18 L6,18 C4.8954305,18 4,17.1045695 4,16 L4,4 C4,2.8954305 4.8954305,2 6,2 L14,2 Z M8,14 L6,14 L6,16 L8,16 L8,14 Z M11,14 L9,14 L9,16 L11,16 L11,14 Z M14,14 L12,14 L12,16 L14,16 L14,14 Z M8,11 L6,11 L6,13 L8,13 L8,11 Z M11,11 L9,11 L9,13 L11,13 L11,11 Z M14,11 L12,11 L12,13 L14,13 L14,11 Z M14,4 L6,4 L6,8 L14,8 L14,4 Z"/>
</svg>
