<svg xmlns="http://www.w3.org/2000/svg" width="24" height="24" viewBox="0 0 24 24">
  <path fill-rule="evenodd" d="M18,2 C20.209139,2 22,3.790861 22,6 L22,18 C22,20.209139 20.209139,22 18,22 L6,22 C3.790861,22 2,20.209139 2,18 L2,6 C2,3.790861 3.790861,2 6,2 L18,2 Z M3.00066537,15.9195121 L3,18 C3,19.5976809 4.24891996,20.9036609 5.82372721,20.9949073 L6,21 L9.489,21 L9.39910107,20.8703601 C7.89110885,18.759686 5.81149856,17.0854242 3.38641183,16.0737165 L3.00066537,15.9195121 Z M11.5094132,21 L18,21 C19.5976809,21 20.9036609,19.75108 20.9949073,18.1762728 L21,18 L21.0005158,15.1417039 C17.2036143,15.6846638 13.8981271,17.751099 11.7231218,20.7019417 L11.5094132,21 Z M16.422,3 L6,3 C4.40231912,3 3.09633912,4.24891996 3.00509269,5.82372721 L3,6 L3.00058744,14.8537362 C5.90113731,15.87907 8.39218688,17.7712234 10.162473,20.2189333 L16.422,3 Z M20.1909067,3.95061223 L13.1409274,17.6949112 C15.3035968,15.8073011 18.0128814,14.5301608 21.000128,14.1321662 L21,6 C21,5.20757001 20.692761,4.48689953 20.1909067,3.95061223 Z M18,3 L17.486,3 L12.4475643,16.8552318 L19.3808786,3.33599911 C19.0166676,3.14682652 18.6087595,3.03015155 18.1762728,3.00509269 L18,3 Z M10.767767,10.3661165 L10.331184,11.25 L10.767767,12.1338835 L9.88388348,11.6973005 L9,12.1338835 L9.43658297,11.25 L9,10.3661165 L9.88388348,10.8026995 L10.767767,10.3661165 Z M7.76776695,10.3661165 L7.33118398,11.25 L7.76776695,12.1338835 L6.88388348,11.6973005 L6,12.1338835 L6.43658297,11.25 L6,10.3661165 L6.88388348,10.8026995 L7.76776695,10.3661165 Z M8.40165043,6.01776695 L8.84445534,7.32496205 L10.1516504,7.76776695 L8.84445534,8.21057186 L8.40165043,9.51776695 L7.95884552,8.21057186 L6.65165043,7.76776695 L7.95884552,7.32496205 L8.40165043,6.01776695 Z"/>
</svg>
