<svg xmlns="http://www.w3.org/2000/svg" width="20" height="20" viewBox="0 0 20 20">
  <path fill-rule="evenodd" d="M3.77777778,2 L16.2222222,2 C17.1511111,2 17.9195556,2.722 17.9940778,3.63252222 L18,3.77777778 L18,16.2222222 C18,17.1511111 17.278,17.9195556 16.3674778,17.9940778 L16.2222222,18 L3.77777778,18 C2.84888889,18 2.08044444,17.278 2.00592222,16.3674778 L2,16.2222222 L2,3.77777778 C2,2.84888889 2.722,2.08044444 3.63252222,2.00592222 L3.77777778,2 L16.2222222,2 L3.77777778,2 Z M7.93049498,6.03551403 L4.00091383,10.1047144 L8.07011424,14.0342956 L9.45964823,12.5958258 L6.82891017,10.0553516 L9.36938439,7.42461352 L7.93049498,6.03551403 Z M11.9298858,5.96570441 L10.5403518,7.4041742 L13.1710898,9.94464842 L10.6306156,12.5753865 L12.069505,13.964486 L15.9990862,9.89528556 L11.9298858,5.96570441 Z"/>
</svg>
