<svg xmlns="http://www.w3.org/2000/svg" width="20" height="20" viewBox="0 0 20 20">
  <path fill-rule="evenodd" d="M12.5,2 C13.8807119,2 15,3.11928813 15,4.5 C15,4.67138643 14.982754,4.83874484 14.9499027,5.00043449 L16,5 C17.1045695,5 18,5.8954305 18,7 L18,15 C18,16.1045695 17.1045695,17 16,17 L4,17 C2.8954305,17 2,16.1045695 2,15 L2,7 C2,5.8954305 2.8954305,5 4,5 L5.05009729,5.00043449 C5.01724601,4.83874484 5,4.67138643 5,4.5 C5,3.11928813 6.11928813,2 7.5,2 C8.42675055,2 9.23572297,2.50426808 9.66750053,3.25338749 L10.0003175,3.586 L10.3324995,3.25338749 C10.764277,2.50426808 11.5732495,2 12.5,2 Z M16,13 L4,13 L4,15 L16,15 L16,13 Z M6.585,7 L4,7 L4,11 L16,11 L16,7 L13.414,7 L14.9266825,8.51246891 L13.5124689,9.92668247 L10.587,7 L9.413,7 L6.48753109,9.92668247 L5.07331753,8.51246891 L6.585,7 Z M7.5,3.5 C6.94771525,3.5 6.5,3.94771525 6.5,4.5 C6.5,5.05228475 6.94771525,5.5 7.5,5.5 C8.05228475,5.5 8.5,5.05228475 8.5,4.5 C8.5,3.94771525 8.05228475,3.5 7.5,3.5 Z M12.5,3.5 C11.9477153,3.5 11.5,3.94771525 11.5,4.5 C11.5,5.05228475 11.9477153,5.5 12.5,5.5 C13.0522847,5.5 13.5,5.05228475 13.5,4.5 C13.5,3.94771525 13.0522847,3.5 12.5,3.5 Z"/>
</svg>
