<svg xmlns="http://www.w3.org/2000/svg" width="20" height="20" viewBox="0 0 20 20">
  <path fill-rule="evenodd" d="M10,2 C14.418278,2 18,5.581722 18,10 C18,14.418278 14.418278,18 10,18 C8.42619371,18 6.95853046,17.5455477 5.72107925,16.760712 L2,18 L3.24054808,14.2809068 C2.45493878,13.04304 2,11.5746483 2,10 C2,5.581722 5.581722,2 10,2 Z M10,4 C6.6862915,4 4,6.6862915 4,10 C4,11.0588825 4.2731004,12.0731905 4.78398202,12.9681534 L4.92918224,13.2092191 L5.43860606,14.0119067 L5.162,14.839 L5.99021908,14.5630732 L6.79227089,15.071763 C7.74391861,15.675332 8.84546414,16 10,16 C13.3137085,16 16,13.3137085 16,10 C16,6.6862915 13.3137085,4 10,4 Z M7.53128726,5.8 L7.59448077,5.80101563 C7.73006267,5.81049644 7.86465055,5.83689118 7.98314387,5.84517704 L8.09089865,5.8486084 C8.1814885,5.85709268 8.28466836,5.89883063 8.37781894,6.11161245 L8.41706064,6.21367846 L8.86835303,7.55543645 L8.96304934,7.8201788 C8.98968836,7.90873709 8.99375915,8.00639343 8.9316938,8.11029447 C8.85485014,8.24041109 8.81517886,8.32198805 8.70496428,8.43278771 L8.47975496,8.66597612 L8.47975496,8.66597612 L8.29616409,8.83801037 C8.22324744,8.9158473 8.17884576,9.01244933 8.25712863,9.17006665 L8.33061641,9.31246283 C8.48805477,9.60711016 8.81826011,10.1655978 9.2908326,10.6465027 C9.62720757,10.9887903 9.94472147,11.2283006 10.2084137,11.3983028 L10.3356128,11.4776655 L10.5592158,11.6053336 L10.9358066,11.8041471 C11.08691,11.8727078 11.1905231,11.8508618 11.3003424,11.742245 L11.5823998,11.4562666 L11.8454353,11.1763618 L12.0552049,10.9348381 C12.1651044,10.8324027 12.2705575,10.8485803 12.3986036,10.8995217 L12.4646347,10.9275012 L12.509439,10.9488917 L12.8361325,11.1251874 L14.0114461,11.7979673 C14.0961414,11.8485494 14.154502,11.8912167 14.1817396,11.943732 C14.2263713,12.0313927 14.1981259,12.4353216 13.9961321,12.8952233 C13.8086847,13.3189818 13.0596356,13.6893198 12.6506225,13.7497346 L12.4801521,13.7633538 L12.2503402,13.7958594 C12.0963626,13.8086623 11.8828851,13.790118 11.445008,13.6360798 L11.2905117,13.5795725 L10.9262238,13.4330197 L10.5519239,13.2690668 L10.1505837,13.0831707 C8.84587992,12.4651335 7.9003045,11.3240793 7.37185719,10.5601302 L7.26502423,10.4025269 L7.09017328,10.1298251 L6.79456001,9.64252853 C6.58634029,9.29614384 6.147913,8.46661828 6.20509757,7.6488409 C6.24675273,7.05314433 6.46479176,6.65231966 6.67584749,6.38614044 L6.74568923,6.30231829 L6.87778408,6.16261244 L7.03431687,6.01546441 C7.20624964,5.85360913 7.39537831,5.80470035 7.53128726,5.8 Z"/>
</svg>
