<svg xmlns="http://www.w3.org/2000/svg" width="20" height="20" viewBox="0 0 20 20">
  <path fill-rule="evenodd" d="M6.5,15 C7.32842712,15 8,15.6715729 8,16.5 C8,17.3284271 7.32842712,18 6.5,18 C5.67157288,18 5,17.3284271 5,16.5 C5,15.6715729 5.67157288,15 6.5,15 Z M14.5,15 C15.3284271,15 16,15.6715729 16,16.5 C16,17.3284271 15.3284271,18 14.5,18 C13.6715729,18 13,17.3284271 13,16.5 C13,15.6715729 13.6715729,15 14.5,15 Z M5,2 L6,4 L17,4 C17.8,4 18.2,4.68571429 17.9,5.28571429 L15,9.57142857 C14.8,9.82857143 14.5,10 14.1,10 L8.223,10 L7.3,11.8 L16,11.8 L16,13.8 L6,13.8 C5.4,13.8 5,13.4 5,12.8 L5,11.8 L6.479,8.959 L4,4 L2,4 L2,2 L5,2 Z"/>
</svg>
