<svg xmlns="http://www.w3.org/2000/svg" width="20" height="20" viewBox="0 0 20 20">
  <path fill-rule="evenodd" d="M15.6568542,4.34314575 C18.7810486,7.46734008 18.7810486,12.5326599 15.6568542,15.6568542 C12.5326599,18.7810486 7.46734008,18.7810486 4.34314575,15.6568542 C1.21895142,12.5326599 1.21895142,7.46734008 4.34314575,4.34314575 C7.46734008,1.21895142 12.5326599,1.21895142 15.6568542,4.34314575 Z M8.58578644,10 L7.83412814,9.24973937 C6.70920634,10.1249905 5.40431781,10.6580841 4.06016951,10.8490203 C4.19166346,11.7766248 4.54139669,12.6806025 5.10902571,13.4770316 L8.58578644,10 Z M10.7506563,12.1653601 L10,11.4142136 L6.52379287,14.8915618 C7.32002132,15.4588446 8.22369575,15.808382 9.15233217,15.940174 C9.34191479,14.5953943 9.87518171,13.2903672 10.7506563,12.1653601 Z M13.4762071,14.8915618 L12.1792357,13.5952401 C11.682061,14.2931811 11.3521777,15.0736616 11.1895859,15.8811351 C11.9974695,15.7188958 12.7781324,15.3889137 13.4762071,14.8915618 Z M6.40474557,7.82075573 L5.10843823,6.52379287 C4.61132932,7.22152639 4.28142679,8.0017675 4.11873066,8.80901209 C4.92694036,8.64737921 5.70711922,8.31765774 6.40474557,7.82075573 Z M8.8104141,4.1188649 L8.75103721,4.13071268 C7.96410995,4.29739823 7.20419636,4.62350258 6.52296843,5.10902571 L7.8201766,6.40558472 C8.31767909,5.70743385 8.64775826,4.92665652 8.8104141,4.1188649 Z M11.0426823,4.09077269 L10.848686,4.06032247 C10.6579039,5.40495573 10.1245226,6.71027865 9.24870755,7.83545121 L10,8.58578644 L13.4770316,5.10902571 C12.736447,4.58119802 11.9028672,4.24178035 11.0426823,4.09077269 Z M14.8915618,6.52379287 L11.4142136,10 L12.1645763,10.7512689 C13.289715,9.87547863 14.5949881,9.34206194 15.9395554,9.15101881 C15.808382,8.22369575 15.4588446,7.32002132 14.8915618,6.52379287 Z M15.8812693,11.1909879 C15.0696665,11.3539854 14.290891,11.6835818 13.5944295,12.1798319 L14.8909743,13.4770316 C15.3884108,12.7790883 15.7185091,11.9985505 15.8812693,11.1909879 Z"/>
</svg>
