<svg xmlns="http://www.w3.org/2000/svg" width="343" height="80" viewBox="0 0 343 80"><g fill="none" fill-rule="evenodd"><path fill="#63BA0D" d="M331 25v35a4 4 0 01-4 4h-4v11a5 5 0 11-10 0V64h-8v11a5 5 0 11-10 0V64h-4a4 4 0 01-4-4V25h44zm-51.5 0a4.5 4.5 0 014.5 4.5v20a4.5 4.5 0 01-9 0v-20a4.5 4.5 0 014.5-4.5zm59 0a4.5 4.5 0 014.5 4.5v20a4.5 4.5 0 01-9 0v-20a4.5 4.5 0 014.5-4.5zM322.53.152a1 1 0 01.374 1.276l-.056.102-3.243 5.19c5.676 3.129 9.822 8.691 11.032 15.28h-43.274c1.21-6.59 5.356-12.152 11.033-15.28l-3.244-5.19a1 1 0 011.629-1.155l.067.095 3.351 5.361A21.926 21.926 0 01309 4c3.13 0 6.107.653 8.802 1.831l3.35-5.36.068-.096a1 1 0 011.31-.223zM299.5 11a2.5 2.5 0 100 5 2.5 2.5 0 000-5zm19 0a2.5 2.5 0 100 5 2.5 2.5 0 000-5z"/><path fill="#0D75C4" d="M251 41v34l-39-4.333V41h39zm-72 0h30v29.333L179 67V41zm72-3h-39V8.417L251 3v35zM209 8.833V38h-30V13l30-4.167z"/><path fill="#C7E4FB" d="M122.501 59.59c-9.609.367-19.97-1.41-28.706-5.768L95.606 51c8.523 3.97 18.224 5.332 26.895 4.937 0 .31.377-5.826.938-9.168h-13.04A81.922 81.922 0 01122.005 11H83v59h41c-.93-3.526-1.499-10.536-1.499-10.41z"/><path fill="#4AA9F2" d="M125.408 55.69c7.059-.706 13.278-2.54 17.062-4.938l2.23 2.821c-5.21 3.04-12 5.022-19.292 5.77.185 3.6.746 7.172 1.673 10.657H155V11h-29.705A73.433 73.433 0 00114 42.86h13.328a58.685 58.685 0 00-1.92 12.83z"/><path fill="#4FACF3" d="M100 20h4v9h-4v-9z"/><path fill="#04253E" d="M132 20h4v9h-4v-9z"/><path fill="#04253E" d="M126.382 55.533c6.812-.698 12.814-2.513 16.465-4.887L145 53.44c-5.027 3.008-11.58 4.97-18.618 5.71a47.022 47.022 0 004.966 19.134L128.235 80c-5.681-9.194-6.73-21.584-4.728-33.298H111C112.3 29.882 118.705 13.9 129.318 1l2.725 2.394c-9.355 11.096-15.172 24.859-16.67 39.441h12.862a59.463 59.463 0 00-1.853 12.698z"/><path fill="#4FACF3" d="M122 55.566v3.39c-9.373.34-19.48-1.306-28-5.343L95.766 51c8.313 3.678 17.776 4.939 26.234 4.573v-.007z"/><path fill="#616161" fill-rule="nonzero" d="M29.949 20.704c2.873-.005 8.234-3.88 13.878-3.319 2.364.097 8.993.938 13.258 7.12-.338.212-7.906 4.602-7.809 13.713h-.023C49.37 49.094 58.89 52.725 59 52.77a39.726 39.726 0 01-5.005 10.246c-3.016 4.39-6.139 8.762-11.075 8.854-4.853.101-6.416-2.84-11.963-2.836-5.546.004-7.276 2.776-11.865 2.96-4.765.184-8.401-4.73-11.45-9.092-6.221-8.932-11-25.237-4.625-36.27 3.173-5.474 8.835-8.94 14.974-9.041 4.677-.106 9.085 3.117 11.958 3.112zM43.933 0c.467 4.215-1.235 8.444-3.765 11.492-2.53 3.043-6.685 5.41-10.746 5.098-.556-4.133 1.498-8.44 3.84-11.134C35.878 2.413 40.291.147 43.932 0z"/></g></svg>