<svg xmlns="http://www.w3.org/2000/svg" width="152" height="79" viewBox="0 0 152 79"><g fill="none" fill-rule="evenodd"><path fill="#C7E4FB" d="M39.501 58.59c-9.609.367-19.97-1.41-28.706-5.768L12.606 50c8.523 3.97 18.224 5.332 26.895 4.937 0 .31.377-5.826.938-9.168h-13.04A81.922 81.922 0 0139.005 10H0v59h41c-.93-3.526-1.499-10.536-1.499-10.41z"/><path fill="#4AA9F2" d="M42.408 54.69c7.059-.706 13.278-2.54 17.062-4.938l2.23 2.821c-5.21 3.04-12 5.022-19.292 5.77.185 3.6.746 7.172 1.673 10.657H72V10H42.295A73.433 73.433 0 0031 41.86h13.328a58.685 58.685 0 00-1.92 12.83z"/><path fill="#4FACF3" d="M17 19h4v9h-4v-9z"/><path fill="#04253E" d="M49 19h4v9h-4v-9z"/><path fill="#04253E" d="M43.382 54.533c6.812-.698 12.814-2.513 16.465-4.887L62 52.44c-5.027 3.008-11.58 4.97-18.618 5.71a47.022 47.022 0 004.966 19.134L45.235 79c-5.681-9.194-6.73-21.584-4.728-33.298H28C29.3 28.882 35.705 12.9 46.318 0l2.725 2.394c-9.355 11.096-15.172 24.859-16.67 39.441h12.862a59.463 59.463 0 00-1.853 12.698z"/><path fill="#4FACF3" d="M39 54.566v3.39c-9.373.34-19.48-1.306-28-5.343L12.766 50C21.08 53.678 30.542 54.939 39 54.573v-.007z"/><path fill="#0D75C4" d="M152 40.5V74l-39-4.333V40.5h39zm-72 0h30v28.833L80 66V40.5zm72-3h-39V7.417L152 2v35.5zM110 7.833V37.5H80V12l30-4.167z"/></g></svg>