<svg xmlns="http://www.w3.org/2000/svg" xmlns:xlink="http://www.w3.org/1999/xlink" width="96" height="96"><defs><rect id="icon-markdown-b" width="48" height="48" x="0" y="0" rx="12"/><filter id="icon-markdown-a" width="279.2%" height="279.2%" x="-89.6%" y="-60.4%" filterUnits="objectBoundingBox"><feMorphology in="SourceAlpha" radius="2" result="shadowSpreadOuter1"/><feOffset dy="8" in="shadowSpreadOuter1" result="shadowOffsetOuter1"/><feGaussianBlur in="shadowOffsetOuter1" result="shadowBlurOuter1" stdDeviation="8"/><feColorMatrix in="shadowBlurOuter1" result="shadowMatrixOuter1" values="0 0 0 0 0   0 0 0 0 0   0 0 0 0 0  0 0 0 0.133095562 0"/><feMorphology in="SourceAlpha" radius="2" result="shadowSpreadOuter2"/><feOffset dy="14" in="shadowSpreadOuter2" result="shadowOffsetOuter2"/><feGaussianBlur in="shadowOffsetOuter2" result="shadowBlurOuter2" stdDeviation="14"/><feColorMatrix in="shadowBlurOuter2" result="shadowMatrixOuter2" values="0 0 0 0 0   0 0 0 0 0   0 0 0 0 0  0 0 0 0.116762908 0"/><feMerge><feMergeNode in="shadowMatrixOuter1"/><feMergeNode in="shadowMatrixOuter2"/></feMerge></filter></defs><g fill="none" fill-rule="evenodd" transform="translate(24 10)"><use fill="#000" filter="url(#icon-markdown-a)" xlink:href="#icon-markdown-b"/><use fill="#F5826B" xlink:href="#icon-markdown-b"/><path fill="#FFF" d="M3.77777778,2 L16.2222222,2 C17.1511111,2 17.9195556,2.722 17.9940778,3.63252222 L18,3.77777778 L18,16.2222222 C18,17.1511111 17.278,17.9195556 16.3674778,17.9940778 L16.2222222,18 L3.77777778,18 C2.84888889,18 2.08044444,17.278 2.00592222,16.3674778 L2,16.2222222 L2,3.77777778 C2,2.84888889 2.722,2.08044444 3.63252222,2.00592222 L3.77777778,2 L16.2222222,2 L3.77777778,2 Z M8.94337847,8 L7.44337847,8 L7.44337847,14 L8.94337847,14 L8.94337847,10.5 L8.95250729,10.3643059 C8.98260573,10.1424419 9.08546802,9.94369689 9.23627169,9.79289322 C9.4172361,9.61192881 9.6672361,9.5 9.94337847,9.5 C10.1734971,9.5 10.3854613,9.57772834 10.5544487,9.70836256 L10.6504853,9.79289322 L10.7350159,9.88892981 C10.8395233,10.0241197 10.9101709,10.1868147 10.9342496,10.3643059 L10.9433785,10.5 L10.9433785,14 L12.4433785,14 L12.4433785,10.5 L12.4525073,10.3643059 C12.4826057,10.1424419 12.585468,9.94369689 12.7362717,9.79289322 C12.9172361,9.61192881 13.1672361,9.5 13.4433785,9.5 C13.6734971,9.5 13.8854613,9.57772834 14.0544487,9.70836256 L14.1504853,9.79289322 L14.2350159,9.88892981 C14.3395233,10.0241197 14.4101709,10.1868147 14.4342496,10.3643059 L14.4433785,10.5 L14.4433785,14 L15.9433785,14 L15.9433785,10 C15.9433785,8.8954305 15.047948,8 13.9433785,8 C13.1906778,8 12.5350938,8.41580561 12.1929623,9.03024859 C11.8516631,8.41580561 11.1960791,8 10.4433785,8 C9.90600836,8 9.4181372,8.21193018 9.05878734,8.55676817 L8.9438725,8.67652828 L8.94337847,8 Z M6,6 L5,6 L4.99937847,7.311 L3.75239546,6.90643775 L3.44337847,7.85749427 L4.69137847,8.262 L3.919921,9.32414136 L4.72893799,9.91192661 L5.49937847,8.85 L6.27106201,9.91192661 L7.080079,9.32414136 L6.30837847,8.262 L7.55662153,7.85749427 L7.24760454,6.90643775 L5.99937847,7.312 L6,6 Z" transform="translate(14 14)"/></g></svg>