<svg xmlns="http://www.w3.org/2000/svg" xmlns:xlink="http://www.w3.org/1999/xlink" width="96" height="96" viewBox="0 0 96 96"><defs><filter id="icon-markdown-a" width="279.2%" height="279.2%" x="-89.6%" y="-60.4%" filterUnits="objectBoundingBox"><feMorphology in="SourceAlpha" radius="2" result="shadowSpreadOuter1"/><feOffset dy="8" in="shadowSpreadOuter1" result="shadowOffsetOuter1"/><feGaussianBlur in="shadowOffsetOuter1" result="shadowBlurOuter1" stdDeviation="8"/><feColorMatrix in="shadowBlurOuter1" result="shadowMatrixOuter1" values="0 0 0 0 0 0 0 0 0 0 0 0 0 0 0 0 0 0 0.133095562 0"/><feMorphology in="SourceAlpha" radius="2" result="shadowSpreadOuter2"/><feOffset dy="14" in="shadowSpreadOuter2" result="shadowOffsetOuter2"/><feGaussianBlur in="shadowOffsetOuter2" result="shadowBlurOuter2" stdDeviation="14"/><feColorMatrix in="shadowBlurOuter2" result="shadowMatrixOuter2" values="0 0 0 0 0 0 0 0 0 0 0 0 0 0 0 0 0 0 0.116762908 0"/><feMerge><feMergeNode in="shadowMatrixOuter1"/><feMergeNode in="shadowMatrixOuter2"/></feMerge></filter><rect id="icon-markdown-b" width="48" height="48" x="0" y="0" rx="12"/></defs><g fill="none" fill-rule="evenodd" transform="translate(24 10)"><use fill="#000" filter="url(#icon-markdown-a)" xlink:href="#icon-markdown-b"/><use fill="#F5826B" xlink:href="#icon-markdown-b"/><path fill="#FFF" d="M17.778 16h12.444c.93 0 1.698.722 1.772 1.633l.006.145v12.444c0 .93-.722 1.698-1.633 1.772l-.145.006H17.778a1.784 1.784 0 01-1.772-1.633L16 30.222V17.778c0-.93.722-1.698 1.633-1.772l.145-.006h12.444-12.444zm5.165 6h-1.5v6h1.5v-3.5l.01-.136a.997.997 0 01.99-.864 1 1 0 01.611.208l.096.085.085.096a.995.995 0 01.2.475l.008.136V28h1.5v-3.5l.01-.136a.997.997 0 01.99-.864 1 1 0 01.611.208l.096.085.085.096a.995.995 0 01.2.475l.008.136V28h1.5v-4a2 2 0 00-3.75-.97 2 2 0 00-3.134-.473l-.115.12V22zM20 20h-1v1.311l-1.248-.405-.309.951 1.248.405-.771 1.062.809.588.77-1.062.772 1.062.81-.588-.773-1.062 1.249-.405-.31-.95-1.248.405L20 20z"/></g></svg>