<svg xmlns="http://www.w3.org/2000/svg" xmlns:xlink="http://www.w3.org/1999/xlink" width="96" height="96"><defs><rect id="icon-files-b" width="48" height="48" x="0" y="0" rx="12"/><filter id="icon-files-a" width="279.2%" height="279.2%" x="-89.6%" y="-60.4%" filterUnits="objectBoundingBox"><feMorphology in="SourceAlpha" radius="2" result="shadowSpreadOuter1"/><feOffset dy="8" in="shadowSpreadOuter1" result="shadowOffsetOuter1"/><feGaussianBlur in="shadowOffsetOuter1" result="shadowBlurOuter1" stdDeviation="8"/><feColorMatrix in="shadowBlurOuter1" result="shadowMatrixOuter1" values="0 0 0 0 0   0 0 0 0 0   0 0 0 0 0  0 0 0 0.133095562 0"/><feMorphology in="SourceAlpha" radius="2" result="shadowSpreadOuter2"/><feOffset dy="14" in="shadowSpreadOuter2" result="shadowOffsetOuter2"/><feGaussianBlur in="shadowOffsetOuter2" result="shadowBlurOuter2" stdDeviation="14"/><feColorMatrix in="shadowBlurOuter2" result="shadowMatrixOuter2" values="0 0 0 0 0   0 0 0 0 0   0 0 0 0 0  0 0 0 0.116762908 0"/><feMerge><feMergeNode in="shadowMatrixOuter1"/><feMergeNode in="shadowMatrixOuter2"/></feMerge></filter></defs><g fill="none" fill-rule="evenodd" transform="translate(24 10)"><use fill="#000" filter="url(#icon-files-a)" xlink:href="#icon-files-b"/><use fill="#F5826B" xlink:href="#icon-files-b"/><path fill="#FFF" d="M4,18 C2.8954305,18 2,17.1045695 2,16 L2,10 C2,8.8954305 2.8954305,8 4,8 L6.006,8 L6.01,4 C6.01,2.95 6.82092975,2.0822314 7.85136551,2.00551277 L8,2 L14,2 L18,6 L18,16 C18,17.05 17.1799587,17.9177686 16.1486946,17.9944872 L16,18 L4,18 Z M13,3.999 L8.01,4 L8.005,8 L12,8 C13.1045695,8 14,8.8954305 14,10 L14,16 L16.0000007,16 L16.0000007,7 L13,7 L13,3.999 Z M7,12 L3,16 L11,16 L7,12 Z M10.5,10 C9.67157288,10 9,10.6715729 9,11.5 C9,12.3284271 9.67157288,13 10.5,13 C11.3284271,13 12,12.3284271 12,11.5 C12,10.6715729 11.3284271,10 10.5,10 Z" transform="translate(14 14)"/></g></svg>