<svg xmlns="http://www.w3.org/2000/svg" xmlns:xlink="http://www.w3.org/1999/xlink" width="96" height="96" viewBox="0 0 96 96"><defs><filter id="icon-files-a" width="279.2%" height="279.2%" x="-89.6%" y="-60.4%" filterUnits="objectBoundingBox"><feMorphology in="SourceAlpha" radius="2" result="shadowSpreadOuter1"/><feOffset dy="8" in="shadowSpreadOuter1" result="shadowOffsetOuter1"/><feGaussianBlur in="shadowOffsetOuter1" result="shadowBlurOuter1" stdDeviation="8"/><feColorMatrix in="shadowBlurOuter1" result="shadowMatrixOuter1" values="0 0 0 0 0 0 0 0 0 0 0 0 0 0 0 0 0 0 0.133095562 0"/><feMorphology in="SourceAlpha" radius="2" result="shadowSpreadOuter2"/><feOffset dy="14" in="shadowSpreadOuter2" result="shadowOffsetOuter2"/><feGaussianBlur in="shadowOffsetOuter2" result="shadowBlurOuter2" stdDeviation="14"/><feColorMatrix in="shadowBlurOuter2" result="shadowMatrixOuter2" values="0 0 0 0 0 0 0 0 0 0 0 0 0 0 0 0 0 0 0.116762908 0"/><feMerge><feMergeNode in="shadowMatrixOuter1"/><feMergeNode in="shadowMatrixOuter2"/></feMerge></filter><rect id="icon-files-b" width="48" height="48" x="0" y="0" rx="12"/></defs><g fill="none" fill-rule="evenodd" transform="translate(24 10)"><use fill="#000" filter="url(#icon-files-a)" xlink:href="#icon-files-b"/><use fill="#F5826B" xlink:href="#icon-files-b"/><path fill="#FFF" d="M18 32a2 2 0 01-2-2v-6a2 2 0 012-2h2.006l.004-4c0-1.05.81-1.918 1.841-1.994L22 16h6l4 4v10c0 1.05-.82 1.918-1.851 1.994L30 32H18zm9-14.001L22.01 18l-.005 4H26a2 2 0 012 2v6h2v-9h-3v-3.001zM21 26l-4 4h8l-4-4zm3.5-2a1.5 1.5 0 100 3 1.5 1.5 0 000-3z"/></g></svg>